%TF.GenerationSoftware,KiCad,Pcbnew,(6.0.11)*%
%TF.CreationDate,2023-07-13T20:03:18-03:00*%
%TF.ProjectId,Open-Tens,4f70656e-2d54-4656-9e73-2e6b69636164,rev?*%
%TF.SameCoordinates,Original*%
%TF.FileFunction,Legend,Top*%
%TF.FilePolarity,Positive*%
%FSLAX46Y46*%
G04 Gerber Fmt 4.6, Leading zero omitted, Abs format (unit mm)*
G04 Created by KiCad (PCBNEW (6.0.11)) date 2023-07-13 20:03:18*
%MOMM*%
%LPD*%
G01*
G04 APERTURE LIST*
%ADD10C,0.150000*%
%ADD11C,2.000000*%
%ADD12C,0.120000*%
G04 APERTURE END LIST*
D10*
X139142857Y-127894761D02*
X138476190Y-126942380D01*
X138000000Y-127894761D02*
X138000000Y-125894761D01*
X138761904Y-125894761D01*
X138952380Y-125990000D01*
X139047619Y-126085238D01*
X139142857Y-126275714D01*
X139142857Y-126561428D01*
X139047619Y-126751904D01*
X138952380Y-126847142D01*
X138761904Y-126942380D01*
X138000000Y-126942380D01*
X140000000Y-126847142D02*
X140666666Y-126847142D01*
X140952380Y-127894761D02*
X140000000Y-127894761D01*
X140000000Y-125894761D01*
X140952380Y-125894761D01*
X141523809Y-125894761D02*
X142190476Y-127894761D01*
X142857142Y-125894761D01*
X146095238Y-127894761D02*
X144952380Y-127894761D01*
X145523809Y-127894761D02*
X145523809Y-125894761D01*
X145333333Y-126180476D01*
X145142857Y-126370952D01*
X144952380Y-126466190D01*
X138000000Y-129114761D02*
X138190476Y-129114761D01*
X138380952Y-129210000D01*
X138476190Y-129305238D01*
X138571428Y-129495714D01*
X138666666Y-129876666D01*
X138666666Y-130352857D01*
X138571428Y-130733809D01*
X138476190Y-130924285D01*
X138380952Y-131019523D01*
X138190476Y-131114761D01*
X138000000Y-131114761D01*
X137809523Y-131019523D01*
X137714285Y-130924285D01*
X137619047Y-130733809D01*
X137523809Y-130352857D01*
X137523809Y-129876666D01*
X137619047Y-129495714D01*
X137714285Y-129305238D01*
X137809523Y-129210000D01*
X138000000Y-129114761D01*
X139333333Y-129114761D02*
X140666666Y-129114761D01*
X139809523Y-131114761D01*
X142857142Y-129019523D02*
X141142857Y-131590952D01*
X143428571Y-129305238D02*
X143523809Y-129210000D01*
X143714285Y-129114761D01*
X144190476Y-129114761D01*
X144380952Y-129210000D01*
X144476190Y-129305238D01*
X144571428Y-129495714D01*
X144571428Y-129686190D01*
X144476190Y-129971904D01*
X143333333Y-131114761D01*
X144571428Y-131114761D01*
X145238095Y-129114761D02*
X146476190Y-129114761D01*
X145809523Y-129876666D01*
X146095238Y-129876666D01*
X146285714Y-129971904D01*
X146380952Y-130067142D01*
X146476190Y-130257619D01*
X146476190Y-130733809D01*
X146380952Y-130924285D01*
X146285714Y-131019523D01*
X146095238Y-131114761D01*
X145523809Y-131114761D01*
X145333333Y-131019523D01*
X145238095Y-130924285D01*
X135300000Y-81700000D02*
X135300000Y-83500000D01*
X134200000Y-82600000D02*
X136400000Y-82600000D01*
X161200000Y-102400000D02*
G75*
G03*
X161200000Y-102400000I-200000J0D01*
G01*
D11*
X129800000Y-137200000D02*
X129800000Y-64700000D01*
X129800000Y-137200000D02*
G75*
G03*
X137300000Y-144700000I7500000J0D01*
G01*
X137300000Y-57200000D02*
G75*
G03*
X129800000Y-64700000I0J-7500000D01*
G01*
X172300000Y-57200000D02*
X137300000Y-57200000D01*
X179800000Y-64700000D02*
G75*
G03*
X172300000Y-57200000I-7500000J0D01*
G01*
X172300000Y-144700000D02*
G75*
G03*
X179800000Y-137200000I0J7500000D01*
G01*
X179800000Y-64700000D02*
X179800000Y-137200000D01*
X172300000Y-144700000D02*
X137300000Y-144700000D01*
D10*
%TO.C,J4*%
X155616666Y-140402380D02*
X155616666Y-141116666D01*
X155569047Y-141259523D01*
X155473809Y-141354761D01*
X155330952Y-141402380D01*
X155235714Y-141402380D01*
X156521428Y-140735714D02*
X156521428Y-141402380D01*
X156283333Y-140354761D02*
X156045238Y-141069047D01*
X156664285Y-141069047D01*
%TO.C,L1*%
X155633333Y-125152380D02*
X155157142Y-125152380D01*
X155157142Y-124152380D01*
X156490476Y-125152380D02*
X155919047Y-125152380D01*
X156204761Y-125152380D02*
X156204761Y-124152380D01*
X156109523Y-124295238D01*
X156014285Y-124390476D01*
X155919047Y-124438095D01*
%TO.C,C9*%
X141133333Y-102057142D02*
X141085714Y-102104761D01*
X140942857Y-102152380D01*
X140847619Y-102152380D01*
X140704761Y-102104761D01*
X140609523Y-102009523D01*
X140561904Y-101914285D01*
X140514285Y-101723809D01*
X140514285Y-101580952D01*
X140561904Y-101390476D01*
X140609523Y-101295238D01*
X140704761Y-101200000D01*
X140847619Y-101152380D01*
X140942857Y-101152380D01*
X141085714Y-101200000D01*
X141133333Y-101247619D01*
X141609523Y-102152380D02*
X141800000Y-102152380D01*
X141895238Y-102104761D01*
X141942857Y-102057142D01*
X142038095Y-101914285D01*
X142085714Y-101723809D01*
X142085714Y-101342857D01*
X142038095Y-101247619D01*
X141990476Y-101200000D01*
X141895238Y-101152380D01*
X141704761Y-101152380D01*
X141609523Y-101200000D01*
X141561904Y-101247619D01*
X141514285Y-101342857D01*
X141514285Y-101580952D01*
X141561904Y-101676190D01*
X141609523Y-101723809D01*
X141704761Y-101771428D01*
X141895238Y-101771428D01*
X141990476Y-101723809D01*
X142038095Y-101676190D01*
X142085714Y-101580952D01*
%TO.C,JP1*%
X174422380Y-104233333D02*
X175136666Y-104233333D01*
X175279523Y-104280952D01*
X175374761Y-104376190D01*
X175422380Y-104519047D01*
X175422380Y-104614285D01*
X175422380Y-103757142D02*
X174422380Y-103757142D01*
X174422380Y-103376190D01*
X174470000Y-103280952D01*
X174517619Y-103233333D01*
X174612857Y-103185714D01*
X174755714Y-103185714D01*
X174850952Y-103233333D01*
X174898571Y-103280952D01*
X174946190Y-103376190D01*
X174946190Y-103757142D01*
X175422380Y-102233333D02*
X175422380Y-102804761D01*
X175422380Y-102519047D02*
X174422380Y-102519047D01*
X174565238Y-102614285D01*
X174660476Y-102709523D01*
X174708095Y-102804761D01*
%TO.C,Y1*%
X160323809Y-93176190D02*
X160323809Y-93652380D01*
X159990476Y-92652380D02*
X160323809Y-93176190D01*
X160657142Y-92652380D01*
X161514285Y-93652380D02*
X160942857Y-93652380D01*
X161228571Y-93652380D02*
X161228571Y-92652380D01*
X161133333Y-92795238D01*
X161038095Y-92890476D01*
X160942857Y-92938095D01*
%TO.C,U3*%
X158038095Y-110052380D02*
X158038095Y-110861904D01*
X158085714Y-110957142D01*
X158133333Y-111004761D01*
X158228571Y-111052380D01*
X158419047Y-111052380D01*
X158514285Y-111004761D01*
X158561904Y-110957142D01*
X158609523Y-110861904D01*
X158609523Y-110052380D01*
X158990476Y-110052380D02*
X159609523Y-110052380D01*
X159276190Y-110433333D01*
X159419047Y-110433333D01*
X159514285Y-110480952D01*
X159561904Y-110528571D01*
X159609523Y-110623809D01*
X159609523Y-110861904D01*
X159561904Y-110957142D01*
X159514285Y-111004761D01*
X159419047Y-111052380D01*
X159133333Y-111052380D01*
X159038095Y-111004761D01*
X158990476Y-110957142D01*
%TO.C,U2*%
X152120902Y-74672517D02*
X152120902Y-75482041D01*
X152168521Y-75577279D01*
X152216140Y-75624898D01*
X152311378Y-75672517D01*
X152501854Y-75672517D01*
X152597092Y-75624898D01*
X152644711Y-75577279D01*
X152692330Y-75482041D01*
X152692330Y-74672517D01*
X153120902Y-74767756D02*
X153168521Y-74720137D01*
X153263759Y-74672517D01*
X153501854Y-74672517D01*
X153597092Y-74720137D01*
X153644711Y-74767756D01*
X153692330Y-74862994D01*
X153692330Y-74958232D01*
X153644711Y-75101089D01*
X153073283Y-75672517D01*
X153692330Y-75672517D01*
%TO.C,U1*%
X140538095Y-85752380D02*
X140538095Y-86561904D01*
X140585714Y-86657142D01*
X140633333Y-86704761D01*
X140728571Y-86752380D01*
X140919047Y-86752380D01*
X141014285Y-86704761D01*
X141061904Y-86657142D01*
X141109523Y-86561904D01*
X141109523Y-85752380D01*
X142109523Y-86752380D02*
X141538095Y-86752380D01*
X141823809Y-86752380D02*
X141823809Y-85752380D01*
X141728571Y-85895238D01*
X141633333Y-85990476D01*
X141538095Y-86038095D01*
%TO.C,SELECT*%
X168823809Y-91344761D02*
X168966666Y-91392380D01*
X169204761Y-91392380D01*
X169300000Y-91344761D01*
X169347619Y-91297142D01*
X169395238Y-91201904D01*
X169395238Y-91106666D01*
X169347619Y-91011428D01*
X169300000Y-90963809D01*
X169204761Y-90916190D01*
X169014285Y-90868571D01*
X168919047Y-90820952D01*
X168871428Y-90773333D01*
X168823809Y-90678095D01*
X168823809Y-90582857D01*
X168871428Y-90487619D01*
X168919047Y-90440000D01*
X169014285Y-90392380D01*
X169252380Y-90392380D01*
X169395238Y-90440000D01*
X169823809Y-90868571D02*
X170157142Y-90868571D01*
X170300000Y-91392380D02*
X169823809Y-91392380D01*
X169823809Y-90392380D01*
X170300000Y-90392380D01*
X171204761Y-91392380D02*
X170728571Y-91392380D01*
X170728571Y-90392380D01*
X171538095Y-90868571D02*
X171871428Y-90868571D01*
X172014285Y-91392380D02*
X171538095Y-91392380D01*
X171538095Y-90392380D01*
X172014285Y-90392380D01*
X173014285Y-91297142D02*
X172966666Y-91344761D01*
X172823809Y-91392380D01*
X172728571Y-91392380D01*
X172585714Y-91344761D01*
X172490476Y-91249523D01*
X172442857Y-91154285D01*
X172395238Y-90963809D01*
X172395238Y-90820952D01*
X172442857Y-90630476D01*
X172490476Y-90535238D01*
X172585714Y-90440000D01*
X172728571Y-90392380D01*
X172823809Y-90392380D01*
X172966666Y-90440000D01*
X173014285Y-90487619D01*
X173300000Y-90392380D02*
X173871428Y-90392380D01*
X173585714Y-91392380D02*
X173585714Y-90392380D01*
%TO.C,RESET*%
X169847619Y-100892380D02*
X169514285Y-100416190D01*
X169276190Y-100892380D02*
X169276190Y-99892380D01*
X169657142Y-99892380D01*
X169752380Y-99940000D01*
X169800000Y-99987619D01*
X169847619Y-100082857D01*
X169847619Y-100225714D01*
X169800000Y-100320952D01*
X169752380Y-100368571D01*
X169657142Y-100416190D01*
X169276190Y-100416190D01*
X170276190Y-100368571D02*
X170609523Y-100368571D01*
X170752380Y-100892380D02*
X170276190Y-100892380D01*
X170276190Y-99892380D01*
X170752380Y-99892380D01*
X171133333Y-100844761D02*
X171276190Y-100892380D01*
X171514285Y-100892380D01*
X171609523Y-100844761D01*
X171657142Y-100797142D01*
X171704761Y-100701904D01*
X171704761Y-100606666D01*
X171657142Y-100511428D01*
X171609523Y-100463809D01*
X171514285Y-100416190D01*
X171323809Y-100368571D01*
X171228571Y-100320952D01*
X171180952Y-100273333D01*
X171133333Y-100178095D01*
X171133333Y-100082857D01*
X171180952Y-99987619D01*
X171228571Y-99940000D01*
X171323809Y-99892380D01*
X171561904Y-99892380D01*
X171704761Y-99940000D01*
X172133333Y-100368571D02*
X172466666Y-100368571D01*
X172609523Y-100892380D02*
X172133333Y-100892380D01*
X172133333Y-99892380D01*
X172609523Y-99892380D01*
X172895238Y-99892380D02*
X173466666Y-99892380D01*
X173180952Y-100892380D02*
X173180952Y-99892380D01*
%TO.C,RV1*%
X155214761Y-84992380D02*
X154881428Y-84516190D01*
X154643333Y-84992380D02*
X154643333Y-83992380D01*
X155024285Y-83992380D01*
X155119523Y-84040000D01*
X155167142Y-84087619D01*
X155214761Y-84182857D01*
X155214761Y-84325714D01*
X155167142Y-84420952D01*
X155119523Y-84468571D01*
X155024285Y-84516190D01*
X154643333Y-84516190D01*
X155500476Y-83992380D02*
X155833809Y-84992380D01*
X156167142Y-83992380D01*
X157024285Y-84992380D02*
X156452857Y-84992380D01*
X156738571Y-84992380D02*
X156738571Y-83992380D01*
X156643333Y-84135238D01*
X156548095Y-84230476D01*
X156452857Y-84278095D01*
%TO.C,R15*%
X165044642Y-109482380D02*
X164711309Y-109006190D01*
X164473214Y-109482380D02*
X164473214Y-108482380D01*
X164854166Y-108482380D01*
X164949404Y-108530000D01*
X164997023Y-108577619D01*
X165044642Y-108672857D01*
X165044642Y-108815714D01*
X164997023Y-108910952D01*
X164949404Y-108958571D01*
X164854166Y-109006190D01*
X164473214Y-109006190D01*
X165997023Y-109482380D02*
X165425595Y-109482380D01*
X165711309Y-109482380D02*
X165711309Y-108482380D01*
X165616071Y-108625238D01*
X165520833Y-108720476D01*
X165425595Y-108768095D01*
X166901785Y-108482380D02*
X166425595Y-108482380D01*
X166377976Y-108958571D01*
X166425595Y-108910952D01*
X166520833Y-108863333D01*
X166758928Y-108863333D01*
X166854166Y-108910952D01*
X166901785Y-108958571D01*
X166949404Y-109053809D01*
X166949404Y-109291904D01*
X166901785Y-109387142D01*
X166854166Y-109434761D01*
X166758928Y-109482380D01*
X166520833Y-109482380D01*
X166425595Y-109434761D01*
X166377976Y-109387142D01*
%TO.C,R14*%
X164882142Y-116582380D02*
X164548809Y-116106190D01*
X164310714Y-116582380D02*
X164310714Y-115582380D01*
X164691666Y-115582380D01*
X164786904Y-115630000D01*
X164834523Y-115677619D01*
X164882142Y-115772857D01*
X164882142Y-115915714D01*
X164834523Y-116010952D01*
X164786904Y-116058571D01*
X164691666Y-116106190D01*
X164310714Y-116106190D01*
X165834523Y-116582380D02*
X165263095Y-116582380D01*
X165548809Y-116582380D02*
X165548809Y-115582380D01*
X165453571Y-115725238D01*
X165358333Y-115820476D01*
X165263095Y-115868095D01*
X166691666Y-115915714D02*
X166691666Y-116582380D01*
X166453571Y-115534761D02*
X166215476Y-116249047D01*
X166834523Y-116249047D01*
%TO.C,R13*%
X164852142Y-123782380D02*
X164518809Y-123306190D01*
X164280714Y-123782380D02*
X164280714Y-122782380D01*
X164661666Y-122782380D01*
X164756904Y-122830000D01*
X164804523Y-122877619D01*
X164852142Y-122972857D01*
X164852142Y-123115714D01*
X164804523Y-123210952D01*
X164756904Y-123258571D01*
X164661666Y-123306190D01*
X164280714Y-123306190D01*
X165804523Y-123782380D02*
X165233095Y-123782380D01*
X165518809Y-123782380D02*
X165518809Y-122782380D01*
X165423571Y-122925238D01*
X165328333Y-123020476D01*
X165233095Y-123068095D01*
X166137857Y-122782380D02*
X166756904Y-122782380D01*
X166423571Y-123163333D01*
X166566428Y-123163333D01*
X166661666Y-123210952D01*
X166709285Y-123258571D01*
X166756904Y-123353809D01*
X166756904Y-123591904D01*
X166709285Y-123687142D01*
X166661666Y-123734761D01*
X166566428Y-123782380D01*
X166280714Y-123782380D01*
X166185476Y-123734761D01*
X166137857Y-123687142D01*
%TO.C,R12*%
X155307142Y-135372380D02*
X154973809Y-134896190D01*
X154735714Y-135372380D02*
X154735714Y-134372380D01*
X155116666Y-134372380D01*
X155211904Y-134420000D01*
X155259523Y-134467619D01*
X155307142Y-134562857D01*
X155307142Y-134705714D01*
X155259523Y-134800952D01*
X155211904Y-134848571D01*
X155116666Y-134896190D01*
X154735714Y-134896190D01*
X156259523Y-135372380D02*
X155688095Y-135372380D01*
X155973809Y-135372380D02*
X155973809Y-134372380D01*
X155878571Y-134515238D01*
X155783333Y-134610476D01*
X155688095Y-134658095D01*
X156640476Y-134467619D02*
X156688095Y-134420000D01*
X156783333Y-134372380D01*
X157021428Y-134372380D01*
X157116666Y-134420000D01*
X157164285Y-134467619D01*
X157211904Y-134562857D01*
X157211904Y-134658095D01*
X157164285Y-134800952D01*
X156592857Y-135372380D01*
X157211904Y-135372380D01*
%TO.C,R11*%
X151332142Y-67722380D02*
X150998809Y-67246190D01*
X150760714Y-67722380D02*
X150760714Y-66722380D01*
X151141666Y-66722380D01*
X151236904Y-66770000D01*
X151284523Y-66817619D01*
X151332142Y-66912857D01*
X151332142Y-67055714D01*
X151284523Y-67150952D01*
X151236904Y-67198571D01*
X151141666Y-67246190D01*
X150760714Y-67246190D01*
X152284523Y-67722380D02*
X151713095Y-67722380D01*
X151998809Y-67722380D02*
X151998809Y-66722380D01*
X151903571Y-66865238D01*
X151808333Y-66960476D01*
X151713095Y-67008095D01*
X153236904Y-67722380D02*
X152665476Y-67722380D01*
X152951190Y-67722380D02*
X152951190Y-66722380D01*
X152855952Y-66865238D01*
X152760714Y-66960476D01*
X152665476Y-67008095D01*
%TO.C,R10*%
X148622380Y-90042857D02*
X148146190Y-90376190D01*
X148622380Y-90614285D02*
X147622380Y-90614285D01*
X147622380Y-90233333D01*
X147670000Y-90138095D01*
X147717619Y-90090476D01*
X147812857Y-90042857D01*
X147955714Y-90042857D01*
X148050952Y-90090476D01*
X148098571Y-90138095D01*
X148146190Y-90233333D01*
X148146190Y-90614285D01*
X148622380Y-89090476D02*
X148622380Y-89661904D01*
X148622380Y-89376190D02*
X147622380Y-89376190D01*
X147765238Y-89471428D01*
X147860476Y-89566666D01*
X147908095Y-89661904D01*
X147622380Y-88471428D02*
X147622380Y-88376190D01*
X147670000Y-88280952D01*
X147717619Y-88233333D01*
X147812857Y-88185714D01*
X148003333Y-88138095D01*
X148241428Y-88138095D01*
X148431904Y-88185714D01*
X148527142Y-88233333D01*
X148574761Y-88280952D01*
X148622380Y-88376190D01*
X148622380Y-88471428D01*
X148574761Y-88566666D01*
X148527142Y-88614285D01*
X148431904Y-88661904D01*
X148241428Y-88709523D01*
X148003333Y-88709523D01*
X147812857Y-88661904D01*
X147717619Y-88614285D01*
X147670000Y-88566666D01*
X147622380Y-88471428D01*
%TO.C,R9*%
X164133333Y-83722380D02*
X163800000Y-83246190D01*
X163561904Y-83722380D02*
X163561904Y-82722380D01*
X163942857Y-82722380D01*
X164038095Y-82770000D01*
X164085714Y-82817619D01*
X164133333Y-82912857D01*
X164133333Y-83055714D01*
X164085714Y-83150952D01*
X164038095Y-83198571D01*
X163942857Y-83246190D01*
X163561904Y-83246190D01*
X164609523Y-83722380D02*
X164800000Y-83722380D01*
X164895238Y-83674761D01*
X164942857Y-83627142D01*
X165038095Y-83484285D01*
X165085714Y-83293809D01*
X165085714Y-82912857D01*
X165038095Y-82817619D01*
X164990476Y-82770000D01*
X164895238Y-82722380D01*
X164704761Y-82722380D01*
X164609523Y-82770000D01*
X164561904Y-82817619D01*
X164514285Y-82912857D01*
X164514285Y-83150952D01*
X164561904Y-83246190D01*
X164609523Y-83293809D01*
X164704761Y-83341428D01*
X164895238Y-83341428D01*
X164990476Y-83293809D01*
X165038095Y-83246190D01*
X165085714Y-83150952D01*
%TO.C,R8*%
X164233333Y-113452380D02*
X163900000Y-112976190D01*
X163661904Y-113452380D02*
X163661904Y-112452380D01*
X164042857Y-112452380D01*
X164138095Y-112500000D01*
X164185714Y-112547619D01*
X164233333Y-112642857D01*
X164233333Y-112785714D01*
X164185714Y-112880952D01*
X164138095Y-112928571D01*
X164042857Y-112976190D01*
X163661904Y-112976190D01*
X164804761Y-112880952D02*
X164709523Y-112833333D01*
X164661904Y-112785714D01*
X164614285Y-112690476D01*
X164614285Y-112642857D01*
X164661904Y-112547619D01*
X164709523Y-112500000D01*
X164804761Y-112452380D01*
X164995238Y-112452380D01*
X165090476Y-112500000D01*
X165138095Y-112547619D01*
X165185714Y-112642857D01*
X165185714Y-112690476D01*
X165138095Y-112785714D01*
X165090476Y-112833333D01*
X164995238Y-112880952D01*
X164804761Y-112880952D01*
X164709523Y-112928571D01*
X164661904Y-112976190D01*
X164614285Y-113071428D01*
X164614285Y-113261904D01*
X164661904Y-113357142D01*
X164709523Y-113404761D01*
X164804761Y-113452380D01*
X164995238Y-113452380D01*
X165090476Y-113404761D01*
X165138095Y-113357142D01*
X165185714Y-113261904D01*
X165185714Y-113071428D01*
X165138095Y-112976190D01*
X165090476Y-112928571D01*
X164995238Y-112880952D01*
%TO.C,R7*%
X138433333Y-65282380D02*
X138100000Y-64806190D01*
X137861904Y-65282380D02*
X137861904Y-64282380D01*
X138242857Y-64282380D01*
X138338095Y-64330000D01*
X138385714Y-64377619D01*
X138433333Y-64472857D01*
X138433333Y-64615714D01*
X138385714Y-64710952D01*
X138338095Y-64758571D01*
X138242857Y-64806190D01*
X137861904Y-64806190D01*
X138766666Y-64282380D02*
X139433333Y-64282380D01*
X139004761Y-65282380D01*
%TO.C,R6*%
X161633333Y-69402380D02*
X161300000Y-68926190D01*
X161061904Y-69402380D02*
X161061904Y-68402380D01*
X161442857Y-68402380D01*
X161538095Y-68450000D01*
X161585714Y-68497619D01*
X161633333Y-68592857D01*
X161633333Y-68735714D01*
X161585714Y-68830952D01*
X161538095Y-68878571D01*
X161442857Y-68926190D01*
X161061904Y-68926190D01*
X162490476Y-68402380D02*
X162300000Y-68402380D01*
X162204761Y-68450000D01*
X162157142Y-68497619D01*
X162061904Y-68640476D01*
X162014285Y-68830952D01*
X162014285Y-69211904D01*
X162061904Y-69307142D01*
X162109523Y-69354761D01*
X162204761Y-69402380D01*
X162395238Y-69402380D01*
X162490476Y-69354761D01*
X162538095Y-69307142D01*
X162585714Y-69211904D01*
X162585714Y-68973809D01*
X162538095Y-68878571D01*
X162490476Y-68830952D01*
X162395238Y-68783333D01*
X162204761Y-68783333D01*
X162109523Y-68830952D01*
X162061904Y-68878571D01*
X162014285Y-68973809D01*
%TO.C,R5*%
X172133333Y-69152380D02*
X171800000Y-68676190D01*
X171561904Y-69152380D02*
X171561904Y-68152380D01*
X171942857Y-68152380D01*
X172038095Y-68200000D01*
X172085714Y-68247619D01*
X172133333Y-68342857D01*
X172133333Y-68485714D01*
X172085714Y-68580952D01*
X172038095Y-68628571D01*
X171942857Y-68676190D01*
X171561904Y-68676190D01*
X173038095Y-68152380D02*
X172561904Y-68152380D01*
X172514285Y-68628571D01*
X172561904Y-68580952D01*
X172657142Y-68533333D01*
X172895238Y-68533333D01*
X172990476Y-68580952D01*
X173038095Y-68628571D01*
X173085714Y-68723809D01*
X173085714Y-68961904D01*
X173038095Y-69057142D01*
X172990476Y-69104761D01*
X172895238Y-69152380D01*
X172657142Y-69152380D01*
X172561904Y-69104761D01*
X172514285Y-69057142D01*
%TO.C,R4*%
X142675004Y-76985274D02*
X142341671Y-76509084D01*
X142103575Y-76985274D02*
X142103575Y-75985274D01*
X142484528Y-75985274D01*
X142579766Y-76032894D01*
X142627385Y-76080513D01*
X142675004Y-76175751D01*
X142675004Y-76318608D01*
X142627385Y-76413846D01*
X142579766Y-76461465D01*
X142484528Y-76509084D01*
X142103575Y-76509084D01*
X143532147Y-76318608D02*
X143532147Y-76985274D01*
X143294051Y-75937655D02*
X143055956Y-76651941D01*
X143675004Y-76651941D01*
%TO.C,R3*%
X142870591Y-135582380D02*
X142537258Y-135106190D01*
X142299162Y-135582380D02*
X142299162Y-134582380D01*
X142680115Y-134582380D01*
X142775353Y-134630000D01*
X142822972Y-134677619D01*
X142870591Y-134772857D01*
X142870591Y-134915714D01*
X142822972Y-135010952D01*
X142775353Y-135058571D01*
X142680115Y-135106190D01*
X142299162Y-135106190D01*
X143203924Y-134582380D02*
X143822972Y-134582380D01*
X143489638Y-134963333D01*
X143632496Y-134963333D01*
X143727734Y-135010952D01*
X143775353Y-135058571D01*
X143822972Y-135153809D01*
X143822972Y-135391904D01*
X143775353Y-135487142D01*
X143727734Y-135534761D01*
X143632496Y-135582380D01*
X143346781Y-135582380D01*
X143251543Y-135534761D01*
X143203924Y-135487142D01*
%TO.C,R2*%
X135422380Y-89566666D02*
X134946190Y-89900000D01*
X135422380Y-90138095D02*
X134422380Y-90138095D01*
X134422380Y-89757142D01*
X134470000Y-89661904D01*
X134517619Y-89614285D01*
X134612857Y-89566666D01*
X134755714Y-89566666D01*
X134850952Y-89614285D01*
X134898571Y-89661904D01*
X134946190Y-89757142D01*
X134946190Y-90138095D01*
X134517619Y-89185714D02*
X134470000Y-89138095D01*
X134422380Y-89042857D01*
X134422380Y-88804761D01*
X134470000Y-88709523D01*
X134517619Y-88661904D01*
X134612857Y-88614285D01*
X134708095Y-88614285D01*
X134850952Y-88661904D01*
X135422380Y-89233333D01*
X135422380Y-88614285D01*
%TO.C,R1*%
X137633333Y-121652380D02*
X137300000Y-121176190D01*
X137061904Y-121652380D02*
X137061904Y-120652380D01*
X137442857Y-120652380D01*
X137538095Y-120700000D01*
X137585714Y-120747619D01*
X137633333Y-120842857D01*
X137633333Y-120985714D01*
X137585714Y-121080952D01*
X137538095Y-121128571D01*
X137442857Y-121176190D01*
X137061904Y-121176190D01*
X138585714Y-121652380D02*
X138014285Y-121652380D01*
X138300000Y-121652380D02*
X138300000Y-120652380D01*
X138204761Y-120795238D01*
X138109523Y-120890476D01*
X138014285Y-120938095D01*
%TO.C,Q3*%
X138704761Y-77147619D02*
X138609523Y-77100000D01*
X138514285Y-77004761D01*
X138371428Y-76861904D01*
X138276190Y-76814285D01*
X138180952Y-76814285D01*
X138228571Y-77052380D02*
X138133333Y-77004761D01*
X138038095Y-76909523D01*
X137990476Y-76719047D01*
X137990476Y-76385714D01*
X138038095Y-76195238D01*
X138133333Y-76100000D01*
X138228571Y-76052380D01*
X138419047Y-76052380D01*
X138514285Y-76100000D01*
X138609523Y-76195238D01*
X138657142Y-76385714D01*
X138657142Y-76719047D01*
X138609523Y-76909523D01*
X138514285Y-77004761D01*
X138419047Y-77052380D01*
X138228571Y-77052380D01*
X138990476Y-76052380D02*
X139609523Y-76052380D01*
X139276190Y-76433333D01*
X139419047Y-76433333D01*
X139514285Y-76480952D01*
X139561904Y-76528571D01*
X139609523Y-76623809D01*
X139609523Y-76861904D01*
X139561904Y-76957142D01*
X139514285Y-77004761D01*
X139419047Y-77052380D01*
X139133333Y-77052380D01*
X139038095Y-77004761D01*
X138990476Y-76957142D01*
%TO.C,Q2*%
X141402019Y-142572619D02*
X141306781Y-142525000D01*
X141211543Y-142429761D01*
X141068686Y-142286904D01*
X140973448Y-142239285D01*
X140878210Y-142239285D01*
X140925829Y-142477380D02*
X140830591Y-142429761D01*
X140735353Y-142334523D01*
X140687734Y-142144047D01*
X140687734Y-141810714D01*
X140735353Y-141620238D01*
X140830591Y-141525000D01*
X140925829Y-141477380D01*
X141116305Y-141477380D01*
X141211543Y-141525000D01*
X141306781Y-141620238D01*
X141354400Y-141810714D01*
X141354400Y-142144047D01*
X141306781Y-142334523D01*
X141211543Y-142429761D01*
X141116305Y-142477380D01*
X140925829Y-142477380D01*
X141735353Y-141572619D02*
X141782972Y-141525000D01*
X141878210Y-141477380D01*
X142116305Y-141477380D01*
X142211543Y-141525000D01*
X142259162Y-141572619D01*
X142306781Y-141667857D01*
X142306781Y-141763095D01*
X142259162Y-141905952D01*
X141687734Y-142477380D01*
X142306781Y-142477380D01*
%TO.C,Q1*%
X143704761Y-114422619D02*
X143609523Y-114375000D01*
X143514285Y-114279761D01*
X143371428Y-114136904D01*
X143276190Y-114089285D01*
X143180952Y-114089285D01*
X143228571Y-114327380D02*
X143133333Y-114279761D01*
X143038095Y-114184523D01*
X142990476Y-113994047D01*
X142990476Y-113660714D01*
X143038095Y-113470238D01*
X143133333Y-113375000D01*
X143228571Y-113327380D01*
X143419047Y-113327380D01*
X143514285Y-113375000D01*
X143609523Y-113470238D01*
X143657142Y-113660714D01*
X143657142Y-113994047D01*
X143609523Y-114184523D01*
X143514285Y-114279761D01*
X143419047Y-114327380D01*
X143228571Y-114327380D01*
X144609523Y-114327380D02*
X144038095Y-114327380D01*
X144323809Y-114327380D02*
X144323809Y-113327380D01*
X144228571Y-113470238D01*
X144133333Y-113565476D01*
X144038095Y-113613095D01*
%TO.C,J3*%
X135966666Y-99382380D02*
X135966666Y-100096666D01*
X135919047Y-100239523D01*
X135823809Y-100334761D01*
X135680952Y-100382380D01*
X135585714Y-100382380D01*
X136347619Y-99382380D02*
X136966666Y-99382380D01*
X136633333Y-99763333D01*
X136776190Y-99763333D01*
X136871428Y-99810952D01*
X136919047Y-99858571D01*
X136966666Y-99953809D01*
X136966666Y-100191904D01*
X136919047Y-100287142D01*
X136871428Y-100334761D01*
X136776190Y-100382380D01*
X136490476Y-100382380D01*
X136395238Y-100334761D01*
X136347619Y-100287142D01*
%TO.C,J2*%
X154466666Y-66232380D02*
X154466666Y-66946666D01*
X154419047Y-67089523D01*
X154323809Y-67184761D01*
X154180952Y-67232380D01*
X154085714Y-67232380D01*
X154895238Y-66327619D02*
X154942857Y-66280000D01*
X155038095Y-66232380D01*
X155276190Y-66232380D01*
X155371428Y-66280000D01*
X155419047Y-66327619D01*
X155466666Y-66422857D01*
X155466666Y-66518095D01*
X155419047Y-66660952D01*
X154847619Y-67232380D01*
X155466666Y-67232380D01*
%TO.C,J1*%
X133966666Y-73342380D02*
X133966666Y-74056666D01*
X133919047Y-74199523D01*
X133823809Y-74294761D01*
X133680952Y-74342380D01*
X133585714Y-74342380D01*
X134966666Y-74342380D02*
X134395238Y-74342380D01*
X134680952Y-74342380D02*
X134680952Y-73342380D01*
X134585714Y-73485238D01*
X134490476Y-73580476D01*
X134395238Y-73628095D01*
%TO.C,F3*%
X156666666Y-136728571D02*
X156333333Y-136728571D01*
X156333333Y-137252380D02*
X156333333Y-136252380D01*
X156809523Y-136252380D01*
X157095238Y-136252380D02*
X157714285Y-136252380D01*
X157380952Y-136633333D01*
X157523809Y-136633333D01*
X157619047Y-136680952D01*
X157666666Y-136728571D01*
X157714285Y-136823809D01*
X157714285Y-137061904D01*
X157666666Y-137157142D01*
X157619047Y-137204761D01*
X157523809Y-137252380D01*
X157238095Y-137252380D01*
X157142857Y-137204761D01*
X157095238Y-137157142D01*
%TO.C,F2*%
X140666666Y-77908571D02*
X140333333Y-77908571D01*
X140333333Y-78432380D02*
X140333333Y-77432380D01*
X140809523Y-77432380D01*
X141142857Y-77527619D02*
X141190476Y-77480000D01*
X141285714Y-77432380D01*
X141523809Y-77432380D01*
X141619047Y-77480000D01*
X141666666Y-77527619D01*
X141714285Y-77622857D01*
X141714285Y-77718095D01*
X141666666Y-77860952D01*
X141095238Y-78432380D01*
X141714285Y-78432380D01*
%TO.C,F1*%
X164929166Y-60808571D02*
X164595833Y-60808571D01*
X164595833Y-61332380D02*
X164595833Y-60332380D01*
X165072023Y-60332380D01*
X165976785Y-61332380D02*
X165405357Y-61332380D01*
X165691071Y-61332380D02*
X165691071Y-60332380D01*
X165595833Y-60475238D01*
X165500595Y-60570476D01*
X165405357Y-60618095D01*
%TO.C,D9*%
X174661904Y-110452380D02*
X174661904Y-109452380D01*
X174900000Y-109452380D01*
X175042857Y-109500000D01*
X175138095Y-109595238D01*
X175185714Y-109690476D01*
X175233333Y-109880952D01*
X175233333Y-110023809D01*
X175185714Y-110214285D01*
X175138095Y-110309523D01*
X175042857Y-110404761D01*
X174900000Y-110452380D01*
X174661904Y-110452380D01*
X175709523Y-110452380D02*
X175900000Y-110452380D01*
X175995238Y-110404761D01*
X176042857Y-110357142D01*
X176138095Y-110214285D01*
X176185714Y-110023809D01*
X176185714Y-109642857D01*
X176138095Y-109547619D01*
X176090476Y-109500000D01*
X175995238Y-109452380D01*
X175804761Y-109452380D01*
X175709523Y-109500000D01*
X175661904Y-109547619D01*
X175614285Y-109642857D01*
X175614285Y-109880952D01*
X175661904Y-109976190D01*
X175709523Y-110023809D01*
X175804761Y-110071428D01*
X175995238Y-110071428D01*
X176090476Y-110023809D01*
X176138095Y-109976190D01*
X176185714Y-109880952D01*
%TO.C,D8*%
X174661904Y-117852380D02*
X174661904Y-116852380D01*
X174900000Y-116852380D01*
X175042857Y-116900000D01*
X175138095Y-116995238D01*
X175185714Y-117090476D01*
X175233333Y-117280952D01*
X175233333Y-117423809D01*
X175185714Y-117614285D01*
X175138095Y-117709523D01*
X175042857Y-117804761D01*
X174900000Y-117852380D01*
X174661904Y-117852380D01*
X175804761Y-117280952D02*
X175709523Y-117233333D01*
X175661904Y-117185714D01*
X175614285Y-117090476D01*
X175614285Y-117042857D01*
X175661904Y-116947619D01*
X175709523Y-116900000D01*
X175804761Y-116852380D01*
X175995238Y-116852380D01*
X176090476Y-116900000D01*
X176138095Y-116947619D01*
X176185714Y-117042857D01*
X176185714Y-117090476D01*
X176138095Y-117185714D01*
X176090476Y-117233333D01*
X175995238Y-117280952D01*
X175804761Y-117280952D01*
X175709523Y-117328571D01*
X175661904Y-117376190D01*
X175614285Y-117471428D01*
X175614285Y-117661904D01*
X175661904Y-117757142D01*
X175709523Y-117804761D01*
X175804761Y-117852380D01*
X175995238Y-117852380D01*
X176090476Y-117804761D01*
X176138095Y-117757142D01*
X176185714Y-117661904D01*
X176185714Y-117471428D01*
X176138095Y-117376190D01*
X176090476Y-117328571D01*
X175995238Y-117280952D01*
%TO.C,D7*%
X174461904Y-124852380D02*
X174461904Y-123852380D01*
X174700000Y-123852380D01*
X174842857Y-123900000D01*
X174938095Y-123995238D01*
X174985714Y-124090476D01*
X175033333Y-124280952D01*
X175033333Y-124423809D01*
X174985714Y-124614285D01*
X174938095Y-124709523D01*
X174842857Y-124804761D01*
X174700000Y-124852380D01*
X174461904Y-124852380D01*
X175366666Y-123852380D02*
X176033333Y-123852380D01*
X175604761Y-124852380D01*
%TO.C,D5*%
X143556904Y-59642380D02*
X143556904Y-58642380D01*
X143795000Y-58642380D01*
X143937857Y-58690000D01*
X144033095Y-58785238D01*
X144080714Y-58880476D01*
X144128333Y-59070952D01*
X144128333Y-59213809D01*
X144080714Y-59404285D01*
X144033095Y-59499523D01*
X143937857Y-59594761D01*
X143795000Y-59642380D01*
X143556904Y-59642380D01*
X145033095Y-58642380D02*
X144556904Y-58642380D01*
X144509285Y-59118571D01*
X144556904Y-59070952D01*
X144652142Y-59023333D01*
X144890238Y-59023333D01*
X144985476Y-59070952D01*
X145033095Y-59118571D01*
X145080714Y-59213809D01*
X145080714Y-59451904D01*
X145033095Y-59547142D01*
X144985476Y-59594761D01*
X144890238Y-59642380D01*
X144652142Y-59642380D01*
X144556904Y-59594761D01*
X144509285Y-59547142D01*
%TO.C,D4*%
X170624403Y-60872380D02*
X170624403Y-59872380D01*
X170862499Y-59872380D01*
X171005356Y-59920000D01*
X171100594Y-60015238D01*
X171148213Y-60110476D01*
X171195832Y-60300952D01*
X171195832Y-60443809D01*
X171148213Y-60634285D01*
X171100594Y-60729523D01*
X171005356Y-60824761D01*
X170862499Y-60872380D01*
X170624403Y-60872380D01*
X172052975Y-60205714D02*
X172052975Y-60872380D01*
X171814879Y-59824761D02*
X171576784Y-60539047D01*
X172195832Y-60539047D01*
%TO.C,D3*%
X160791904Y-72642380D02*
X160791904Y-71642380D01*
X161030000Y-71642380D01*
X161172857Y-71690000D01*
X161268095Y-71785238D01*
X161315714Y-71880476D01*
X161363333Y-72070952D01*
X161363333Y-72213809D01*
X161315714Y-72404285D01*
X161268095Y-72499523D01*
X161172857Y-72594761D01*
X161030000Y-72642380D01*
X160791904Y-72642380D01*
X161696666Y-71642380D02*
X162315714Y-71642380D01*
X161982380Y-72023333D01*
X162125238Y-72023333D01*
X162220476Y-72070952D01*
X162268095Y-72118571D01*
X162315714Y-72213809D01*
X162315714Y-72451904D01*
X162268095Y-72547142D01*
X162220476Y-72594761D01*
X162125238Y-72642380D01*
X161839523Y-72642380D01*
X161744285Y-72594761D01*
X161696666Y-72547142D01*
%TO.C,D2*%
X171556904Y-72642380D02*
X171556904Y-71642380D01*
X171795000Y-71642380D01*
X171937857Y-71690000D01*
X172033095Y-71785238D01*
X172080714Y-71880476D01*
X172128333Y-72070952D01*
X172128333Y-72213809D01*
X172080714Y-72404285D01*
X172033095Y-72499523D01*
X171937857Y-72594761D01*
X171795000Y-72642380D01*
X171556904Y-72642380D01*
X172509285Y-71737619D02*
X172556904Y-71690000D01*
X172652142Y-71642380D01*
X172890238Y-71642380D01*
X172985476Y-71690000D01*
X173033095Y-71737619D01*
X173080714Y-71832857D01*
X173080714Y-71928095D01*
X173033095Y-72070952D01*
X172461666Y-72642380D01*
X173080714Y-72642380D01*
%TO.C,D1*%
X160561904Y-125372380D02*
X160561904Y-124372380D01*
X160800000Y-124372380D01*
X160942857Y-124420000D01*
X161038095Y-124515238D01*
X161085714Y-124610476D01*
X161133333Y-124800952D01*
X161133333Y-124943809D01*
X161085714Y-125134285D01*
X161038095Y-125229523D01*
X160942857Y-125324761D01*
X160800000Y-125372380D01*
X160561904Y-125372380D01*
X162085714Y-125372380D02*
X161514285Y-125372380D01*
X161800000Y-125372380D02*
X161800000Y-124372380D01*
X161704761Y-124515238D01*
X161609523Y-124610476D01*
X161514285Y-124658095D01*
%TO.C,C14*%
X161637142Y-104477142D02*
X161589523Y-104524761D01*
X161446666Y-104572380D01*
X161351428Y-104572380D01*
X161208571Y-104524761D01*
X161113333Y-104429523D01*
X161065714Y-104334285D01*
X161018095Y-104143809D01*
X161018095Y-104000952D01*
X161065714Y-103810476D01*
X161113333Y-103715238D01*
X161208571Y-103620000D01*
X161351428Y-103572380D01*
X161446666Y-103572380D01*
X161589523Y-103620000D01*
X161637142Y-103667619D01*
X162589523Y-104572380D02*
X162018095Y-104572380D01*
X162303809Y-104572380D02*
X162303809Y-103572380D01*
X162208571Y-103715238D01*
X162113333Y-103810476D01*
X162018095Y-103858095D01*
X163446666Y-103905714D02*
X163446666Y-104572380D01*
X163208571Y-103524761D02*
X162970476Y-104239047D01*
X163589523Y-104239047D01*
%TO.C,C13*%
X161657142Y-107397142D02*
X161609523Y-107444761D01*
X161466666Y-107492380D01*
X161371428Y-107492380D01*
X161228571Y-107444761D01*
X161133333Y-107349523D01*
X161085714Y-107254285D01*
X161038095Y-107063809D01*
X161038095Y-106920952D01*
X161085714Y-106730476D01*
X161133333Y-106635238D01*
X161228571Y-106540000D01*
X161371428Y-106492380D01*
X161466666Y-106492380D01*
X161609523Y-106540000D01*
X161657142Y-106587619D01*
X162609523Y-107492380D02*
X162038095Y-107492380D01*
X162323809Y-107492380D02*
X162323809Y-106492380D01*
X162228571Y-106635238D01*
X162133333Y-106730476D01*
X162038095Y-106778095D01*
X162942857Y-106492380D02*
X163561904Y-106492380D01*
X163228571Y-106873333D01*
X163371428Y-106873333D01*
X163466666Y-106920952D01*
X163514285Y-106968571D01*
X163561904Y-107063809D01*
X163561904Y-107301904D01*
X163514285Y-107397142D01*
X163466666Y-107444761D01*
X163371428Y-107492380D01*
X163085714Y-107492380D01*
X162990476Y-107444761D01*
X162942857Y-107397142D01*
%TO.C,C12*%
X143157142Y-105557142D02*
X143109523Y-105604761D01*
X142966666Y-105652380D01*
X142871428Y-105652380D01*
X142728571Y-105604761D01*
X142633333Y-105509523D01*
X142585714Y-105414285D01*
X142538095Y-105223809D01*
X142538095Y-105080952D01*
X142585714Y-104890476D01*
X142633333Y-104795238D01*
X142728571Y-104700000D01*
X142871428Y-104652380D01*
X142966666Y-104652380D01*
X143109523Y-104700000D01*
X143157142Y-104747619D01*
X144109523Y-105652380D02*
X143538095Y-105652380D01*
X143823809Y-105652380D02*
X143823809Y-104652380D01*
X143728571Y-104795238D01*
X143633333Y-104890476D01*
X143538095Y-104938095D01*
X144490476Y-104747619D02*
X144538095Y-104700000D01*
X144633333Y-104652380D01*
X144871428Y-104652380D01*
X144966666Y-104700000D01*
X145014285Y-104747619D01*
X145061904Y-104842857D01*
X145061904Y-104938095D01*
X145014285Y-105080952D01*
X144442857Y-105652380D01*
X145061904Y-105652380D01*
%TO.C,C11*%
X154357142Y-97557142D02*
X154309523Y-97604761D01*
X154166666Y-97652380D01*
X154071428Y-97652380D01*
X153928571Y-97604761D01*
X153833333Y-97509523D01*
X153785714Y-97414285D01*
X153738095Y-97223809D01*
X153738095Y-97080952D01*
X153785714Y-96890476D01*
X153833333Y-96795238D01*
X153928571Y-96700000D01*
X154071428Y-96652380D01*
X154166666Y-96652380D01*
X154309523Y-96700000D01*
X154357142Y-96747619D01*
X155309523Y-97652380D02*
X154738095Y-97652380D01*
X155023809Y-97652380D02*
X155023809Y-96652380D01*
X154928571Y-96795238D01*
X154833333Y-96890476D01*
X154738095Y-96938095D01*
X156261904Y-97652380D02*
X155690476Y-97652380D01*
X155976190Y-97652380D02*
X155976190Y-96652380D01*
X155880952Y-96795238D01*
X155785714Y-96890476D01*
X155690476Y-96938095D01*
%TO.C,C10*%
X151357142Y-113917142D02*
X151309523Y-113964761D01*
X151166666Y-114012380D01*
X151071428Y-114012380D01*
X150928571Y-113964761D01*
X150833333Y-113869523D01*
X150785714Y-113774285D01*
X150738095Y-113583809D01*
X150738095Y-113440952D01*
X150785714Y-113250476D01*
X150833333Y-113155238D01*
X150928571Y-113060000D01*
X151071428Y-113012380D01*
X151166666Y-113012380D01*
X151309523Y-113060000D01*
X151357142Y-113107619D01*
X152309523Y-114012380D02*
X151738095Y-114012380D01*
X152023809Y-114012380D02*
X152023809Y-113012380D01*
X151928571Y-113155238D01*
X151833333Y-113250476D01*
X151738095Y-113298095D01*
X152928571Y-113012380D02*
X153023809Y-113012380D01*
X153119047Y-113060000D01*
X153166666Y-113107619D01*
X153214285Y-113202857D01*
X153261904Y-113393333D01*
X153261904Y-113631428D01*
X153214285Y-113821904D01*
X153166666Y-113917142D01*
X153119047Y-113964761D01*
X153023809Y-114012380D01*
X152928571Y-114012380D01*
X152833333Y-113964761D01*
X152785714Y-113917142D01*
X152738095Y-113821904D01*
X152690476Y-113631428D01*
X152690476Y-113393333D01*
X152738095Y-113202857D01*
X152785714Y-113107619D01*
X152833333Y-113060000D01*
X152928571Y-113012380D01*
%TO.C,C8*%
X158413333Y-100517142D02*
X158365714Y-100564761D01*
X158222857Y-100612380D01*
X158127619Y-100612380D01*
X157984761Y-100564761D01*
X157889523Y-100469523D01*
X157841904Y-100374285D01*
X157794285Y-100183809D01*
X157794285Y-100040952D01*
X157841904Y-99850476D01*
X157889523Y-99755238D01*
X157984761Y-99660000D01*
X158127619Y-99612380D01*
X158222857Y-99612380D01*
X158365714Y-99660000D01*
X158413333Y-99707619D01*
X158984761Y-100040952D02*
X158889523Y-99993333D01*
X158841904Y-99945714D01*
X158794285Y-99850476D01*
X158794285Y-99802857D01*
X158841904Y-99707619D01*
X158889523Y-99660000D01*
X158984761Y-99612380D01*
X159175238Y-99612380D01*
X159270476Y-99660000D01*
X159318095Y-99707619D01*
X159365714Y-99802857D01*
X159365714Y-99850476D01*
X159318095Y-99945714D01*
X159270476Y-99993333D01*
X159175238Y-100040952D01*
X158984761Y-100040952D01*
X158889523Y-100088571D01*
X158841904Y-100136190D01*
X158794285Y-100231428D01*
X158794285Y-100421904D01*
X158841904Y-100517142D01*
X158889523Y-100564761D01*
X158984761Y-100612380D01*
X159175238Y-100612380D01*
X159270476Y-100564761D01*
X159318095Y-100517142D01*
X159365714Y-100421904D01*
X159365714Y-100231428D01*
X159318095Y-100136190D01*
X159270476Y-100088571D01*
X159175238Y-100040952D01*
%TO.C,C7*%
X162833333Y-100557142D02*
X162785714Y-100604761D01*
X162642857Y-100652380D01*
X162547619Y-100652380D01*
X162404761Y-100604761D01*
X162309523Y-100509523D01*
X162261904Y-100414285D01*
X162214285Y-100223809D01*
X162214285Y-100080952D01*
X162261904Y-99890476D01*
X162309523Y-99795238D01*
X162404761Y-99700000D01*
X162547619Y-99652380D01*
X162642857Y-99652380D01*
X162785714Y-99700000D01*
X162833333Y-99747619D01*
X163166666Y-99652380D02*
X163833333Y-99652380D01*
X163404761Y-100652380D01*
%TO.C,C6*%
X145133333Y-97557142D02*
X145085714Y-97604761D01*
X144942857Y-97652380D01*
X144847619Y-97652380D01*
X144704761Y-97604761D01*
X144609523Y-97509523D01*
X144561904Y-97414285D01*
X144514285Y-97223809D01*
X144514285Y-97080952D01*
X144561904Y-96890476D01*
X144609523Y-96795238D01*
X144704761Y-96700000D01*
X144847619Y-96652380D01*
X144942857Y-96652380D01*
X145085714Y-96700000D01*
X145133333Y-96747619D01*
X145990476Y-96652380D02*
X145800000Y-96652380D01*
X145704761Y-96700000D01*
X145657142Y-96747619D01*
X145561904Y-96890476D01*
X145514285Y-97080952D01*
X145514285Y-97461904D01*
X145561904Y-97557142D01*
X145609523Y-97604761D01*
X145704761Y-97652380D01*
X145895238Y-97652380D01*
X145990476Y-97604761D01*
X146038095Y-97557142D01*
X146085714Y-97461904D01*
X146085714Y-97223809D01*
X146038095Y-97128571D01*
X145990476Y-97080952D01*
X145895238Y-97033333D01*
X145704761Y-97033333D01*
X145609523Y-97080952D01*
X145561904Y-97128571D01*
X145514285Y-97223809D01*
%TO.C,C5*%
X152216140Y-78577278D02*
X152168521Y-78624897D01*
X152025664Y-78672516D01*
X151930426Y-78672516D01*
X151787568Y-78624897D01*
X151692330Y-78529659D01*
X151644711Y-78434421D01*
X151597092Y-78243945D01*
X151597092Y-78101088D01*
X151644711Y-77910612D01*
X151692330Y-77815374D01*
X151787568Y-77720136D01*
X151930426Y-77672516D01*
X152025664Y-77672516D01*
X152168521Y-77720136D01*
X152216140Y-77767755D01*
X153120902Y-77672516D02*
X152644711Y-77672516D01*
X152597092Y-78148707D01*
X152644711Y-78101088D01*
X152739949Y-78053469D01*
X152978045Y-78053469D01*
X153073283Y-78101088D01*
X153120902Y-78148707D01*
X153168521Y-78243945D01*
X153168521Y-78482040D01*
X153120902Y-78577278D01*
X153073283Y-78624897D01*
X152978045Y-78672516D01*
X152739949Y-78672516D01*
X152644711Y-78624897D01*
X152597092Y-78577278D01*
%TO.C,C4*%
X152216140Y-73087279D02*
X152168521Y-73134898D01*
X152025664Y-73182517D01*
X151930426Y-73182517D01*
X151787568Y-73134898D01*
X151692330Y-73039660D01*
X151644711Y-72944422D01*
X151597092Y-72753946D01*
X151597092Y-72611089D01*
X151644711Y-72420613D01*
X151692330Y-72325375D01*
X151787568Y-72230137D01*
X151930426Y-72182517D01*
X152025664Y-72182517D01*
X152168521Y-72230137D01*
X152216140Y-72277756D01*
X153073283Y-72515851D02*
X153073283Y-73182517D01*
X152835187Y-72134898D02*
X152597092Y-72849184D01*
X153216140Y-72849184D01*
%TO.C,C3*%
X169265656Y-130807142D02*
X169218037Y-130854761D01*
X169075180Y-130902380D01*
X168979942Y-130902380D01*
X168837084Y-130854761D01*
X168741846Y-130759523D01*
X168694227Y-130664285D01*
X168646608Y-130473809D01*
X168646608Y-130330952D01*
X168694227Y-130140476D01*
X168741846Y-130045238D01*
X168837084Y-129950000D01*
X168979942Y-129902380D01*
X169075180Y-129902380D01*
X169218037Y-129950000D01*
X169265656Y-129997619D01*
X169598989Y-129902380D02*
X170218037Y-129902380D01*
X169884703Y-130283333D01*
X170027561Y-130283333D01*
X170122799Y-130330952D01*
X170170418Y-130378571D01*
X170218037Y-130473809D01*
X170218037Y-130711904D01*
X170170418Y-130807142D01*
X170122799Y-130854761D01*
X170027561Y-130902380D01*
X169741846Y-130902380D01*
X169646608Y-130854761D01*
X169598989Y-130807142D01*
%TO.C,C1*%
X137133333Y-97557142D02*
X137085714Y-97604761D01*
X136942857Y-97652380D01*
X136847619Y-97652380D01*
X136704761Y-97604761D01*
X136609523Y-97509523D01*
X136561904Y-97414285D01*
X136514285Y-97223809D01*
X136514285Y-97080952D01*
X136561904Y-96890476D01*
X136609523Y-96795238D01*
X136704761Y-96700000D01*
X136847619Y-96652380D01*
X136942857Y-96652380D01*
X137085714Y-96700000D01*
X137133333Y-96747619D01*
X138085714Y-97652380D02*
X137514285Y-97652380D01*
X137800000Y-97652380D02*
X137800000Y-96652380D01*
X137704761Y-96795238D01*
X137609523Y-96890476D01*
X137514285Y-96938095D01*
D12*
%TO.C,J4*%
X160570000Y-142670000D02*
X160570000Y-139230000D01*
X161260000Y-140950000D02*
X160570000Y-140950000D01*
X150640000Y-140950000D02*
X151330000Y-140950000D01*
X151330000Y-139230000D02*
X151330000Y-142670000D01*
X160570000Y-139230000D02*
X151330000Y-139230000D01*
X151330000Y-142670000D02*
X160570000Y-142670000D01*
%TO.C,L1*%
X160800000Y-123800000D02*
X150800000Y-123800000D01*
X160800000Y-115600000D02*
X150800000Y-115600000D01*
%TO.C,C9*%
X145511252Y-103040000D02*
X144088748Y-103040000D01*
X145511252Y-100320000D02*
X144088748Y-100320000D01*
%TO.C,JP1*%
X170930000Y-102070000D02*
X168330000Y-102070000D01*
X170930000Y-104730000D02*
X168330000Y-104730000D01*
X170930000Y-102070000D02*
X170930000Y-104730000D01*
X173530000Y-103400000D02*
X173530000Y-104730000D01*
X173530000Y-104730000D02*
X172200000Y-104730000D01*
X168330000Y-102070000D02*
X168330000Y-104730000D01*
%TO.C,Y1*%
X163850000Y-94400000D02*
X158100000Y-94400000D01*
X158100000Y-98000000D02*
X163850000Y-98000000D01*
X163850000Y-98000000D02*
X163850000Y-94400000D01*
%TO.C,U3*%
X155118198Y-109987113D02*
X154800000Y-110305311D01*
X154800000Y-100094689D02*
X155118198Y-100412887D01*
X159905311Y-105200000D02*
X159587113Y-104881802D01*
X150012887Y-104881802D02*
X149694689Y-105200000D01*
X149694689Y-105200000D02*
X150012887Y-105518198D01*
X159587113Y-105518198D02*
X159905311Y-105200000D01*
X154481802Y-100412887D02*
X154800000Y-100094689D01*
X159587113Y-104881802D02*
X160499281Y-103969634D01*
X154800000Y-110305311D02*
X154481802Y-109987113D01*
%TO.C,U2*%
X149382807Y-73960137D02*
X150032807Y-73960137D01*
X149382807Y-77080137D02*
X150032807Y-77080137D01*
X149382807Y-73960137D02*
X147707807Y-73960137D01*
X149382807Y-77080137D02*
X148732807Y-77080137D01*
%TO.C,U1*%
X141300000Y-92260000D02*
X139350000Y-92260000D01*
X141300000Y-87140000D02*
X143250000Y-87140000D01*
X141300000Y-92260000D02*
X143250000Y-92260000D01*
X141300000Y-87140000D02*
X137850000Y-87140000D01*
%TO.C,SELECT*%
X168090000Y-89500000D02*
X168090000Y-89910000D01*
X168090000Y-89910000D02*
X174510000Y-89910000D01*
X168090000Y-83490000D02*
X168090000Y-83900000D01*
X168090000Y-85500000D02*
X168090000Y-87900000D01*
X174510000Y-87900000D02*
X174510000Y-85500000D01*
X174510000Y-89910000D02*
X174510000Y-89630000D01*
X174510000Y-83490000D02*
X168090000Y-83490000D01*
X174510000Y-83900000D02*
X174510000Y-83490000D01*
%TO.C,RESET*%
X168090000Y-99000000D02*
X168090000Y-99410000D01*
X168090000Y-99410000D02*
X174510000Y-99410000D01*
X168090000Y-92990000D02*
X168090000Y-93400000D01*
X168090000Y-95000000D02*
X168090000Y-97400000D01*
X174510000Y-97400000D02*
X174510000Y-95000000D01*
X174510000Y-99410000D02*
X174510000Y-99130000D01*
X174510000Y-92990000D02*
X168090000Y-92990000D01*
X174510000Y-93400000D02*
X174510000Y-92990000D01*
%TO.C,RV1*%
X150925000Y-85670000D02*
X160695000Y-85670000D01*
X160695000Y-85670000D02*
X160695000Y-90740000D01*
X150925000Y-85670000D02*
X150925000Y-90740000D01*
X150925000Y-90740000D02*
X160695000Y-90740000D01*
%TO.C,R15*%
X165924758Y-107077500D02*
X165450242Y-107077500D01*
X165924758Y-108122500D02*
X165450242Y-108122500D01*
%TO.C,R14*%
X165762258Y-114177500D02*
X165287742Y-114177500D01*
X165762258Y-115222500D02*
X165287742Y-115222500D01*
%TO.C,R13*%
X165732258Y-122422500D02*
X165257742Y-122422500D01*
X165732258Y-121377500D02*
X165257742Y-121377500D01*
%TO.C,R12*%
X160570000Y-133920000D02*
X160570000Y-130480000D01*
X161260000Y-132200000D02*
X160570000Y-132200000D01*
X150640000Y-132200000D02*
X151330000Y-132200000D01*
X151330000Y-130480000D02*
X151330000Y-133920000D01*
X160570000Y-130480000D02*
X151330000Y-130480000D01*
X151330000Y-133920000D02*
X160570000Y-133920000D01*
%TO.C,R11*%
X151737742Y-69222500D02*
X152212258Y-69222500D01*
X151737742Y-68177500D02*
X152212258Y-68177500D01*
%TO.C,R10*%
X149077500Y-89637258D02*
X149077500Y-89162742D01*
X150122500Y-89637258D02*
X150122500Y-89162742D01*
%TO.C,R9*%
X164062742Y-85222500D02*
X164537258Y-85222500D01*
X164062742Y-84177500D02*
X164537258Y-84177500D01*
%TO.C,R8*%
X164162742Y-112122500D02*
X164637258Y-112122500D01*
X164162742Y-111077500D02*
X164637258Y-111077500D01*
%TO.C,R7*%
X138837258Y-62877500D02*
X138362742Y-62877500D01*
X138837258Y-63922500D02*
X138362742Y-63922500D01*
%TO.C,R6*%
X161867258Y-69677500D02*
X161392742Y-69677500D01*
X161867258Y-70722500D02*
X161392742Y-70722500D01*
%TO.C,R5*%
X172537258Y-69677500D02*
X172062742Y-69677500D01*
X172537258Y-70722500D02*
X172062742Y-70722500D01*
%TO.C,R4*%
X143364171Y-74520152D02*
X143364171Y-74045636D01*
X142319171Y-74520152D02*
X142319171Y-74045636D01*
%TO.C,R3*%
X143274516Y-133177500D02*
X142800000Y-133177500D01*
X143274516Y-134222500D02*
X142800000Y-134222500D01*
%TO.C,R2*%
X136922500Y-89637258D02*
X136922500Y-89162742D01*
X135877500Y-89637258D02*
X135877500Y-89162742D01*
%TO.C,R1*%
X140062742Y-121722500D02*
X140537258Y-121722500D01*
X140062742Y-120677500D02*
X140537258Y-120677500D01*
%TO.C,Q3*%
X138800000Y-75760000D02*
X140600000Y-75760000D01*
X138800000Y-75760000D02*
X138000000Y-75760000D01*
X138800000Y-72640000D02*
X139600000Y-72640000D01*
X138800000Y-72640000D02*
X138000000Y-72640000D01*
%TO.C,Q2*%
X146617258Y-141025000D02*
X136377258Y-141025000D01*
X143347258Y-141025000D02*
X143347258Y-139515000D01*
X139646258Y-141025000D02*
X139646258Y-139515000D01*
X146617258Y-141025000D02*
X146617258Y-136384000D01*
X146617258Y-136384000D02*
X136377258Y-136384000D01*
X136377258Y-141025000D02*
X136377258Y-136384000D01*
X146617258Y-139515000D02*
X136377258Y-139515000D01*
%TO.C,Q1*%
X138680000Y-114875000D02*
X148920000Y-114875000D01*
X141950000Y-114875000D02*
X141950000Y-116385000D01*
X145651000Y-114875000D02*
X145651000Y-116385000D01*
X138680000Y-114875000D02*
X138680000Y-119516000D01*
X138680000Y-119516000D02*
X148920000Y-119516000D01*
X148920000Y-114875000D02*
X148920000Y-119516000D01*
X138680000Y-116385000D02*
X148920000Y-116385000D01*
%TO.C,J3*%
X136300000Y-101370000D02*
X137630000Y-101370000D01*
X137630000Y-101370000D02*
X137630000Y-102700000D01*
X134970000Y-103970000D02*
X134970000Y-111650000D01*
X134970000Y-103970000D02*
X137630000Y-103970000D01*
X137630000Y-103970000D02*
X137630000Y-111650000D01*
X134970000Y-111650000D02*
X137630000Y-111650000D01*
%TO.C,J2*%
X150330000Y-62870000D02*
X150330000Y-61070000D01*
X150330000Y-57360000D02*
X159270000Y-57360000D01*
X150330000Y-57360000D02*
X150330000Y-58820000D01*
X159270000Y-57360000D02*
X159270000Y-58820000D01*
X159270000Y-62870000D02*
X159270000Y-61070000D01*
%TO.C,J1*%
X132970000Y-77930000D02*
X132970000Y-80530000D01*
X135630000Y-77930000D02*
X135630000Y-80530000D01*
X132970000Y-77930000D02*
X135630000Y-77930000D01*
X134300000Y-75330000D02*
X135630000Y-75330000D01*
X135630000Y-75330000D02*
X135630000Y-76660000D01*
X132970000Y-80530000D02*
X135630000Y-80530000D01*
%TO.C,F3*%
X161127064Y-135790000D02*
X159672936Y-135790000D01*
X161127064Y-137610000D02*
X159672936Y-137610000D01*
%TO.C,F2*%
X140272936Y-78890000D02*
X141727064Y-78890000D01*
X140272936Y-80710000D02*
X141727064Y-80710000D01*
%TO.C,F1*%
X164535436Y-63610000D02*
X165989564Y-63610000D01*
X164535436Y-61790000D02*
X165989564Y-61790000D01*
%TO.C,D9*%
X168602500Y-108380000D02*
X168602500Y-111660000D01*
X168602500Y-111659512D02*
G75*
G03*
X174202499Y-110018042I2560000J1639512D01*
G01*
X174202499Y-110021958D02*
G75*
G03*
X168602500Y-108380488I-3039999J1958D01*
G01*
X173662500Y-110020000D02*
G75*
G03*
X173662500Y-110020000I-2500000J0D01*
G01*
%TO.C,D8*%
X168510000Y-115560000D02*
X168510000Y-118840000D01*
X168510000Y-118839512D02*
G75*
G03*
X174109999Y-117198042I2560000J1639512D01*
G01*
X174109999Y-117201958D02*
G75*
G03*
X168510000Y-115560488I-3039999J1958D01*
G01*
X173570000Y-117200000D02*
G75*
G03*
X173570000Y-117200000I-2500000J0D01*
G01*
%TO.C,D7*%
X173490000Y-124400000D02*
G75*
G03*
X173490000Y-124400000I-2500000J0D01*
G01*
X174029999Y-124401958D02*
G75*
G03*
X168430000Y-122760488I-3039999J1958D01*
G01*
X168430000Y-126039512D02*
G75*
G03*
X174029999Y-124398042I2560000J1639512D01*
G01*
X168430000Y-122760000D02*
X168430000Y-126040000D01*
%TO.C,D5*%
X141735000Y-61560000D02*
X141735000Y-64840000D01*
X141735000Y-64839512D02*
G75*
G03*
X147334999Y-63198042I2560000J1639512D01*
G01*
X147334999Y-63201958D02*
G75*
G03*
X141735000Y-61560488I-3039999J1958D01*
G01*
X146795000Y-63200000D02*
G75*
G03*
X146795000Y-63200000I-2500000J0D01*
G01*
%TO.C,D4*%
X169077499Y-64285000D02*
X172962499Y-64285000D01*
X172962499Y-61115000D02*
X169077499Y-61115000D01*
X169077499Y-61115000D02*
X169077499Y-64285000D01*
%TO.C,D3*%
X158970000Y-74560000D02*
X158970000Y-77840000D01*
X158970000Y-77839512D02*
G75*
G03*
X164569999Y-76198042I2560000J1639512D01*
G01*
X164569999Y-76201958D02*
G75*
G03*
X158970000Y-74560488I-3039999J1958D01*
G01*
X164030000Y-76200000D02*
G75*
G03*
X164030000Y-76200000I-2500000J0D01*
G01*
%TO.C,D2*%
X169735000Y-74560000D02*
X169735000Y-77840000D01*
X169735000Y-77839512D02*
G75*
G03*
X175334999Y-76198042I2560000J1639512D01*
G01*
X175334999Y-76201958D02*
G75*
G03*
X169735000Y-74560488I-3039999J1958D01*
G01*
X174795000Y-76200000D02*
G75*
G03*
X174795000Y-76200000I-2500000J0D01*
G01*
%TO.C,D1*%
X159015000Y-128785000D02*
X162900000Y-128785000D01*
X162900000Y-125615000D02*
X159015000Y-125615000D01*
X159015000Y-125615000D02*
X159015000Y-128785000D01*
%TO.C,C14*%
X162172164Y-105640000D02*
X162387836Y-105640000D01*
X162172164Y-104920000D02*
X162387836Y-104920000D01*
%TO.C,C13*%
X162192164Y-108560000D02*
X162407836Y-108560000D01*
X162192164Y-107840000D02*
X162407836Y-107840000D01*
%TO.C,C12*%
X146357016Y-105560000D02*
X146141344Y-105560000D01*
X146357016Y-104840000D02*
X146141344Y-104840000D01*
%TO.C,C11*%
X154692164Y-98960000D02*
X154907836Y-98960000D01*
X154692164Y-98240000D02*
X154907836Y-98240000D01*
%TO.C,C10*%
X152107836Y-112040000D02*
X151892164Y-112040000D01*
X152107836Y-112760000D02*
X151892164Y-112760000D01*
%TO.C,C8*%
X158707836Y-98640000D02*
X158492164Y-98640000D01*
X158707836Y-99360000D02*
X158492164Y-99360000D01*
%TO.C,C7*%
X162892164Y-99360000D02*
X163107836Y-99360000D01*
X162892164Y-98640000D02*
X163107836Y-98640000D01*
%TO.C,C6*%
X144588748Y-93340000D02*
X146011252Y-93340000D01*
X144588748Y-96060000D02*
X146011252Y-96060000D01*
%TO.C,C5*%
X149242227Y-78730136D02*
X149523387Y-78730136D01*
X149242227Y-77710136D02*
X149523387Y-77710136D01*
%TO.C,C4*%
X149523387Y-73240137D02*
X149242227Y-73240137D01*
X149523387Y-72220137D02*
X149242227Y-72220137D01*
%TO.C,C3*%
X172633323Y-132743000D02*
X172633323Y-135459000D01*
X174153323Y-137941000D02*
X174153323Y-138644000D01*
X174033323Y-134491000D02*
X174033323Y-135459000D01*
X172713323Y-137941000D02*
X172713323Y-140592000D01*
X171593323Y-132097000D02*
X171593323Y-141303000D01*
X174073323Y-134575000D02*
X174073323Y-135459000D01*
X171473323Y-132043000D02*
X171473323Y-141357000D01*
X173633323Y-133811000D02*
X173633323Y-135459000D01*
X173793323Y-134055000D02*
X173793323Y-135459000D01*
X172193323Y-137941000D02*
X172193323Y-140973000D01*
X170553323Y-131744000D02*
X170553323Y-141656000D01*
X172393323Y-132562000D02*
X172393323Y-135459000D01*
X173593323Y-137941000D02*
X173593323Y-139645000D01*
X173673323Y-137941000D02*
X173673323Y-139530000D01*
X171713323Y-132155000D02*
X171713323Y-141245000D01*
X172873323Y-132947000D02*
X172873323Y-135459000D01*
X172553323Y-137941000D02*
X172553323Y-140720000D01*
X173593323Y-133755000D02*
X173593323Y-135459000D01*
X173073323Y-137941000D02*
X173073323Y-140261000D01*
X172953323Y-137941000D02*
X172953323Y-140379000D01*
X170713323Y-131782000D02*
X170713323Y-141618000D01*
X170473323Y-131726000D02*
X170473323Y-141674000D01*
X173873323Y-137941000D02*
X173873323Y-139210000D01*
X170032323Y-131655000D02*
X170032323Y-141745000D01*
X172353323Y-137941000D02*
X172353323Y-140866000D01*
X172113323Y-137941000D02*
X172113323Y-141023000D01*
X172593323Y-137941000D02*
X172593323Y-140689000D01*
X169832323Y-131635000D02*
X169832323Y-141765000D01*
X173233323Y-133308000D02*
X173233323Y-135459000D01*
X170393323Y-131710000D02*
X170393323Y-141690000D01*
X170633323Y-131762000D02*
X170633323Y-141638000D01*
X173113323Y-133180000D02*
X173113323Y-135459000D01*
X173313323Y-133399000D02*
X173313323Y-135459000D01*
X174193323Y-137941000D02*
X174193323Y-138546000D01*
X171273323Y-131962000D02*
X171273323Y-141438000D01*
X170153323Y-131670000D02*
X170153323Y-141730000D01*
X172673323Y-132775000D02*
X172673323Y-135459000D01*
X173353323Y-133446000D02*
X173353323Y-135459000D01*
X170233323Y-131682000D02*
X170233323Y-141718000D01*
X174033323Y-137941000D02*
X174033323Y-138909000D01*
X174073323Y-137941000D02*
X174073323Y-138825000D01*
X173113323Y-137941000D02*
X173113323Y-140220000D01*
X170072323Y-131660000D02*
X170072323Y-141740000D01*
X171993323Y-137941000D02*
X171993323Y-141095000D01*
X173993323Y-134411000D02*
X173993323Y-135459000D01*
X173913323Y-134261000D02*
X173913323Y-135459000D01*
X172633323Y-137941000D02*
X172633323Y-140657000D01*
X170793323Y-131803000D02*
X170793323Y-141597000D01*
X171993323Y-132305000D02*
X171993323Y-135459000D01*
X171233323Y-131946000D02*
X171233323Y-141454000D01*
X173553323Y-133700000D02*
X173553323Y-135459000D01*
X170513323Y-131735000D02*
X170513323Y-141665000D01*
X172753323Y-137941000D02*
X172753323Y-140558000D01*
X172473323Y-132620000D02*
X172473323Y-135459000D01*
X173873323Y-134190000D02*
X173873323Y-135459000D01*
X174313323Y-135190000D02*
X174313323Y-135459000D01*
X172953323Y-133021000D02*
X172953323Y-135459000D01*
X172793323Y-132876000D02*
X172793323Y-135459000D01*
X171033323Y-131876000D02*
X171033323Y-141524000D01*
X173193323Y-137941000D02*
X173193323Y-140136000D01*
X172233323Y-137941000D02*
X172233323Y-140947000D01*
X171833323Y-132217000D02*
X171833323Y-141183000D01*
X172193323Y-132427000D02*
X172193323Y-135459000D01*
X171873323Y-132238000D02*
X171873323Y-141162000D01*
X174113323Y-134663000D02*
X174113323Y-135459000D01*
X169872323Y-131638000D02*
X169872323Y-141762000D01*
X172593323Y-132711000D02*
X172593323Y-135459000D01*
X172513323Y-132650000D02*
X172513323Y-135459000D01*
X171953323Y-137941000D02*
X171953323Y-141117000D01*
X172753323Y-132842000D02*
X172753323Y-135459000D01*
X172913323Y-137941000D02*
X172913323Y-140416000D01*
X170112323Y-131665000D02*
X170112323Y-141735000D01*
X173633323Y-137941000D02*
X173633323Y-139589000D01*
X171073323Y-131889000D02*
X171073323Y-141511000D01*
X172313323Y-132506000D02*
X172313323Y-135459000D01*
X173393323Y-133494000D02*
X173393323Y-135459000D01*
X173513323Y-137941000D02*
X173513323Y-139754000D01*
X174353323Y-135322000D02*
X174353323Y-135459000D01*
X170353323Y-131703000D02*
X170353323Y-141697000D01*
X169512323Y-131620000D02*
X169512323Y-141780000D01*
X170833323Y-131815000D02*
X170833323Y-141585000D01*
X172033323Y-137941000D02*
X172033323Y-141071000D01*
X170913323Y-131838000D02*
X170913323Y-141562000D01*
X173073323Y-133139000D02*
X173073323Y-135459000D01*
X170193323Y-131676000D02*
X170193323Y-141724000D01*
X173153323Y-133222000D02*
X173153323Y-135459000D01*
X173953323Y-137941000D02*
X173953323Y-139065000D01*
X172393323Y-137941000D02*
X172393323Y-140838000D01*
X173833323Y-137941000D02*
X173833323Y-139279000D01*
X170873323Y-131826000D02*
X170873323Y-141574000D01*
X172993323Y-133060000D02*
X172993323Y-135459000D01*
X170993323Y-131863000D02*
X170993323Y-141537000D01*
X172153323Y-137941000D02*
X172153323Y-140998000D01*
X169632323Y-131623000D02*
X169632323Y-141777000D01*
X174113323Y-137941000D02*
X174113323Y-138737000D01*
X174273323Y-137941000D02*
X174273323Y-138330000D01*
X172033323Y-132329000D02*
X172033323Y-135459000D01*
X171113323Y-131903000D02*
X171113323Y-141497000D01*
X169432323Y-131620000D02*
X169432323Y-141780000D01*
X173913323Y-137941000D02*
X173913323Y-139139000D01*
X172113323Y-132377000D02*
X172113323Y-135459000D01*
X170753323Y-131793000D02*
X170753323Y-141607000D01*
X172233323Y-132453000D02*
X172233323Y-135459000D01*
X173273323Y-133353000D02*
X173273323Y-135459000D01*
X172993323Y-137941000D02*
X172993323Y-140340000D01*
X169552323Y-131621000D02*
X169552323Y-141779000D01*
X169672323Y-131625000D02*
X169672323Y-141775000D01*
X171313323Y-131977000D02*
X171313323Y-141423000D01*
X169992323Y-131650000D02*
X169992323Y-141750000D01*
X172313323Y-137941000D02*
X172313323Y-140894000D01*
X174233323Y-137941000D02*
X174233323Y-138442000D01*
X172273323Y-132479000D02*
X172273323Y-135459000D01*
X173713323Y-133930000D02*
X173713323Y-135459000D01*
X172833323Y-137941000D02*
X172833323Y-140489000D01*
X172913323Y-132984000D02*
X172913323Y-135459000D01*
X173793323Y-137941000D02*
X173793323Y-139345000D01*
X172353323Y-132534000D02*
X172353323Y-135459000D01*
X171633323Y-132116000D02*
X171633323Y-141284000D01*
X169472323Y-131620000D02*
X169472323Y-141780000D01*
X172513323Y-137941000D02*
X172513323Y-140750000D01*
X172073323Y-132353000D02*
X172073323Y-135459000D01*
X170433323Y-131718000D02*
X170433323Y-141682000D01*
X170273323Y-131689000D02*
X170273323Y-141711000D01*
X172713323Y-132808000D02*
X172713323Y-135459000D01*
X172873323Y-137941000D02*
X172873323Y-140453000D01*
X170953323Y-131850000D02*
X170953323Y-141550000D01*
X173033323Y-137941000D02*
X173033323Y-140301000D01*
X173433323Y-133544000D02*
X173433323Y-135459000D01*
X173753323Y-137941000D02*
X173753323Y-139409000D01*
X172473323Y-137941000D02*
X172473323Y-140780000D01*
X174193323Y-134854000D02*
X174193323Y-135459000D01*
X172553323Y-132680000D02*
X172553323Y-135459000D01*
X169792323Y-131632000D02*
X169792323Y-141768000D01*
X174353323Y-137941000D02*
X174353323Y-138078000D01*
X171193323Y-131932000D02*
X171193323Y-141468000D01*
X171793323Y-132196000D02*
X171793323Y-141204000D01*
X174513323Y-136101000D02*
X174513323Y-137299000D01*
X171153323Y-131917000D02*
X171153323Y-141483000D01*
X173673323Y-133870000D02*
X173673323Y-135459000D01*
X173473323Y-137941000D02*
X173473323Y-139806000D01*
X171753323Y-132175000D02*
X171753323Y-141225000D01*
X174273323Y-135070000D02*
X174273323Y-135459000D01*
X169952323Y-131646000D02*
X169952323Y-141754000D01*
X170593323Y-131753000D02*
X170593323Y-141647000D01*
X169912323Y-131642000D02*
X169912323Y-141758000D01*
X174433323Y-135638000D02*
X174433323Y-137762000D01*
X173393323Y-137941000D02*
X173393323Y-139906000D01*
X170313323Y-131696000D02*
X170313323Y-141704000D01*
X169592323Y-131622000D02*
X169592323Y-141778000D01*
X172793323Y-137941000D02*
X172793323Y-140524000D01*
X173273323Y-137941000D02*
X173273323Y-140047000D01*
X173433323Y-137941000D02*
X173433323Y-139856000D01*
X173353323Y-137941000D02*
X173353323Y-139954000D01*
X173753323Y-133991000D02*
X173753323Y-135459000D01*
X172073323Y-137941000D02*
X172073323Y-141047000D01*
X172673323Y-137941000D02*
X172673323Y-140625000D01*
X174233323Y-134958000D02*
X174233323Y-135459000D01*
X172153323Y-132402000D02*
X172153323Y-135459000D01*
X173833323Y-134121000D02*
X173833323Y-135459000D01*
X171673323Y-132136000D02*
X171673323Y-141264000D01*
X171553323Y-132079000D02*
X171553323Y-141321000D01*
X171913323Y-132260000D02*
X171913323Y-141140000D01*
X173153323Y-137941000D02*
X173153323Y-140178000D01*
X171513323Y-132061000D02*
X171513323Y-141339000D01*
X169752323Y-131630000D02*
X169752323Y-141770000D01*
X173713323Y-137941000D02*
X173713323Y-139470000D01*
X169712323Y-131627000D02*
X169712323Y-141773000D01*
X173553323Y-137941000D02*
X173553323Y-139700000D01*
X173033323Y-133099000D02*
X173033323Y-135459000D01*
X173953323Y-134335000D02*
X173953323Y-135459000D01*
X163952677Y-133825000D02*
X164952677Y-133825000D01*
X171393323Y-132010000D02*
X171393323Y-141390000D01*
X173513323Y-133646000D02*
X173513323Y-135459000D01*
X174153323Y-134756000D02*
X174153323Y-135459000D01*
X172433323Y-137941000D02*
X172433323Y-140810000D01*
X172273323Y-137941000D02*
X172273323Y-140921000D01*
X171353323Y-131993000D02*
X171353323Y-141407000D01*
X172833323Y-132911000D02*
X172833323Y-135459000D01*
X171433323Y-132026000D02*
X171433323Y-141374000D01*
X172433323Y-132590000D02*
X172433323Y-135459000D01*
X173313323Y-137941000D02*
X173313323Y-140001000D01*
X173993323Y-137941000D02*
X173993323Y-138989000D01*
X174313323Y-137941000D02*
X174313323Y-138210000D01*
X173233323Y-137941000D02*
X173233323Y-140092000D01*
X171953323Y-132283000D02*
X171953323Y-135459000D01*
X164452677Y-133325000D02*
X164452677Y-134325000D01*
X173473323Y-133594000D02*
X173473323Y-135459000D01*
X173193323Y-133264000D02*
X173193323Y-135459000D01*
X170673323Y-131772000D02*
X170673323Y-141628000D01*
X174473323Y-135838000D02*
X174473323Y-137562000D01*
X164469783Y-137960000D02*
G75*
G03*
X164469783Y-135440000I4962540J1260000D01*
G01*
%TO.C,C1*%
X138011252Y-96060000D02*
X136588748Y-96060000D01*
X138011252Y-93340000D02*
X136588748Y-93340000D01*
%TD*%
M02*
