M48
; DRILL file {KiCad (6.0.11)} date Thu Jul 13 20:03:14 2023
; FORMAT={-:-/ absolute / inch / decimal}
; #@! TF.CreationDate,2023-07-13T20:03:14-03:00
; #@! TF.GenerationSoftware,Kicad,Pcbnew,(6.0.11)
; #@! TF.FileFunction,Plated,1,2,PTH
FMAT,2
INCH
; #@! TA.AperFunction,Plated,PTH,ViaDrill
T1C0.0157
; #@! TA.AperFunction,Plated,PTH,ComponentDrill
T2C0.0236
; #@! TA.AperFunction,Plated,PTH,ComponentDrill
T3C0.0315
; #@! TA.AperFunction,Plated,PTH,ComponentDrill
T4C0.0354
; #@! TA.AperFunction,Plated,PTH,ComponentDrill
T5C0.0394
; #@! TA.AperFunction,Plated,PTH,ComponentDrill
T6C0.0433
%
G90
G05
T1
X5.2835Y-4.7244
X5.2835Y-4.8819
X5.2913Y-4.5984
X5.4173Y-4.9764
X5.4173Y-5.0236
X5.4173Y-5.0709
X5.4882Y-4.4331
X5.5039Y-4.3937
X5.5433Y-3.2441
X5.5512Y-4.9764
X5.5512Y-5.0236
X5.5512Y-5.0709
X5.5512Y-5.252
X5.5669Y-5.1969
X5.5984Y-3.7165
X5.6142Y-3.2362
X5.6299Y-4.2047
X5.6535Y-4.2756
X5.7402Y-4.4646
X5.748Y-2.6693
X5.748Y-4.2598
X5.7559Y-2.8504
X5.7638Y-2.7244
X5.7638Y-4.3071
X5.7717Y-3.3228
X5.8346Y-2.8031
X5.8504Y-3.1732
X5.8583Y-3.9685
X5.8661Y-4.0079
X5.8819Y-3.6693
X5.8819Y-4.2835
X5.9055Y-3.937
X5.9291Y-3.2441
X5.9291Y-3.8425
X5.9449Y-2.8031
X5.9488Y-3.8898
X5.9685Y-2.6063
X5.9685Y-4.1417
X5.9843Y-2.8031
X6.0Y-4.1102
X6.0157Y-3.0157
X6.0157Y-3.5906
X6.0315Y-3.2677
X6.0315Y-3.3858
X6.0394Y-3.7638
X6.063Y-4.1102
X6.0709Y-2.7165
X6.0709Y-4.0709
X6.0787Y-4.0315
X6.0866Y-2.8425
X6.0945Y-2.4252
X6.1024Y-3.6299
X6.1024Y-4.189
X6.1024Y-4.2362
X6.1181Y-2.7165
X6.1181Y-2.8189
X6.1181Y-3.2047
X6.1417Y-3.2362
X6.1417Y-4.6299
X6.1417Y-4.7953
X6.1496Y-4.0709
X6.1575Y-3.3858
X6.1575Y-3.7717
X6.1575Y-4.1102
X6.1654Y-2.8976
X6.1654Y-4.4094
X6.1811Y-2.7165
X6.1811Y-3.5748
X6.1969Y-2.8346
X6.1974Y-2.6072
X6.2126Y-4.4094
X6.2283Y-2.7165
X6.3465Y-2.5276
X6.3543Y-3.5984
X6.4016Y-4.315
X6.4331Y-4.0
X6.4409Y-4.3386
X6.4646Y-3.4173
X6.4984Y-3.3889
X6.5591Y-2.8189
X6.5827Y-3.9606
X6.6063Y-3.6063
X6.6535Y-3.1811
X6.6929Y-3.7953
X6.748Y-3.4173
X6.8031Y-2.5984
X6.8112Y-3.1907
X6.8425Y-2.5984
X6.8898Y-5.1339
X6.9606Y-4.9055
X6.9685Y-4.3307
X6.9685Y-4.6299
T3
X5.8898Y-5.2047
X5.8898Y-5.5492
X6.0343Y-3.4724
X6.1343Y-3.4724
X6.2343Y-3.4724
X6.3898Y-5.2047
X6.3898Y-5.5492
T4
X5.6309Y-2.4882
X5.7309Y-2.4882
X6.3094Y-3.0
X6.4094Y-3.0
X6.6819Y-4.8976
X6.685Y-4.6142
X6.6887Y-4.3315
X6.7333Y-3.0
X6.7819Y-4.8976
X6.785Y-4.6142
X6.7887Y-4.3315
X6.8333Y-3.0
T5
X5.2874Y-3.0181
X5.2874Y-3.1181
X5.3661Y-4.0433
X5.3661Y-4.1433
X5.3661Y-4.2433
X5.3661Y-4.3433
X6.5229Y-5.3819
X6.6795Y-4.0709
X6.7795Y-4.0709
X6.8182Y-5.3819
T6
X5.4708Y-5.4234
X5.5614Y-4.6514
X5.5708Y-5.4234
X5.6614Y-4.6514
X5.6708Y-5.4234
X5.7614Y-4.6514
T2
G00X5.9244Y-2.3449
M15
G01X5.9244Y-2.3764
M16
G05
G00X5.9244Y-2.5031
M15
G01X5.9244Y-2.5465
M16
G05
G00X6.2646Y-2.3449
M15
G01X6.2646Y-2.3764
M16
G05
G00X6.2646Y-2.5031
M15
G01X6.2646Y-2.5465
M16
G05
T0
M30
