%TF.GenerationSoftware,KiCad,Pcbnew,(6.0.11)*%
%TF.CreationDate,2023-07-13T20:03:18-03:00*%
%TF.ProjectId,Open-Tens,4f70656e-2d54-4656-9e73-2e6b69636164,rev?*%
%TF.SameCoordinates,Original*%
%TF.FileFunction,Copper,L2,Bot*%
%TF.FilePolarity,Positive*%
%FSLAX46Y46*%
G04 Gerber Fmt 4.6, Leading zero omitted, Abs format (unit mm)*
G04 Created by KiCad (PCBNEW (6.0.11)) date 2023-07-13 20:03:18*
%MOMM*%
%LPD*%
G01*
G04 APERTURE LIST*
%TA.AperFunction,ComponentPad*%
%ADD10C,1.600000*%
%TD*%
%TA.AperFunction,ComponentPad*%
%ADD11O,1.600000X1.600000*%
%TD*%
%TA.AperFunction,ComponentPad*%
%ADD12R,1.700000X1.700000*%
%TD*%
%TA.AperFunction,ComponentPad*%
%ADD13O,1.700000X1.700000*%
%TD*%
%TA.AperFunction,ComponentPad*%
%ADD14C,1.440000*%
%TD*%
%TA.AperFunction,ComponentPad*%
%ADD15R,1.905000X2.000000*%
%TD*%
%TA.AperFunction,ComponentPad*%
%ADD16O,1.905000X2.000000*%
%TD*%
%TA.AperFunction,ComponentPad*%
%ADD17O,0.900000X2.000000*%
%TD*%
%TA.AperFunction,ComponentPad*%
%ADD18O,0.900000X1.700000*%
%TD*%
%TA.AperFunction,ComponentPad*%
%ADD19R,1.800000X1.800000*%
%TD*%
%TA.AperFunction,ComponentPad*%
%ADD20C,1.800000*%
%TD*%
%TA.AperFunction,ComponentPad*%
%ADD21R,2.000000X2.000000*%
%TD*%
%TA.AperFunction,ComponentPad*%
%ADD22C,2.000000*%
%TD*%
%TA.AperFunction,ViaPad*%
%ADD23C,0.800000*%
%TD*%
%TA.AperFunction,Conductor*%
%ADD24C,0.200000*%
%TD*%
%TA.AperFunction,Conductor*%
%ADD25C,0.250000*%
%TD*%
%TA.AperFunction,Conductor*%
%ADD26C,0.600000*%
%TD*%
%TA.AperFunction,Conductor*%
%ADD27C,0.300000*%
%TD*%
%TA.AperFunction,Conductor*%
%ADD28C,0.500000*%
%TD*%
G04 APERTURE END LIST*
D10*
%TO.P,J4,1,Pin_1*%
%TO.N,PIN+*%
X162300000Y-140950000D03*
D11*
%TO.P,J4,2,Pin_2*%
%TO.N,PIN-*%
X149600000Y-140950000D03*
%TD*%
D12*
%TO.P,JP1,1,A*%
%TO.N,/BOOT0*%
X172200000Y-103400000D03*
D13*
%TO.P,JP1,2,B*%
%TO.N,+3.3V*%
X169660000Y-103400000D03*
%TD*%
D14*
%TO.P,RV1,1,1*%
%TO.N,+3.3V*%
X158350000Y-88200000D03*
%TO.P,RV1,2,2*%
%TO.N,SELECTION*%
X155810000Y-88200000D03*
%TO.P,RV1,3,3*%
%TO.N,Net-(R10-Pad2)*%
X153270000Y-88200000D03*
%TD*%
D10*
%TO.P,R12,1*%
%TO.N,PIN+*%
X162300000Y-132200000D03*
D11*
%TO.P,R12,2*%
%TO.N,PIN-*%
X149600000Y-132200000D03*
%TD*%
D15*
%TO.P,Q2,1,G*%
%TO.N,Net-(Q2-Pad1)*%
X144037258Y-137755000D03*
D16*
%TO.P,Q2,2,D*%
%TO.N,PIN-*%
X141497258Y-137755000D03*
%TO.P,Q2,3,S*%
%TO.N,GND*%
X138957258Y-137755000D03*
%TD*%
D15*
%TO.P,Q1,1,G*%
%TO.N,Net-(Q1-Pad1)*%
X141260000Y-118145000D03*
D16*
%TO.P,Q1,2,D*%
%TO.N,Net-(D1-Pad1)*%
X143800000Y-118145000D03*
%TO.P,Q1,3,S*%
%TO.N,GND*%
X146340000Y-118145000D03*
%TD*%
D12*
%TO.P,J3,1,Pin_1*%
%TO.N,+3.3V*%
X136300000Y-102700000D03*
D13*
%TO.P,J3,2,Pin_2*%
%TO.N,GND*%
X136300000Y-105240000D03*
%TO.P,J3,3,Pin_3*%
%TO.N,SWCLK*%
X136300000Y-107780000D03*
%TO.P,J3,4,Pin_4*%
%TO.N,SWDIO*%
X136300000Y-110320000D03*
%TD*%
D17*
%TO.P,J2,S1,SHELL_GND*%
%TO.N,GND*%
X159120000Y-64130000D03*
D18*
X159120000Y-59960000D03*
D17*
X150480000Y-64130000D03*
D18*
X150480000Y-59960000D03*
%TD*%
D12*
%TO.P,J1,1,Pin_1*%
%TO.N,GND*%
X134300000Y-76660000D03*
D13*
%TO.P,J1,2,Pin_2*%
%TO.N,Net-(F2-Pad1)*%
X134300000Y-79200000D03*
%TD*%
D19*
%TO.P,D9,1,K*%
%TO.N,GND*%
X169892500Y-110020000D03*
D20*
%TO.P,D9,2,A*%
%TO.N,Net-(D9-Pad2)*%
X172432500Y-110020000D03*
%TD*%
D19*
%TO.P,D8,1,K*%
%TO.N,GND*%
X169800000Y-117200000D03*
D20*
%TO.P,D8,2,A*%
%TO.N,Net-(D8-Pad2)*%
X172340000Y-117200000D03*
%TD*%
%TO.P,D7,2,A*%
%TO.N,Net-(D7-Pad2)*%
X172260000Y-124400000D03*
D19*
%TO.P,D7,1,K*%
%TO.N,GND*%
X169720000Y-124400000D03*
%TD*%
%TO.P,D5,1,K*%
%TO.N,Net-(D5-Pad1)*%
X143025000Y-63200000D03*
D20*
%TO.P,D5,2,A*%
%TO.N,+3.3V*%
X145565000Y-63200000D03*
%TD*%
D19*
%TO.P,D3,1,K*%
%TO.N,Net-(D3-Pad1)*%
X160260000Y-76200000D03*
D20*
%TO.P,D3,2,A*%
%TO.N,Net-(D3-Pad2)*%
X162800000Y-76200000D03*
%TD*%
D19*
%TO.P,D2,1,K*%
%TO.N,Net-(D2-Pad1)*%
X171025000Y-76200000D03*
D20*
%TO.P,D2,2,A*%
%TO.N,Net-(D2-Pad2)*%
X173565000Y-76200000D03*
%TD*%
D21*
%TO.P,C3,1*%
%TO.N,Net-(C3-Pad1)*%
X165682323Y-136700000D03*
D22*
%TO.P,C3,2*%
%TO.N,GND*%
X173182323Y-136700000D03*
%TD*%
D23*
%TO.N,GND*%
X149400000Y-108800000D03*
X156000000Y-121800000D03*
X156000000Y-117600000D03*
X137600000Y-128800000D03*
X137600000Y-127600000D03*
X137600000Y-126400000D03*
X141000000Y-128800000D03*
X141000000Y-127600000D03*
X141000000Y-126400000D03*
X173004988Y-81044444D03*
X161400000Y-91400000D03*
X161200000Y-64200000D03*
X154800000Y-61600000D03*
X146600000Y-84400000D03*
X153200000Y-86000000D03*
X155000000Y-92200000D03*
X152800000Y-91200000D03*
X156400000Y-95800000D03*
X134200000Y-124000000D03*
X134200000Y-120000000D03*
X134400000Y-116800000D03*
X176800000Y-124600000D03*
X177000000Y-117600000D03*
X177000000Y-110000000D03*
X171400000Y-86800000D03*
X169000000Y-80800000D03*
X166600000Y-71600000D03*
X152800000Y-76600000D03*
X148200000Y-71200000D03*
X140800000Y-82400000D03*
X175000000Y-130400000D03*
X157000000Y-90800000D03*
X156400000Y-86000000D03*
X163400000Y-101600000D03*
X167200000Y-100600000D03*
X170000000Y-96400000D03*
%TO.N,SELECTION*%
X153400000Y-95600000D03*
%TO.N,GND*%
X151600000Y-105200000D03*
X158200000Y-69000000D03*
X155400000Y-69000000D03*
X155400000Y-71600000D03*
%TO.N,USB_D-*%
X157000000Y-69000000D03*
%TO.N,USB_D+*%
X154200000Y-69000000D03*
X154600000Y-72200000D03*
%TO.N,GND*%
X157400000Y-72000000D03*
%TO.N,USB_D-*%
X156600000Y-73600000D03*
%TO.N,GND*%
X156000000Y-82200000D03*
X150600000Y-82400000D03*
%TO.N,USB_D+*%
X153200000Y-83000000D03*
%TO.N,USB_D-*%
X155400000Y-81400000D03*
%TO.N,USB_D+*%
X154000000Y-104400000D03*
%TO.N,USB_D-*%
X152400000Y-104400000D03*
%TO.N,GND*%
X150600000Y-97600000D03*
X149400000Y-93200000D03*
X141400000Y-132000000D03*
%TO.N,FREQ_CTRL*%
X141000000Y-133400000D03*
X145800000Y-113400000D03*
%TO.N,GND*%
X146000000Y-108200000D03*
X143000000Y-106800000D03*
%TO.N,FREQ_CTRL*%
X146400000Y-109400000D03*
%TO.N,AMP_CTRL*%
X143600000Y-108600000D03*
%TO.N,GND*%
X148800000Y-100800000D03*
X151100500Y-98800000D03*
%TO.N,FREQ_CTRL*%
X150000000Y-100000000D03*
%TO.N,AMP_CTRL*%
X149000000Y-101800000D03*
%TO.N,GND*%
X139400000Y-112600000D03*
%TO.N,SWCLK*%
X139800000Y-111600000D03*
%TO.N,GND*%
X157800000Y-112000000D03*
%TO.N,SWCLK*%
X156600000Y-112000000D03*
%TO.N,GND*%
X155000000Y-107600000D03*
%TO.N,SWDIO*%
X155000000Y-106400000D03*
%TO.N,GND*%
X156400000Y-104400000D03*
X154200000Y-103400000D03*
X164200000Y-86800000D03*
%TO.N,PIN_BOT*%
X165059681Y-86079292D03*
X154400000Y-102400000D03*
%TO.N,GND*%
X162600000Y-109600000D03*
%TO.N,/BOOT0*%
X163600000Y-110200000D03*
%TO.N,+3.3V*%
X146200000Y-72400000D03*
X148600000Y-80600000D03*
%TO.N,VCC*%
X151000000Y-71200000D03*
%TO.N,GND*%
X173800000Y-66000000D03*
%TO.N,VCC*%
X172800000Y-66000000D03*
%TO.N,GND*%
X146000000Y-67800000D03*
X152000000Y-71200000D03*
%TO.N,VCC*%
X146400000Y-69200000D03*
%TO.N,+BATT*%
X142600000Y-82200000D03*
X142200000Y-94400000D03*
%TO.N,RESET*%
X167800000Y-91600000D03*
X156200000Y-103400000D03*
%TO.N,Net-(F1-Pad1)*%
X157414123Y-66223139D03*
X151600000Y-66200000D03*
%TD*%
D24*
%TO.N,USB_D+*%
X154400000Y-91400000D02*
X154400000Y-84200000D01*
X152600000Y-103000000D02*
X152600000Y-93200000D01*
X154000000Y-104400000D02*
X152600000Y-103000000D01*
X152600000Y-93200000D02*
X154400000Y-91400000D01*
X154400000Y-84200000D02*
X153200000Y-83000000D01*
D25*
%TO.N,SELECTION*%
X155810000Y-93190000D02*
X155810000Y-88200000D01*
X153400000Y-95600000D02*
X155810000Y-93190000D01*
D24*
%TO.N,USB_D-*%
X156600000Y-69400000D02*
X157000000Y-69000000D01*
X156600000Y-73600000D02*
X156600000Y-69400000D01*
%TO.N,USB_D+*%
X154600000Y-69400000D02*
X154200000Y-69000000D01*
X154600000Y-72200000D02*
X154600000Y-69400000D01*
%TO.N,USB_D-*%
X152799294Y-81400000D02*
X151800000Y-82399294D01*
X155400000Y-81400000D02*
X152799294Y-81400000D01*
X151800000Y-82399294D02*
X151800000Y-103800000D01*
X151800000Y-103800000D02*
X152400000Y-104400000D01*
D26*
%TO.N,VCC*%
X146400000Y-69000000D02*
X146400000Y-69200000D01*
X147600000Y-67800000D02*
X146400000Y-69000000D01*
X171000000Y-67800000D02*
X147600000Y-67800000D01*
X172800000Y-66000000D02*
X171000000Y-67800000D01*
%TO.N,+3.3V*%
X149600000Y-79600000D02*
X148600000Y-80600000D01*
X158350000Y-81550000D02*
X156400000Y-79600000D01*
X158350000Y-88200000D02*
X158350000Y-81550000D01*
X156400000Y-79600000D02*
X149600000Y-79600000D01*
D27*
%TO.N,SWDIO*%
X151080000Y-110320000D02*
X136300000Y-110320000D01*
X155000000Y-106400000D02*
X151080000Y-110320000D01*
D28*
%TO.N,FREQ_CTRL*%
X139000000Y-131400000D02*
X141000000Y-133400000D01*
X139000000Y-116800000D02*
X139000000Y-131400000D01*
X145800000Y-113400000D02*
X142400000Y-113400000D01*
X142400000Y-113400000D02*
X139000000Y-116800000D01*
%TO.N,AMP_CTRL*%
X147800000Y-103000000D02*
X149000000Y-101800000D01*
X147800000Y-104400000D02*
X147800000Y-103000000D01*
X143600000Y-108600000D02*
X147800000Y-104400000D01*
%TO.N,FREQ_CTRL*%
X150000000Y-105800000D02*
X146400000Y-109400000D01*
X150000000Y-100000000D02*
X150000000Y-105800000D01*
D27*
%TO.N,SWCLK*%
X140200000Y-112000000D02*
X139800000Y-111600000D01*
X156600000Y-112000000D02*
X140200000Y-112000000D01*
%TO.N,PIN_BOT*%
X165000000Y-86138973D02*
X165059681Y-86079292D01*
X165000000Y-91800000D02*
X165000000Y-86138973D01*
X154400000Y-102400000D02*
X165000000Y-91800000D01*
%TO.N,RESET*%
X167800000Y-91800000D02*
X156200000Y-103400000D01*
X167800000Y-91600000D02*
X167800000Y-91800000D01*
%TO.N,/BOOT0*%
X165400000Y-110200000D02*
X172200000Y-103400000D01*
X163600000Y-110200000D02*
X165400000Y-110200000D01*
D26*
%TO.N,+3.3V*%
X145565000Y-64835000D02*
X145565000Y-63200000D01*
X144800000Y-65600000D02*
X145565000Y-64835000D01*
X144800000Y-71000000D02*
X144800000Y-65600000D01*
X146200000Y-72400000D02*
X144800000Y-71000000D01*
%TO.N,VCC*%
X147000000Y-69800000D02*
X149600000Y-69800000D01*
X146400000Y-69200000D02*
X147000000Y-69800000D01*
X151000000Y-71200000D02*
X149600000Y-69800000D01*
%TO.N,+BATT*%
X142200000Y-82600000D02*
X142600000Y-82200000D01*
X142200000Y-94400000D02*
X142200000Y-82600000D01*
D28*
%TO.N,Net-(F1-Pad1)*%
X152200000Y-66800000D02*
X156837262Y-66800000D01*
X156837262Y-66800000D02*
X157414123Y-66223139D01*
X151600000Y-66200000D02*
X152200000Y-66800000D01*
%TD*%
%TA.AperFunction,Conductor*%
%TO.N,GND*%
G36*
X172270018Y-57710000D02*
G01*
X172284852Y-57712310D01*
X172284855Y-57712310D01*
X172293724Y-57713691D01*
X172302627Y-57712527D01*
X172302629Y-57712527D01*
X172315879Y-57710795D01*
X172336709Y-57709812D01*
X172794275Y-57726154D01*
X172803246Y-57726796D01*
X173290518Y-57779182D01*
X173299422Y-57780462D01*
X173540572Y-57823970D01*
X173781725Y-57867480D01*
X173790509Y-57869391D01*
X174265378Y-57990593D01*
X174273998Y-57993125D01*
X174739020Y-58147898D01*
X174747424Y-58151033D01*
X175051852Y-58277131D01*
X175200221Y-58338588D01*
X175208403Y-58342325D01*
X175646640Y-58561690D01*
X175654534Y-58566000D01*
X176076019Y-58816080D01*
X176083586Y-58820943D01*
X176486155Y-59100451D01*
X176493355Y-59105841D01*
X176874951Y-59413350D01*
X176881749Y-59419240D01*
X177240443Y-59753197D01*
X177246803Y-59759557D01*
X177580760Y-60118251D01*
X177586650Y-60125049D01*
X177894159Y-60506645D01*
X177899549Y-60513845D01*
X178179057Y-60916414D01*
X178183920Y-60923981D01*
X178434000Y-61345466D01*
X178438310Y-61353360D01*
X178657675Y-61791597D01*
X178661412Y-61799779D01*
X178680654Y-61846233D01*
X178826171Y-62197540D01*
X178848963Y-62252565D01*
X178852102Y-62260980D01*
X179006874Y-62725997D01*
X179009407Y-62734622D01*
X179112920Y-63140185D01*
X179130609Y-63209489D01*
X179132521Y-63218278D01*
X179219538Y-63700578D01*
X179220818Y-63709482D01*
X179273204Y-64196754D01*
X179273846Y-64205725D01*
X179289920Y-64655769D01*
X179288500Y-64679649D01*
X179287690Y-64684848D01*
X179287690Y-64684855D01*
X179286309Y-64693724D01*
X179287473Y-64702626D01*
X179287473Y-64702628D01*
X179290436Y-64725283D01*
X179291500Y-64741621D01*
X179291500Y-137150633D01*
X179290000Y-137170018D01*
X179286309Y-137193724D01*
X179287473Y-137202627D01*
X179287473Y-137202629D01*
X179289205Y-137215879D01*
X179290188Y-137236709D01*
X179273846Y-137694275D01*
X179273204Y-137703246D01*
X179220818Y-138190518D01*
X179219538Y-138199422D01*
X179132521Y-138681722D01*
X179130609Y-138690509D01*
X179016605Y-139137177D01*
X179009408Y-139165373D01*
X179006875Y-139173998D01*
X178852781Y-139636981D01*
X178852106Y-139639008D01*
X178848967Y-139647424D01*
X178780600Y-139812477D01*
X178661412Y-140100221D01*
X178657675Y-140108403D01*
X178438310Y-140546640D01*
X178434000Y-140554534D01*
X178183920Y-140976019D01*
X178179057Y-140983586D01*
X177899549Y-141386155D01*
X177894159Y-141393355D01*
X177586650Y-141774951D01*
X177580760Y-141781749D01*
X177246803Y-142140443D01*
X177240443Y-142146803D01*
X176881749Y-142480760D01*
X176874951Y-142486650D01*
X176493355Y-142794159D01*
X176486155Y-142799549D01*
X176083586Y-143079057D01*
X176076019Y-143083920D01*
X175654534Y-143334000D01*
X175646640Y-143338310D01*
X175208403Y-143557675D01*
X175200221Y-143561412D01*
X175051852Y-143622869D01*
X174747424Y-143748967D01*
X174739020Y-143752102D01*
X174273998Y-143906875D01*
X174265378Y-143909407D01*
X173790511Y-144030609D01*
X173781725Y-144032520D01*
X173703638Y-144046609D01*
X173299422Y-144119538D01*
X173290518Y-144120818D01*
X172803246Y-144173204D01*
X172794275Y-144173846D01*
X172344231Y-144189920D01*
X172320351Y-144188500D01*
X172315152Y-144187690D01*
X172315145Y-144187690D01*
X172306276Y-144186309D01*
X172297374Y-144187473D01*
X172297372Y-144187473D01*
X172284129Y-144189205D01*
X172274714Y-144190436D01*
X172258379Y-144191500D01*
X137349367Y-144191500D01*
X137329982Y-144190000D01*
X137315148Y-144187690D01*
X137315145Y-144187690D01*
X137306276Y-144186309D01*
X137297373Y-144187473D01*
X137297371Y-144187473D01*
X137284121Y-144189205D01*
X137263291Y-144190188D01*
X136805725Y-144173846D01*
X136796754Y-144173204D01*
X136309482Y-144120818D01*
X136300578Y-144119538D01*
X135896362Y-144046609D01*
X135818275Y-144032520D01*
X135809489Y-144030609D01*
X135334622Y-143909407D01*
X135326002Y-143906875D01*
X134860980Y-143752102D01*
X134852576Y-143748967D01*
X134548148Y-143622869D01*
X134399779Y-143561412D01*
X134391597Y-143557675D01*
X133953360Y-143338310D01*
X133945466Y-143334000D01*
X133523981Y-143083920D01*
X133516414Y-143079057D01*
X133113845Y-142799549D01*
X133106645Y-142794159D01*
X132725049Y-142486650D01*
X132718251Y-142480760D01*
X132359557Y-142146803D01*
X132353197Y-142140443D01*
X132019240Y-141781749D01*
X132013350Y-141774951D01*
X131705841Y-141393355D01*
X131700451Y-141386155D01*
X131420943Y-140983586D01*
X131416080Y-140976019D01*
X131400642Y-140950000D01*
X148286502Y-140950000D01*
X148306457Y-141178087D01*
X148307881Y-141183400D01*
X148307881Y-141183402D01*
X148356143Y-141363515D01*
X148365716Y-141399243D01*
X148368039Y-141404224D01*
X148368039Y-141404225D01*
X148460151Y-141601762D01*
X148460154Y-141601767D01*
X148462477Y-141606749D01*
X148465634Y-141611257D01*
X148585014Y-141781749D01*
X148593802Y-141794300D01*
X148755700Y-141956198D01*
X148760208Y-141959355D01*
X148760211Y-141959357D01*
X148838389Y-142014098D01*
X148943251Y-142087523D01*
X148948233Y-142089846D01*
X148948238Y-142089849D01*
X149070378Y-142146803D01*
X149150757Y-142184284D01*
X149156065Y-142185706D01*
X149156067Y-142185707D01*
X149366598Y-142242119D01*
X149366600Y-142242119D01*
X149371913Y-142243543D01*
X149600000Y-142263498D01*
X149828087Y-142243543D01*
X149833400Y-142242119D01*
X149833402Y-142242119D01*
X150043933Y-142185707D01*
X150043935Y-142185706D01*
X150049243Y-142184284D01*
X150129622Y-142146803D01*
X150251762Y-142089849D01*
X150251767Y-142089846D01*
X150256749Y-142087523D01*
X150361611Y-142014098D01*
X150439789Y-141959357D01*
X150439792Y-141959355D01*
X150444300Y-141956198D01*
X150606198Y-141794300D01*
X150614987Y-141781749D01*
X150734366Y-141611257D01*
X150737523Y-141606749D01*
X150739846Y-141601767D01*
X150739849Y-141601762D01*
X150831961Y-141404225D01*
X150831961Y-141404224D01*
X150834284Y-141399243D01*
X150843858Y-141363515D01*
X150892119Y-141183402D01*
X150892119Y-141183400D01*
X150893543Y-141178087D01*
X150913498Y-140950000D01*
X160986502Y-140950000D01*
X161006457Y-141178087D01*
X161007881Y-141183400D01*
X161007881Y-141183402D01*
X161056143Y-141363515D01*
X161065716Y-141399243D01*
X161068039Y-141404224D01*
X161068039Y-141404225D01*
X161160151Y-141601762D01*
X161160154Y-141601767D01*
X161162477Y-141606749D01*
X161165634Y-141611257D01*
X161285014Y-141781749D01*
X161293802Y-141794300D01*
X161455700Y-141956198D01*
X161460208Y-141959355D01*
X161460211Y-141959357D01*
X161538389Y-142014098D01*
X161643251Y-142087523D01*
X161648233Y-142089846D01*
X161648238Y-142089849D01*
X161770378Y-142146803D01*
X161850757Y-142184284D01*
X161856065Y-142185706D01*
X161856067Y-142185707D01*
X162066598Y-142242119D01*
X162066600Y-142242119D01*
X162071913Y-142243543D01*
X162300000Y-142263498D01*
X162528087Y-142243543D01*
X162533400Y-142242119D01*
X162533402Y-142242119D01*
X162743933Y-142185707D01*
X162743935Y-142185706D01*
X162749243Y-142184284D01*
X162829622Y-142146803D01*
X162951762Y-142089849D01*
X162951767Y-142089846D01*
X162956749Y-142087523D01*
X163061611Y-142014098D01*
X163139789Y-141959357D01*
X163139792Y-141959355D01*
X163144300Y-141956198D01*
X163306198Y-141794300D01*
X163314987Y-141781749D01*
X163434366Y-141611257D01*
X163437523Y-141606749D01*
X163439846Y-141601767D01*
X163439849Y-141601762D01*
X163531961Y-141404225D01*
X163531961Y-141404224D01*
X163534284Y-141399243D01*
X163543858Y-141363515D01*
X163592119Y-141183402D01*
X163592119Y-141183400D01*
X163593543Y-141178087D01*
X163613498Y-140950000D01*
X163593543Y-140721913D01*
X163547658Y-140550669D01*
X163535707Y-140506067D01*
X163535706Y-140506065D01*
X163534284Y-140500757D01*
X163483783Y-140392456D01*
X163439849Y-140298238D01*
X163439846Y-140298233D01*
X163437523Y-140293251D01*
X163306198Y-140105700D01*
X163144300Y-139943802D01*
X163139792Y-139940645D01*
X163139789Y-139940643D01*
X163058106Y-139883448D01*
X162956749Y-139812477D01*
X162951767Y-139810154D01*
X162951762Y-139810151D01*
X162754225Y-139718039D01*
X162754224Y-139718039D01*
X162749243Y-139715716D01*
X162743935Y-139714294D01*
X162743933Y-139714293D01*
X162533402Y-139657881D01*
X162533400Y-139657881D01*
X162528087Y-139656457D01*
X162300000Y-139636502D01*
X162071913Y-139656457D01*
X162066600Y-139657881D01*
X162066598Y-139657881D01*
X161856067Y-139714293D01*
X161856065Y-139714294D01*
X161850757Y-139715716D01*
X161845776Y-139718039D01*
X161845775Y-139718039D01*
X161648238Y-139810151D01*
X161648233Y-139810154D01*
X161643251Y-139812477D01*
X161541894Y-139883448D01*
X161460211Y-139940643D01*
X161460208Y-139940645D01*
X161455700Y-139943802D01*
X161293802Y-140105700D01*
X161162477Y-140293251D01*
X161160154Y-140298233D01*
X161160151Y-140298238D01*
X161116217Y-140392456D01*
X161065716Y-140500757D01*
X161064294Y-140506065D01*
X161064293Y-140506067D01*
X161052342Y-140550669D01*
X161006457Y-140721913D01*
X160986502Y-140950000D01*
X150913498Y-140950000D01*
X150893543Y-140721913D01*
X150847658Y-140550669D01*
X150835707Y-140506067D01*
X150835706Y-140506065D01*
X150834284Y-140500757D01*
X150783783Y-140392456D01*
X150739849Y-140298238D01*
X150739846Y-140298233D01*
X150737523Y-140293251D01*
X150606198Y-140105700D01*
X150444300Y-139943802D01*
X150439792Y-139940645D01*
X150439789Y-139940643D01*
X150358106Y-139883448D01*
X150256749Y-139812477D01*
X150251767Y-139810154D01*
X150251762Y-139810151D01*
X150054225Y-139718039D01*
X150054224Y-139718039D01*
X150049243Y-139715716D01*
X150043935Y-139714294D01*
X150043933Y-139714293D01*
X149833402Y-139657881D01*
X149833400Y-139657881D01*
X149828087Y-139656457D01*
X149600000Y-139636502D01*
X149371913Y-139656457D01*
X149366600Y-139657881D01*
X149366598Y-139657881D01*
X149156067Y-139714293D01*
X149156065Y-139714294D01*
X149150757Y-139715716D01*
X149145776Y-139718039D01*
X149145775Y-139718039D01*
X148948238Y-139810151D01*
X148948233Y-139810154D01*
X148943251Y-139812477D01*
X148841894Y-139883448D01*
X148760211Y-139940643D01*
X148760208Y-139940645D01*
X148755700Y-139943802D01*
X148593802Y-140105700D01*
X148462477Y-140293251D01*
X148460154Y-140298233D01*
X148460151Y-140298238D01*
X148416217Y-140392456D01*
X148365716Y-140500757D01*
X148364294Y-140506065D01*
X148364293Y-140506067D01*
X148352342Y-140550669D01*
X148306457Y-140721913D01*
X148286502Y-140950000D01*
X131400642Y-140950000D01*
X131166000Y-140554534D01*
X131161690Y-140546640D01*
X130942325Y-140108403D01*
X130938588Y-140100221D01*
X130819400Y-139812477D01*
X130751033Y-139647424D01*
X130747894Y-139639008D01*
X130747220Y-139636981D01*
X130593125Y-139173998D01*
X130590592Y-139165373D01*
X130583396Y-139137177D01*
X130469391Y-138690509D01*
X130467479Y-138681722D01*
X130380462Y-138199422D01*
X130379182Y-138190518D01*
X130344014Y-137863402D01*
X140036258Y-137863402D01*
X140050936Y-138041937D01*
X140109464Y-138274944D01*
X140205261Y-138495263D01*
X140290143Y-138626470D01*
X140328752Y-138686150D01*
X140335756Y-138696977D01*
X140497444Y-138874670D01*
X140527969Y-138898777D01*
X140681928Y-139020367D01*
X140681933Y-139020370D01*
X140685982Y-139023568D01*
X140690498Y-139026061D01*
X140690501Y-139026063D01*
X140891784Y-139137177D01*
X140891788Y-139137179D01*
X140896308Y-139139674D01*
X140901177Y-139141398D01*
X140901181Y-139141400D01*
X141117898Y-139218144D01*
X141117902Y-139218145D01*
X141122773Y-139219870D01*
X141127866Y-139220777D01*
X141127869Y-139220778D01*
X141354206Y-139261095D01*
X141354212Y-139261096D01*
X141359295Y-139262001D01*
X141446658Y-139263068D01*
X141594351Y-139264873D01*
X141594353Y-139264873D01*
X141599521Y-139264936D01*
X141837002Y-139228596D01*
X141949255Y-139191906D01*
X142060441Y-139155566D01*
X142060447Y-139155563D01*
X142065359Y-139153958D01*
X142069945Y-139151571D01*
X142069949Y-139151569D01*
X142273865Y-139045416D01*
X142278458Y-139043025D01*
X142433541Y-138926585D01*
X142500023Y-138901680D01*
X142569419Y-138916672D01*
X142619693Y-138966802D01*
X142627173Y-138983115D01*
X142630989Y-138993293D01*
X142634143Y-139001705D01*
X142721497Y-139118261D01*
X142838053Y-139205615D01*
X142974442Y-139256745D01*
X143036624Y-139263500D01*
X145037892Y-139263500D01*
X145100074Y-139256745D01*
X145236463Y-139205615D01*
X145353019Y-139118261D01*
X145440373Y-139001705D01*
X145491503Y-138865316D01*
X145498258Y-138803134D01*
X145498258Y-137748134D01*
X164173823Y-137748134D01*
X164180578Y-137810316D01*
X164231708Y-137946705D01*
X164319062Y-138063261D01*
X164435618Y-138150615D01*
X164572007Y-138201745D01*
X164634189Y-138208500D01*
X166730457Y-138208500D01*
X166792639Y-138201745D01*
X166929028Y-138150615D01*
X167045584Y-138063261D01*
X167132938Y-137946705D01*
X167184068Y-137810316D01*
X167190823Y-137748134D01*
X167190823Y-135651866D01*
X167184068Y-135589684D01*
X167132938Y-135453295D01*
X167045584Y-135336739D01*
X166929028Y-135249385D01*
X166792639Y-135198255D01*
X166730457Y-135191500D01*
X164634189Y-135191500D01*
X164572007Y-135198255D01*
X164435618Y-135249385D01*
X164319062Y-135336739D01*
X164231708Y-135453295D01*
X164180578Y-135589684D01*
X164173823Y-135651866D01*
X164173823Y-137748134D01*
X145498258Y-137748134D01*
X145498258Y-136706866D01*
X145491503Y-136644684D01*
X145440373Y-136508295D01*
X145353019Y-136391739D01*
X145236463Y-136304385D01*
X145100074Y-136253255D01*
X145037892Y-136246500D01*
X143036624Y-136246500D01*
X142974442Y-136253255D01*
X142838053Y-136304385D01*
X142721497Y-136391739D01*
X142634143Y-136508295D01*
X142626685Y-136528189D01*
X142584045Y-136584953D01*
X142517484Y-136609654D01*
X142448135Y-136594447D01*
X142430611Y-136582842D01*
X142312588Y-136489633D01*
X142312583Y-136489630D01*
X142308534Y-136486432D01*
X142304018Y-136483939D01*
X142304015Y-136483937D01*
X142102732Y-136372823D01*
X142102728Y-136372821D01*
X142098208Y-136370326D01*
X142093339Y-136368602D01*
X142093335Y-136368600D01*
X141876618Y-136291856D01*
X141876614Y-136291855D01*
X141871743Y-136290130D01*
X141866650Y-136289223D01*
X141866647Y-136289222D01*
X141640310Y-136248905D01*
X141640304Y-136248904D01*
X141635221Y-136247999D01*
X141542732Y-136246869D01*
X141400165Y-136245127D01*
X141400163Y-136245127D01*
X141394995Y-136245064D01*
X141157514Y-136281404D01*
X141045261Y-136318094D01*
X140934075Y-136354434D01*
X140934069Y-136354437D01*
X140929157Y-136356042D01*
X140924571Y-136358429D01*
X140924567Y-136358431D01*
X140720651Y-136464584D01*
X140716058Y-136466975D01*
X140523938Y-136611223D01*
X140357957Y-136784912D01*
X140222572Y-136983378D01*
X140220398Y-136988061D01*
X140220396Y-136988065D01*
X140123600Y-137196595D01*
X140121421Y-137201290D01*
X140057218Y-137432798D01*
X140036258Y-137628928D01*
X140036258Y-137863402D01*
X130344014Y-137863402D01*
X130326796Y-137703246D01*
X130326154Y-137694275D01*
X130310216Y-137248025D01*
X130311881Y-137222632D01*
X130312768Y-137217355D01*
X130313576Y-137212552D01*
X130313729Y-137200000D01*
X130309773Y-137172376D01*
X130308500Y-137154514D01*
X130308500Y-110286695D01*
X134937251Y-110286695D01*
X134937548Y-110291848D01*
X134937548Y-110291851D01*
X134939380Y-110323617D01*
X134950110Y-110509715D01*
X134951247Y-110514761D01*
X134951248Y-110514767D01*
X134965336Y-110577279D01*
X134999222Y-110727639D01*
X135052133Y-110857945D01*
X135076612Y-110918228D01*
X135083266Y-110934616D01*
X135101196Y-110963875D01*
X135155296Y-111052158D01*
X135199987Y-111125088D01*
X135346250Y-111293938D01*
X135475154Y-111400956D01*
X135512393Y-111431872D01*
X135518126Y-111436632D01*
X135711000Y-111549338D01*
X135919692Y-111629030D01*
X135924760Y-111630061D01*
X135924763Y-111630062D01*
X136032017Y-111651883D01*
X136138597Y-111673567D01*
X136143772Y-111673757D01*
X136143774Y-111673757D01*
X136356673Y-111681564D01*
X136356677Y-111681564D01*
X136361837Y-111681753D01*
X136366957Y-111681097D01*
X136366959Y-111681097D01*
X136578288Y-111654025D01*
X136578289Y-111654025D01*
X136583416Y-111653368D01*
X136645543Y-111634729D01*
X136792429Y-111590661D01*
X136792434Y-111590659D01*
X136797384Y-111589174D01*
X136997994Y-111490896D01*
X137179860Y-111361173D01*
X137203748Y-111337369D01*
X137305208Y-111236262D01*
X137338096Y-111203489D01*
X137358981Y-111174425D01*
X137462060Y-111030974D01*
X137518055Y-110987326D01*
X137564383Y-110978500D01*
X138891540Y-110978500D01*
X138959661Y-110998502D01*
X139006154Y-111052158D01*
X139016258Y-111122432D01*
X139000659Y-111167500D01*
X138977775Y-111207137D01*
X138965473Y-111228444D01*
X138906458Y-111410072D01*
X138905768Y-111416633D01*
X138905768Y-111416635D01*
X138904167Y-111431872D01*
X138886496Y-111600000D01*
X138887186Y-111606565D01*
X138895020Y-111681097D01*
X138906458Y-111789928D01*
X138965473Y-111971556D01*
X139060960Y-112136944D01*
X139065378Y-112141851D01*
X139065379Y-112141852D01*
X139108667Y-112189928D01*
X139188747Y-112278866D01*
X139343248Y-112391118D01*
X139349276Y-112393802D01*
X139349278Y-112393803D01*
X139511681Y-112466109D01*
X139517712Y-112468794D01*
X139611113Y-112488647D01*
X139698056Y-112507128D01*
X139698061Y-112507128D01*
X139704513Y-112508500D01*
X139731429Y-112508500D01*
X139805005Y-112532406D01*
X139809867Y-112536972D01*
X139816809Y-112540788D01*
X139816814Y-112540792D01*
X139828655Y-112547301D01*
X139845184Y-112558158D01*
X139855869Y-112566447D01*
X139855871Y-112566448D01*
X139862131Y-112571304D01*
X139904544Y-112589657D01*
X139915181Y-112594868D01*
X139955663Y-112617124D01*
X139963342Y-112619096D01*
X139963343Y-112619096D01*
X139976434Y-112622457D01*
X139995136Y-112628859D01*
X140014823Y-112637379D01*
X140022652Y-112638619D01*
X140060448Y-112644605D01*
X140072074Y-112647013D01*
X140109135Y-112656529D01*
X140109136Y-112656529D01*
X140116812Y-112658500D01*
X140138258Y-112658500D01*
X140157968Y-112660051D01*
X140179151Y-112663406D01*
X140225135Y-112659059D01*
X140236994Y-112658500D01*
X141764629Y-112658500D01*
X141832750Y-112678502D01*
X141879243Y-112732158D01*
X141889347Y-112802432D01*
X141859853Y-112867012D01*
X141853724Y-112873595D01*
X138511089Y-116216230D01*
X138496677Y-116228616D01*
X138485082Y-116237149D01*
X138485077Y-116237154D01*
X138479182Y-116241492D01*
X138474443Y-116247070D01*
X138474440Y-116247073D01*
X138444965Y-116281768D01*
X138438035Y-116289284D01*
X138432340Y-116294979D01*
X138430060Y-116297861D01*
X138414719Y-116317251D01*
X138411928Y-116320655D01*
X138369409Y-116370703D01*
X138364667Y-116376285D01*
X138361339Y-116382801D01*
X138357972Y-116387850D01*
X138354805Y-116392979D01*
X138350266Y-116398716D01*
X138319345Y-116464875D01*
X138317442Y-116468769D01*
X138284231Y-116533808D01*
X138282492Y-116540916D01*
X138280393Y-116546559D01*
X138278476Y-116552322D01*
X138275378Y-116558950D01*
X138273888Y-116566112D01*
X138273888Y-116566113D01*
X138260514Y-116630412D01*
X138259544Y-116634696D01*
X138242192Y-116705610D01*
X138241500Y-116716764D01*
X138241464Y-116716762D01*
X138241225Y-116720755D01*
X138240851Y-116724947D01*
X138239360Y-116732115D01*
X138240123Y-116760326D01*
X138241454Y-116809521D01*
X138241500Y-116812928D01*
X138241500Y-131332930D01*
X138240067Y-131351880D01*
X138238800Y-131360211D01*
X138236801Y-131373349D01*
X138237394Y-131380641D01*
X138237394Y-131380644D01*
X138241085Y-131426018D01*
X138241500Y-131436233D01*
X138241500Y-131444293D01*
X138241925Y-131447937D01*
X138244789Y-131472507D01*
X138245222Y-131476882D01*
X138251140Y-131549637D01*
X138253396Y-131556601D01*
X138254587Y-131562560D01*
X138255971Y-131568415D01*
X138256818Y-131575681D01*
X138281735Y-131644327D01*
X138283152Y-131648455D01*
X138305649Y-131717899D01*
X138309445Y-131724154D01*
X138311951Y-131729628D01*
X138314670Y-131735058D01*
X138317167Y-131741937D01*
X138321180Y-131748057D01*
X138321180Y-131748058D01*
X138357186Y-131802976D01*
X138359523Y-131806680D01*
X138397405Y-131869107D01*
X138401121Y-131873315D01*
X138401122Y-131873316D01*
X138404803Y-131877484D01*
X138404776Y-131877508D01*
X138407429Y-131880500D01*
X138410132Y-131883733D01*
X138414144Y-131889852D01*
X138419456Y-131894884D01*
X138470383Y-131943128D01*
X138472825Y-131945506D01*
X140079875Y-133552556D01*
X140110613Y-133602714D01*
X140165473Y-133771556D01*
X140260960Y-133936944D01*
X140388747Y-134078866D01*
X140543248Y-134191118D01*
X140549276Y-134193802D01*
X140549278Y-134193803D01*
X140711681Y-134266109D01*
X140717712Y-134268794D01*
X140811112Y-134288647D01*
X140898056Y-134307128D01*
X140898061Y-134307128D01*
X140904513Y-134308500D01*
X141095487Y-134308500D01*
X141101939Y-134307128D01*
X141101944Y-134307128D01*
X141188888Y-134288647D01*
X141282288Y-134268794D01*
X141288319Y-134266109D01*
X141450722Y-134193803D01*
X141450724Y-134193802D01*
X141456752Y-134191118D01*
X141611253Y-134078866D01*
X141739040Y-133936944D01*
X141834527Y-133771556D01*
X141893542Y-133589928D01*
X141913504Y-133400000D01*
X141907182Y-133339849D01*
X141894232Y-133216635D01*
X141894232Y-133216633D01*
X141893542Y-133210072D01*
X141834527Y-133028444D01*
X141739040Y-132863056D01*
X141611253Y-132721134D01*
X141456752Y-132608882D01*
X141450724Y-132606198D01*
X141450722Y-132606197D01*
X141288319Y-132533891D01*
X141288318Y-132533891D01*
X141282288Y-132531206D01*
X141275833Y-132529834D01*
X141275824Y-132529831D01*
X141219228Y-132517801D01*
X141156331Y-132483650D01*
X140872681Y-132200000D01*
X148286502Y-132200000D01*
X148306457Y-132428087D01*
X148365716Y-132649243D01*
X148368039Y-132654224D01*
X148368039Y-132654225D01*
X148460151Y-132851762D01*
X148460154Y-132851767D01*
X148462477Y-132856749D01*
X148593802Y-133044300D01*
X148755700Y-133206198D01*
X148760208Y-133209355D01*
X148760211Y-133209357D01*
X148838389Y-133264098D01*
X148943251Y-133337523D01*
X148948233Y-133339846D01*
X148948238Y-133339849D01*
X149063155Y-133393435D01*
X149150757Y-133434284D01*
X149156065Y-133435706D01*
X149156067Y-133435707D01*
X149366598Y-133492119D01*
X149366600Y-133492119D01*
X149371913Y-133493543D01*
X149600000Y-133513498D01*
X149828087Y-133493543D01*
X149833400Y-133492119D01*
X149833402Y-133492119D01*
X150043933Y-133435707D01*
X150043935Y-133435706D01*
X150049243Y-133434284D01*
X150136845Y-133393435D01*
X150251762Y-133339849D01*
X150251767Y-133339846D01*
X150256749Y-133337523D01*
X150361611Y-133264098D01*
X150439789Y-133209357D01*
X150439792Y-133209355D01*
X150444300Y-133206198D01*
X150606198Y-133044300D01*
X150737523Y-132856749D01*
X150739846Y-132851767D01*
X150739849Y-132851762D01*
X150831961Y-132654225D01*
X150831961Y-132654224D01*
X150834284Y-132649243D01*
X150893543Y-132428087D01*
X150913498Y-132200000D01*
X160986502Y-132200000D01*
X161006457Y-132428087D01*
X161065716Y-132649243D01*
X161068039Y-132654224D01*
X161068039Y-132654225D01*
X161160151Y-132851762D01*
X161160154Y-132851767D01*
X161162477Y-132856749D01*
X161293802Y-133044300D01*
X161455700Y-133206198D01*
X161460208Y-133209355D01*
X161460211Y-133209357D01*
X161538389Y-133264098D01*
X161643251Y-133337523D01*
X161648233Y-133339846D01*
X161648238Y-133339849D01*
X161763155Y-133393435D01*
X161850757Y-133434284D01*
X161856065Y-133435706D01*
X161856067Y-133435707D01*
X162066598Y-133492119D01*
X162066600Y-133492119D01*
X162071913Y-133493543D01*
X162300000Y-133513498D01*
X162528087Y-133493543D01*
X162533400Y-133492119D01*
X162533402Y-133492119D01*
X162743933Y-133435707D01*
X162743935Y-133435706D01*
X162749243Y-133434284D01*
X162836845Y-133393435D01*
X162951762Y-133339849D01*
X162951767Y-133339846D01*
X162956749Y-133337523D01*
X163061611Y-133264098D01*
X163139789Y-133209357D01*
X163139792Y-133209355D01*
X163144300Y-133206198D01*
X163306198Y-133044300D01*
X163437523Y-132856749D01*
X163439846Y-132851767D01*
X163439849Y-132851762D01*
X163531961Y-132654225D01*
X163531961Y-132654224D01*
X163534284Y-132649243D01*
X163593543Y-132428087D01*
X163613498Y-132200000D01*
X163593543Y-131971913D01*
X163586467Y-131945506D01*
X163535707Y-131756067D01*
X163535706Y-131756065D01*
X163534284Y-131750757D01*
X163530171Y-131741937D01*
X163439849Y-131548238D01*
X163439846Y-131548233D01*
X163437523Y-131543251D01*
X163306198Y-131355700D01*
X163144300Y-131193802D01*
X163139792Y-131190645D01*
X163139789Y-131190643D01*
X163042790Y-131122724D01*
X162956749Y-131062477D01*
X162951767Y-131060154D01*
X162951762Y-131060151D01*
X162754225Y-130968039D01*
X162754224Y-130968039D01*
X162749243Y-130965716D01*
X162743935Y-130964294D01*
X162743933Y-130964293D01*
X162533402Y-130907881D01*
X162533400Y-130907881D01*
X162528087Y-130906457D01*
X162300000Y-130886502D01*
X162071913Y-130906457D01*
X162066600Y-130907881D01*
X162066598Y-130907881D01*
X161856067Y-130964293D01*
X161856065Y-130964294D01*
X161850757Y-130965716D01*
X161845776Y-130968039D01*
X161845775Y-130968039D01*
X161648238Y-131060151D01*
X161648233Y-131060154D01*
X161643251Y-131062477D01*
X161557210Y-131122724D01*
X161460211Y-131190643D01*
X161460208Y-131190645D01*
X161455700Y-131193802D01*
X161293802Y-131355700D01*
X161162477Y-131543251D01*
X161160154Y-131548233D01*
X161160151Y-131548238D01*
X161069829Y-131741937D01*
X161065716Y-131750757D01*
X161064294Y-131756065D01*
X161064293Y-131756067D01*
X161013533Y-131945506D01*
X161006457Y-131971913D01*
X160986502Y-132200000D01*
X150913498Y-132200000D01*
X150893543Y-131971913D01*
X150886467Y-131945506D01*
X150835707Y-131756067D01*
X150835706Y-131756065D01*
X150834284Y-131750757D01*
X150830171Y-131741937D01*
X150739849Y-131548238D01*
X150739846Y-131548233D01*
X150737523Y-131543251D01*
X150606198Y-131355700D01*
X150444300Y-131193802D01*
X150439792Y-131190645D01*
X150439789Y-131190643D01*
X150342790Y-131122724D01*
X150256749Y-131062477D01*
X150251767Y-131060154D01*
X150251762Y-131060151D01*
X150054225Y-130968039D01*
X150054224Y-130968039D01*
X150049243Y-130965716D01*
X150043935Y-130964294D01*
X150043933Y-130964293D01*
X149833402Y-130907881D01*
X149833400Y-130907881D01*
X149828087Y-130906457D01*
X149600000Y-130886502D01*
X149371913Y-130906457D01*
X149366600Y-130907881D01*
X149366598Y-130907881D01*
X149156067Y-130964293D01*
X149156065Y-130964294D01*
X149150757Y-130965716D01*
X149145776Y-130968039D01*
X149145775Y-130968039D01*
X148948238Y-131060151D01*
X148948233Y-131060154D01*
X148943251Y-131062477D01*
X148857210Y-131122724D01*
X148760211Y-131190643D01*
X148760208Y-131190645D01*
X148755700Y-131193802D01*
X148593802Y-131355700D01*
X148462477Y-131543251D01*
X148460154Y-131548233D01*
X148460151Y-131548238D01*
X148369829Y-131741937D01*
X148365716Y-131750757D01*
X148364294Y-131756065D01*
X148364293Y-131756067D01*
X148313533Y-131945506D01*
X148306457Y-131971913D01*
X148286502Y-132200000D01*
X140872681Y-132200000D01*
X139795405Y-131122724D01*
X139761379Y-131060412D01*
X139758500Y-131033629D01*
X139758500Y-124365469D01*
X170847095Y-124365469D01*
X170847392Y-124370622D01*
X170847392Y-124370625D01*
X170853067Y-124469041D01*
X170860427Y-124596697D01*
X170861564Y-124601743D01*
X170861565Y-124601749D01*
X170893741Y-124744523D01*
X170911346Y-124822642D01*
X170913288Y-124827424D01*
X170913289Y-124827428D01*
X170996540Y-125032450D01*
X170998484Y-125037237D01*
X171119501Y-125234719D01*
X171271147Y-125409784D01*
X171449349Y-125557730D01*
X171649322Y-125674584D01*
X171865694Y-125757209D01*
X171870760Y-125758240D01*
X171870761Y-125758240D01*
X171923846Y-125769040D01*
X172092656Y-125803385D01*
X172223324Y-125808176D01*
X172318949Y-125811683D01*
X172318953Y-125811683D01*
X172324113Y-125811872D01*
X172329233Y-125811216D01*
X172329235Y-125811216D01*
X172402270Y-125801860D01*
X172553847Y-125782442D01*
X172558795Y-125780957D01*
X172558802Y-125780956D01*
X172770747Y-125717369D01*
X172775690Y-125715886D01*
X172856236Y-125676427D01*
X172979049Y-125616262D01*
X172979052Y-125616260D01*
X172983684Y-125613991D01*
X173172243Y-125479494D01*
X173336303Y-125316005D01*
X173471458Y-125127917D01*
X173518641Y-125032450D01*
X173571784Y-124924922D01*
X173571785Y-124924920D01*
X173574078Y-124920280D01*
X173641408Y-124698671D01*
X173671640Y-124469041D01*
X173673327Y-124400000D01*
X173667032Y-124323434D01*
X173654773Y-124174318D01*
X173654772Y-124174312D01*
X173654349Y-124169167D01*
X173597925Y-123944533D01*
X173595866Y-123939797D01*
X173507630Y-123736868D01*
X173507628Y-123736865D01*
X173505570Y-123732131D01*
X173379764Y-123537665D01*
X173223887Y-123366358D01*
X173219836Y-123363159D01*
X173219832Y-123363155D01*
X173046177Y-123226011D01*
X173046172Y-123226008D01*
X173042123Y-123222810D01*
X173037607Y-123220317D01*
X173037604Y-123220315D01*
X172843879Y-123113373D01*
X172843875Y-123113371D01*
X172839355Y-123110876D01*
X172834486Y-123109152D01*
X172834482Y-123109150D01*
X172625903Y-123035288D01*
X172625899Y-123035287D01*
X172621028Y-123033562D01*
X172615935Y-123032655D01*
X172615932Y-123032654D01*
X172398095Y-122993851D01*
X172398089Y-122993850D01*
X172393006Y-122992945D01*
X172320096Y-122992054D01*
X172166581Y-122990179D01*
X172166579Y-122990179D01*
X172161411Y-122990116D01*
X171932464Y-123025150D01*
X171712314Y-123097106D01*
X171707726Y-123099494D01*
X171707722Y-123099496D01*
X171681065Y-123113373D01*
X171506872Y-123204052D01*
X171502739Y-123207155D01*
X171502736Y-123207157D01*
X171477625Y-123226011D01*
X171321655Y-123343117D01*
X171161639Y-123510564D01*
X171158725Y-123514836D01*
X171158724Y-123514837D01*
X171143152Y-123537665D01*
X171031119Y-123701899D01*
X170933602Y-123911981D01*
X170871707Y-124135169D01*
X170847095Y-124365469D01*
X139758500Y-124365469D01*
X139758500Y-119620948D01*
X139778502Y-119552827D01*
X139832158Y-119506334D01*
X139902432Y-119496230D01*
X139960065Y-119520122D01*
X140060795Y-119595615D01*
X140197184Y-119646745D01*
X140259366Y-119653500D01*
X142260634Y-119653500D01*
X142322816Y-119646745D01*
X142459205Y-119595615D01*
X142575761Y-119508261D01*
X142663115Y-119391705D01*
X142670573Y-119371811D01*
X142713213Y-119315047D01*
X142779774Y-119290346D01*
X142849123Y-119305553D01*
X142866647Y-119317158D01*
X142984670Y-119410367D01*
X142984675Y-119410370D01*
X142988724Y-119413568D01*
X142993240Y-119416061D01*
X142993243Y-119416063D01*
X143194526Y-119527177D01*
X143194530Y-119527179D01*
X143199050Y-119529674D01*
X143203919Y-119531398D01*
X143203923Y-119531400D01*
X143420640Y-119608144D01*
X143420644Y-119608145D01*
X143425515Y-119609870D01*
X143430608Y-119610777D01*
X143430611Y-119610778D01*
X143656948Y-119651095D01*
X143656954Y-119651096D01*
X143662037Y-119652001D01*
X143749400Y-119653068D01*
X143897093Y-119654873D01*
X143897095Y-119654873D01*
X143902263Y-119654936D01*
X144139744Y-119618596D01*
X144251997Y-119581906D01*
X144363183Y-119545566D01*
X144363189Y-119545563D01*
X144368101Y-119543958D01*
X144372687Y-119541571D01*
X144372691Y-119541569D01*
X144576607Y-119435416D01*
X144581200Y-119433025D01*
X144773320Y-119288777D01*
X144939301Y-119115088D01*
X145074686Y-118916622D01*
X145175837Y-118698710D01*
X145240040Y-118467202D01*
X145260100Y-118279494D01*
X145260644Y-118274407D01*
X145260644Y-118274399D01*
X145261000Y-118271072D01*
X145261000Y-118036598D01*
X145246322Y-117858063D01*
X145187794Y-117625056D01*
X145091997Y-117404737D01*
X144961502Y-117203023D01*
X144927331Y-117165469D01*
X170927095Y-117165469D01*
X170927392Y-117170622D01*
X170927392Y-117170625D01*
X170933067Y-117269041D01*
X170940427Y-117396697D01*
X170941564Y-117401743D01*
X170941565Y-117401749D01*
X170973741Y-117544523D01*
X170991346Y-117622642D01*
X170993288Y-117627424D01*
X170993289Y-117627428D01*
X171076540Y-117832450D01*
X171078484Y-117837237D01*
X171199501Y-118034719D01*
X171351147Y-118209784D01*
X171529349Y-118357730D01*
X171729322Y-118474584D01*
X171945694Y-118557209D01*
X171950760Y-118558240D01*
X171950761Y-118558240D01*
X172003846Y-118569040D01*
X172172656Y-118603385D01*
X172303324Y-118608176D01*
X172398949Y-118611683D01*
X172398953Y-118611683D01*
X172404113Y-118611872D01*
X172409233Y-118611216D01*
X172409235Y-118611216D01*
X172482270Y-118601860D01*
X172633847Y-118582442D01*
X172638795Y-118580957D01*
X172638802Y-118580956D01*
X172850747Y-118517369D01*
X172855690Y-118515886D01*
X172936236Y-118476427D01*
X173059049Y-118416262D01*
X173059052Y-118416260D01*
X173063684Y-118413991D01*
X173252243Y-118279494D01*
X173416303Y-118116005D01*
X173551458Y-117927917D01*
X173588463Y-117853044D01*
X173651784Y-117724922D01*
X173651785Y-117724920D01*
X173654078Y-117720280D01*
X173721408Y-117498671D01*
X173751640Y-117269041D01*
X173753327Y-117200000D01*
X173742709Y-117070855D01*
X173734773Y-116974318D01*
X173734772Y-116974312D01*
X173734349Y-116969167D01*
X173689074Y-116788919D01*
X173679184Y-116749544D01*
X173679183Y-116749540D01*
X173677925Y-116744533D01*
X173667586Y-116720755D01*
X173587630Y-116536868D01*
X173587628Y-116536865D01*
X173585570Y-116532131D01*
X173459764Y-116337665D01*
X173303887Y-116166358D01*
X173299836Y-116163159D01*
X173299832Y-116163155D01*
X173126177Y-116026011D01*
X173126172Y-116026008D01*
X173122123Y-116022810D01*
X173117607Y-116020317D01*
X173117604Y-116020315D01*
X172923879Y-115913373D01*
X172923875Y-115913371D01*
X172919355Y-115910876D01*
X172914486Y-115909152D01*
X172914482Y-115909150D01*
X172705903Y-115835288D01*
X172705899Y-115835287D01*
X172701028Y-115833562D01*
X172695935Y-115832655D01*
X172695932Y-115832654D01*
X172478095Y-115793851D01*
X172478089Y-115793850D01*
X172473006Y-115792945D01*
X172400096Y-115792054D01*
X172246581Y-115790179D01*
X172246579Y-115790179D01*
X172241411Y-115790116D01*
X172012464Y-115825150D01*
X171792314Y-115897106D01*
X171787726Y-115899494D01*
X171787722Y-115899496D01*
X171761065Y-115913373D01*
X171586872Y-116004052D01*
X171582739Y-116007155D01*
X171582736Y-116007157D01*
X171557625Y-116026011D01*
X171401655Y-116143117D01*
X171241639Y-116310564D01*
X171238725Y-116314836D01*
X171238724Y-116314837D01*
X171223152Y-116337665D01*
X171111119Y-116501899D01*
X171013602Y-116711981D01*
X170951707Y-116935169D01*
X170927095Y-117165469D01*
X144927331Y-117165469D01*
X144799814Y-117025330D01*
X144722354Y-116964156D01*
X144615330Y-116879633D01*
X144615325Y-116879630D01*
X144611276Y-116876432D01*
X144606760Y-116873939D01*
X144606757Y-116873937D01*
X144405474Y-116762823D01*
X144405470Y-116762821D01*
X144400950Y-116760326D01*
X144396081Y-116758602D01*
X144396077Y-116758600D01*
X144179360Y-116681856D01*
X144179356Y-116681855D01*
X144174485Y-116680130D01*
X144169392Y-116679223D01*
X144169389Y-116679222D01*
X143943052Y-116638905D01*
X143943046Y-116638904D01*
X143937963Y-116637999D01*
X143845474Y-116636869D01*
X143702907Y-116635127D01*
X143702905Y-116635127D01*
X143697737Y-116635064D01*
X143460256Y-116671404D01*
X143372292Y-116700155D01*
X143236817Y-116744434D01*
X143236811Y-116744437D01*
X143231899Y-116746042D01*
X143227313Y-116748429D01*
X143227309Y-116748431D01*
X143106692Y-116811221D01*
X143018800Y-116856975D01*
X142863717Y-116973415D01*
X142797235Y-116998320D01*
X142727839Y-116983328D01*
X142677565Y-116933198D01*
X142670085Y-116916885D01*
X142666269Y-116906707D01*
X142666267Y-116906704D01*
X142663115Y-116898295D01*
X142575761Y-116781739D01*
X142459205Y-116694385D01*
X142322816Y-116643255D01*
X142260634Y-116636500D01*
X140540371Y-116636500D01*
X140472250Y-116616498D01*
X140425757Y-116562842D01*
X140415653Y-116492568D01*
X140445147Y-116427988D01*
X140451276Y-116421405D01*
X142677276Y-114195405D01*
X142739588Y-114161379D01*
X142766371Y-114158500D01*
X145257413Y-114158500D01*
X145331472Y-114182563D01*
X145337902Y-114187235D01*
X145337909Y-114187239D01*
X145343248Y-114191118D01*
X145349276Y-114193802D01*
X145349278Y-114193803D01*
X145511681Y-114266109D01*
X145517712Y-114268794D01*
X145611113Y-114288647D01*
X145698056Y-114307128D01*
X145698061Y-114307128D01*
X145704513Y-114308500D01*
X145895487Y-114308500D01*
X145901939Y-114307128D01*
X145901944Y-114307128D01*
X145988887Y-114288647D01*
X146082288Y-114268794D01*
X146088319Y-114266109D01*
X146250722Y-114193803D01*
X146250724Y-114193802D01*
X146256752Y-114191118D01*
X146262097Y-114187235D01*
X146312157Y-114150864D01*
X146411253Y-114078866D01*
X146539040Y-113936944D01*
X146634527Y-113771556D01*
X146693542Y-113589928D01*
X146713504Y-113400000D01*
X146693542Y-113210072D01*
X146634527Y-113028444D01*
X146539040Y-112863056D01*
X146534874Y-112858429D01*
X146511062Y-112791693D01*
X146527143Y-112722541D01*
X146578057Y-112673061D01*
X146636857Y-112658500D01*
X155919776Y-112658500D01*
X155987897Y-112678502D01*
X155993834Y-112682562D01*
X156143248Y-112791118D01*
X156149276Y-112793802D01*
X156149278Y-112793803D01*
X156194965Y-112814144D01*
X156317712Y-112868794D01*
X156411113Y-112888647D01*
X156498056Y-112907128D01*
X156498061Y-112907128D01*
X156504513Y-112908500D01*
X156695487Y-112908500D01*
X156701939Y-112907128D01*
X156701944Y-112907128D01*
X156788887Y-112888647D01*
X156882288Y-112868794D01*
X157005035Y-112814144D01*
X157050722Y-112793803D01*
X157050724Y-112793802D01*
X157056752Y-112791118D01*
X157211253Y-112678866D01*
X157256277Y-112628862D01*
X157334621Y-112541852D01*
X157334622Y-112541851D01*
X157339040Y-112536944D01*
X157434527Y-112371556D01*
X157493542Y-112189928D01*
X157513504Y-112000000D01*
X157493542Y-111810072D01*
X157434527Y-111628444D01*
X157339040Y-111463056D01*
X157297243Y-111416635D01*
X157215675Y-111326045D01*
X157215674Y-111326044D01*
X157211253Y-111321134D01*
X157092318Y-111234722D01*
X157062094Y-111212763D01*
X157062093Y-111212762D01*
X157056752Y-111208882D01*
X157050724Y-111206198D01*
X157050722Y-111206197D01*
X156888319Y-111133891D01*
X156888318Y-111133891D01*
X156882288Y-111131206D01*
X156788888Y-111111353D01*
X156701944Y-111092872D01*
X156701939Y-111092872D01*
X156695487Y-111091500D01*
X156504513Y-111091500D01*
X156498061Y-111092872D01*
X156498056Y-111092872D01*
X156411112Y-111111353D01*
X156317712Y-111131206D01*
X156311682Y-111133891D01*
X156311681Y-111133891D01*
X156149278Y-111206197D01*
X156149276Y-111206198D01*
X156143248Y-111208882D01*
X156137907Y-111212762D01*
X156137906Y-111212763D01*
X156107682Y-111234722D01*
X155994092Y-111317251D01*
X155993837Y-111317436D01*
X155926969Y-111341294D01*
X155919776Y-111341500D01*
X140762805Y-111341500D01*
X140694684Y-111321498D01*
X140648191Y-111267842D01*
X140642977Y-111254450D01*
X140634527Y-111228444D01*
X140622226Y-111207137D01*
X140599341Y-111167500D01*
X140582603Y-111098505D01*
X140605823Y-111031413D01*
X140661631Y-110987526D01*
X140708460Y-110978500D01*
X150997944Y-110978500D01*
X151009800Y-110979059D01*
X151009803Y-110979059D01*
X151017537Y-110980788D01*
X151088369Y-110978562D01*
X151092327Y-110978500D01*
X151121432Y-110978500D01*
X151125832Y-110977944D01*
X151137664Y-110977012D01*
X151183831Y-110975562D01*
X151204421Y-110969580D01*
X151223782Y-110965570D01*
X151230770Y-110964688D01*
X151237204Y-110963875D01*
X151237205Y-110963875D01*
X151245064Y-110962882D01*
X151252429Y-110959966D01*
X151252433Y-110959965D01*
X151288021Y-110945874D01*
X151299231Y-110942035D01*
X151343600Y-110929145D01*
X151362065Y-110918225D01*
X151379805Y-110909534D01*
X151399756Y-110901635D01*
X151437129Y-110874482D01*
X151447048Y-110867967D01*
X151479977Y-110848493D01*
X151479981Y-110848490D01*
X151486807Y-110844453D01*
X151501971Y-110829289D01*
X151517005Y-110816448D01*
X151527943Y-110808501D01*
X151534357Y-110803841D01*
X151563803Y-110768247D01*
X151571792Y-110759468D01*
X152131260Y-110200000D01*
X162686496Y-110200000D01*
X162687186Y-110206565D01*
X162699489Y-110323617D01*
X162706458Y-110389928D01*
X162765473Y-110571556D01*
X162860960Y-110736944D01*
X162865378Y-110741851D01*
X162865379Y-110741852D01*
X162981656Y-110870991D01*
X162988747Y-110878866D01*
X163080975Y-110945874D01*
X163125200Y-110978005D01*
X163143248Y-110991118D01*
X163149276Y-110993802D01*
X163149278Y-110993803D01*
X163304824Y-111063056D01*
X163317712Y-111068794D01*
X163411112Y-111088647D01*
X163498056Y-111107128D01*
X163498061Y-111107128D01*
X163504513Y-111108500D01*
X163695487Y-111108500D01*
X163701939Y-111107128D01*
X163701944Y-111107128D01*
X163788888Y-111088647D01*
X163882288Y-111068794D01*
X163895176Y-111063056D01*
X164050722Y-110993803D01*
X164050724Y-110993802D01*
X164056752Y-110991118D01*
X164074801Y-110978005D01*
X164186331Y-110896973D01*
X164206163Y-110882564D01*
X164273031Y-110858706D01*
X164280224Y-110858500D01*
X165317944Y-110858500D01*
X165329800Y-110859059D01*
X165329803Y-110859059D01*
X165337537Y-110860788D01*
X165408369Y-110858562D01*
X165412327Y-110858500D01*
X165441432Y-110858500D01*
X165445832Y-110857944D01*
X165457664Y-110857012D01*
X165503831Y-110855562D01*
X165524421Y-110849580D01*
X165543782Y-110845570D01*
X165550770Y-110844688D01*
X165557204Y-110843875D01*
X165557205Y-110843875D01*
X165565064Y-110842882D01*
X165572429Y-110839966D01*
X165572433Y-110839965D01*
X165608021Y-110825874D01*
X165619231Y-110822035D01*
X165663600Y-110809145D01*
X165682065Y-110798225D01*
X165699805Y-110789534D01*
X165719756Y-110781635D01*
X165757129Y-110754482D01*
X165767048Y-110747967D01*
X165799977Y-110728493D01*
X165799981Y-110728490D01*
X165806807Y-110724453D01*
X165821971Y-110709289D01*
X165837005Y-110696448D01*
X165847943Y-110688501D01*
X165854357Y-110683841D01*
X165883803Y-110648247D01*
X165891792Y-110639468D01*
X166545791Y-109985469D01*
X171019595Y-109985469D01*
X171019892Y-109990622D01*
X171019892Y-109990625D01*
X171025567Y-110089041D01*
X171032927Y-110216697D01*
X171034064Y-110221743D01*
X171034065Y-110221749D01*
X171066241Y-110364523D01*
X171083846Y-110442642D01*
X171085788Y-110447424D01*
X171085789Y-110447428D01*
X171167334Y-110648248D01*
X171170984Y-110657237D01*
X171292001Y-110854719D01*
X171443647Y-111029784D01*
X171621849Y-111177730D01*
X171821822Y-111294584D01*
X172038194Y-111377209D01*
X172043260Y-111378240D01*
X172043261Y-111378240D01*
X172096346Y-111389040D01*
X172265156Y-111423385D01*
X172395824Y-111428176D01*
X172491449Y-111431683D01*
X172491453Y-111431683D01*
X172496613Y-111431872D01*
X172501733Y-111431216D01*
X172501735Y-111431216D01*
X172574770Y-111421860D01*
X172726347Y-111402442D01*
X172731295Y-111400957D01*
X172731302Y-111400956D01*
X172943247Y-111337369D01*
X172948190Y-111335886D01*
X172978303Y-111321134D01*
X173151549Y-111236262D01*
X173151552Y-111236260D01*
X173156184Y-111233991D01*
X173344743Y-111099494D01*
X173508803Y-110936005D01*
X173513733Y-110929145D01*
X173547204Y-110882564D01*
X173643958Y-110747917D01*
X173646956Y-110741852D01*
X173744284Y-110544922D01*
X173744285Y-110544920D01*
X173746578Y-110540280D01*
X173813908Y-110318671D01*
X173844140Y-110089041D01*
X173844222Y-110085691D01*
X173845745Y-110023365D01*
X173845745Y-110023361D01*
X173845827Y-110020000D01*
X173832204Y-109854297D01*
X173827273Y-109794318D01*
X173827272Y-109794312D01*
X173826849Y-109789167D01*
X173791059Y-109646680D01*
X173771684Y-109569544D01*
X173771683Y-109569540D01*
X173770425Y-109564533D01*
X173759158Y-109538621D01*
X173680130Y-109356868D01*
X173680128Y-109356865D01*
X173678070Y-109352131D01*
X173552264Y-109157665D01*
X173537876Y-109141852D01*
X173478535Y-109076638D01*
X173396387Y-108986358D01*
X173392336Y-108983159D01*
X173392332Y-108983155D01*
X173218677Y-108846011D01*
X173218672Y-108846008D01*
X173214623Y-108842810D01*
X173210107Y-108840317D01*
X173210104Y-108840315D01*
X173016379Y-108733373D01*
X173016375Y-108733371D01*
X173011855Y-108730876D01*
X173006986Y-108729152D01*
X173006982Y-108729150D01*
X172798403Y-108655288D01*
X172798399Y-108655287D01*
X172793528Y-108653562D01*
X172788435Y-108652655D01*
X172788432Y-108652654D01*
X172570595Y-108613851D01*
X172570589Y-108613850D01*
X172565506Y-108612945D01*
X172492596Y-108612054D01*
X172339081Y-108610179D01*
X172339079Y-108610179D01*
X172333911Y-108610116D01*
X172104964Y-108645150D01*
X171884814Y-108717106D01*
X171880226Y-108719494D01*
X171880222Y-108719496D01*
X171683961Y-108821663D01*
X171679372Y-108824052D01*
X171675239Y-108827155D01*
X171675236Y-108827157D01*
X171498290Y-108960012D01*
X171494155Y-108963117D01*
X171334139Y-109130564D01*
X171331225Y-109134836D01*
X171331224Y-109134837D01*
X171315652Y-109157665D01*
X171203619Y-109321899D01*
X171106102Y-109531981D01*
X171044207Y-109755169D01*
X171019595Y-109985469D01*
X166545791Y-109985469D01*
X171735855Y-104795405D01*
X171798167Y-104761379D01*
X171824950Y-104758500D01*
X173098134Y-104758500D01*
X173160316Y-104751745D01*
X173296705Y-104700615D01*
X173413261Y-104613261D01*
X173500615Y-104496705D01*
X173551745Y-104360316D01*
X173558500Y-104298134D01*
X173558500Y-102501866D01*
X173551745Y-102439684D01*
X173500615Y-102303295D01*
X173413261Y-102186739D01*
X173296705Y-102099385D01*
X173160316Y-102048255D01*
X173098134Y-102041500D01*
X171301866Y-102041500D01*
X171239684Y-102048255D01*
X171103295Y-102099385D01*
X170986739Y-102186739D01*
X170899385Y-102303295D01*
X170896233Y-102311703D01*
X170854919Y-102421907D01*
X170812277Y-102478671D01*
X170745716Y-102503371D01*
X170676367Y-102488163D01*
X170643743Y-102462476D01*
X170593151Y-102406875D01*
X170593142Y-102406866D01*
X170589670Y-102403051D01*
X170585619Y-102399852D01*
X170585615Y-102399848D01*
X170418414Y-102267800D01*
X170418410Y-102267798D01*
X170414359Y-102264598D01*
X170218789Y-102156638D01*
X170213920Y-102154914D01*
X170213916Y-102154912D01*
X170013087Y-102083795D01*
X170013083Y-102083794D01*
X170008212Y-102082069D01*
X170003119Y-102081162D01*
X170003116Y-102081161D01*
X169793373Y-102043800D01*
X169793367Y-102043799D01*
X169788284Y-102042894D01*
X169714452Y-102041992D01*
X169570081Y-102040228D01*
X169570079Y-102040228D01*
X169564911Y-102040165D01*
X169344091Y-102073955D01*
X169131756Y-102143357D01*
X168933607Y-102246507D01*
X168929474Y-102249610D01*
X168929471Y-102249612D01*
X168759100Y-102377530D01*
X168754965Y-102380635D01*
X168720950Y-102416230D01*
X168624412Y-102517251D01*
X168600629Y-102542138D01*
X168597715Y-102546410D01*
X168597714Y-102546411D01*
X168572506Y-102583365D01*
X168474743Y-102726680D01*
X168447739Y-102784856D01*
X168383013Y-102924297D01*
X168380688Y-102929305D01*
X168320989Y-103144570D01*
X168297251Y-103366695D01*
X168310110Y-103589715D01*
X168311247Y-103594761D01*
X168311248Y-103594767D01*
X168315304Y-103612763D01*
X168359222Y-103807639D01*
X168443266Y-104014616D01*
X168445965Y-104019020D01*
X168553072Y-104193803D01*
X168559987Y-104205088D01*
X168706250Y-104373938D01*
X168878126Y-104516632D01*
X169071000Y-104629338D01*
X169075825Y-104631180D01*
X169075826Y-104631181D01*
X169133433Y-104653179D01*
X169279692Y-104709030D01*
X169284760Y-104710061D01*
X169284763Y-104710062D01*
X169388783Y-104731225D01*
X169498597Y-104753567D01*
X169503771Y-104753757D01*
X169503773Y-104753757D01*
X169611545Y-104757709D01*
X169678887Y-104780194D01*
X169723382Y-104835517D01*
X169730904Y-104906114D01*
X169696022Y-104972719D01*
X167402631Y-107266109D01*
X165164145Y-109504595D01*
X165101833Y-109538621D01*
X165075050Y-109541500D01*
X164280224Y-109541500D01*
X164212103Y-109521498D01*
X164206163Y-109517436D01*
X164205909Y-109517251D01*
X164154126Y-109479629D01*
X164062094Y-109412763D01*
X164062093Y-109412762D01*
X164056752Y-109408882D01*
X164050724Y-109406198D01*
X164050722Y-109406197D01*
X163888319Y-109333891D01*
X163888318Y-109333891D01*
X163882288Y-109331206D01*
X163788888Y-109311353D01*
X163701944Y-109292872D01*
X163701939Y-109292872D01*
X163695487Y-109291500D01*
X163504513Y-109291500D01*
X163498061Y-109292872D01*
X163498056Y-109292872D01*
X163411113Y-109311353D01*
X163317712Y-109331206D01*
X163311682Y-109333891D01*
X163311681Y-109333891D01*
X163149278Y-109406197D01*
X163149276Y-109406198D01*
X163143248Y-109408882D01*
X163137907Y-109412762D01*
X163137906Y-109412763D01*
X163091602Y-109446405D01*
X162988747Y-109521134D01*
X162984326Y-109526044D01*
X162984325Y-109526045D01*
X162871478Y-109651375D01*
X162860960Y-109663056D01*
X162765473Y-109828444D01*
X162706458Y-110010072D01*
X162705768Y-110016633D01*
X162705768Y-110016635D01*
X162705061Y-110023365D01*
X162686496Y-110200000D01*
X152131260Y-110200000D01*
X154985855Y-107345405D01*
X155048167Y-107311379D01*
X155074950Y-107308500D01*
X155095487Y-107308500D01*
X155101939Y-107307128D01*
X155101944Y-107307128D01*
X155188887Y-107288647D01*
X155282288Y-107268794D01*
X155288319Y-107266109D01*
X155450722Y-107193803D01*
X155450724Y-107193802D01*
X155456752Y-107191118D01*
X155611253Y-107078866D01*
X155739040Y-106936944D01*
X155797314Y-106836010D01*
X155831223Y-106777279D01*
X155831224Y-106777278D01*
X155834527Y-106771556D01*
X155893542Y-106589928D01*
X155913504Y-106400000D01*
X155912814Y-106393435D01*
X155894232Y-106216635D01*
X155894232Y-106216633D01*
X155893542Y-106210072D01*
X155834527Y-106028444D01*
X155739040Y-105863056D01*
X155611253Y-105721134D01*
X155456752Y-105608882D01*
X155450724Y-105606198D01*
X155450722Y-105606197D01*
X155288319Y-105533891D01*
X155288318Y-105533891D01*
X155282288Y-105531206D01*
X155188887Y-105511353D01*
X155101944Y-105492872D01*
X155101939Y-105492872D01*
X155095487Y-105491500D01*
X154904513Y-105491500D01*
X154898061Y-105492872D01*
X154898056Y-105492872D01*
X154811113Y-105511353D01*
X154717712Y-105531206D01*
X154711682Y-105533891D01*
X154711681Y-105533891D01*
X154549278Y-105606197D01*
X154549276Y-105606198D01*
X154543248Y-105608882D01*
X154388747Y-105721134D01*
X154260960Y-105863056D01*
X154165473Y-106028444D01*
X154106458Y-106210072D01*
X154105768Y-106216635D01*
X154105768Y-106216637D01*
X154093245Y-106335786D01*
X154066232Y-106401443D01*
X154057030Y-106411711D01*
X150844145Y-109624595D01*
X150781833Y-109658621D01*
X150755050Y-109661500D01*
X147515371Y-109661500D01*
X147447250Y-109641498D01*
X147400757Y-109587842D01*
X147390653Y-109517568D01*
X147420147Y-109452988D01*
X147426276Y-109446405D01*
X150488907Y-106383773D01*
X150503319Y-106371387D01*
X150514917Y-106362851D01*
X150514919Y-106362850D01*
X150520818Y-106358508D01*
X150525557Y-106352930D01*
X150525560Y-106352927D01*
X150555041Y-106318225D01*
X150561971Y-106310709D01*
X150567660Y-106305020D01*
X150569918Y-106302166D01*
X150569927Y-106302156D01*
X150585274Y-106282758D01*
X150588062Y-106279358D01*
X150630595Y-106229293D01*
X150630598Y-106229289D01*
X150635333Y-106223715D01*
X150638660Y-106217200D01*
X150642019Y-106212163D01*
X150645192Y-106207025D01*
X150649734Y-106201284D01*
X150680655Y-106135125D01*
X150682561Y-106131225D01*
X150715769Y-106066192D01*
X150717508Y-106059083D01*
X150719604Y-106053449D01*
X150721523Y-106047679D01*
X150724622Y-106041050D01*
X150727245Y-106028444D01*
X150739490Y-105969571D01*
X150740461Y-105965282D01*
X150756473Y-105899844D01*
X150757808Y-105894390D01*
X150758500Y-105883236D01*
X150758535Y-105883238D01*
X150758775Y-105879266D01*
X150759152Y-105875045D01*
X150760641Y-105867885D01*
X150758546Y-105790458D01*
X150758500Y-105787050D01*
X150758500Y-100536999D01*
X150775381Y-100473999D01*
X150831223Y-100377279D01*
X150831224Y-100377278D01*
X150834527Y-100371556D01*
X150893542Y-100189928D01*
X150913504Y-100000000D01*
X150893542Y-99810072D01*
X150834527Y-99628444D01*
X150739040Y-99463056D01*
X150611253Y-99321134D01*
X150456752Y-99208882D01*
X150450724Y-99206198D01*
X150450722Y-99206197D01*
X150288319Y-99133891D01*
X150288318Y-99133891D01*
X150282288Y-99131206D01*
X150188888Y-99111353D01*
X150101944Y-99092872D01*
X150101939Y-99092872D01*
X150095487Y-99091500D01*
X149904513Y-99091500D01*
X149898061Y-99092872D01*
X149898056Y-99092872D01*
X149811112Y-99111353D01*
X149717712Y-99131206D01*
X149711682Y-99133891D01*
X149711681Y-99133891D01*
X149549278Y-99206197D01*
X149549276Y-99206198D01*
X149543248Y-99208882D01*
X149388747Y-99321134D01*
X149260960Y-99463056D01*
X149165473Y-99628444D01*
X149106458Y-99810072D01*
X149086496Y-100000000D01*
X149106458Y-100189928D01*
X149165473Y-100371556D01*
X149168776Y-100377278D01*
X149168777Y-100377279D01*
X149224619Y-100473999D01*
X149241500Y-100536999D01*
X149241500Y-100767603D01*
X149221498Y-100835724D01*
X149167842Y-100882217D01*
X149102332Y-100892913D01*
X149101942Y-100892872D01*
X149095487Y-100891500D01*
X148904513Y-100891500D01*
X148898061Y-100892872D01*
X148898056Y-100892872D01*
X148811113Y-100911353D01*
X148717712Y-100931206D01*
X148711682Y-100933891D01*
X148711681Y-100933891D01*
X148549278Y-101006197D01*
X148549276Y-101006198D01*
X148543248Y-101008882D01*
X148388747Y-101121134D01*
X148260960Y-101263056D01*
X148165473Y-101428444D01*
X148132084Y-101531206D01*
X148110613Y-101597285D01*
X148079875Y-101647444D01*
X147311089Y-102416230D01*
X147296677Y-102428616D01*
X147285082Y-102437149D01*
X147285077Y-102437154D01*
X147279182Y-102441492D01*
X147274443Y-102447070D01*
X147274440Y-102447073D01*
X147244965Y-102481768D01*
X147238035Y-102489284D01*
X147232340Y-102494979D01*
X147230060Y-102497861D01*
X147214719Y-102517251D01*
X147211928Y-102520655D01*
X147196852Y-102538401D01*
X147164667Y-102576285D01*
X147161339Y-102582801D01*
X147157972Y-102587850D01*
X147154805Y-102592979D01*
X147150266Y-102598716D01*
X147119345Y-102664875D01*
X147117442Y-102668769D01*
X147084231Y-102733808D01*
X147082492Y-102740916D01*
X147080393Y-102746559D01*
X147078476Y-102752322D01*
X147075378Y-102758950D01*
X147073888Y-102766112D01*
X147073888Y-102766113D01*
X147060514Y-102830412D01*
X147059544Y-102834696D01*
X147042192Y-102905610D01*
X147041500Y-102916764D01*
X147041464Y-102916762D01*
X147041225Y-102920755D01*
X147040851Y-102924947D01*
X147039360Y-102932115D01*
X147040821Y-102986116D01*
X147041454Y-103009521D01*
X147041500Y-103012928D01*
X147041500Y-104033629D01*
X147021498Y-104101750D01*
X147004595Y-104122724D01*
X143443669Y-107683650D01*
X143380772Y-107717801D01*
X143324176Y-107729831D01*
X143324167Y-107729834D01*
X143317712Y-107731206D01*
X143311682Y-107733891D01*
X143311681Y-107733891D01*
X143149278Y-107806197D01*
X143149276Y-107806198D01*
X143143248Y-107808882D01*
X142988747Y-107921134D01*
X142984326Y-107926044D01*
X142984325Y-107926045D01*
X142945005Y-107969715D01*
X142860960Y-108063056D01*
X142765473Y-108228444D01*
X142706458Y-108410072D01*
X142705768Y-108416633D01*
X142705768Y-108416635D01*
X142695951Y-108510043D01*
X142686496Y-108600000D01*
X142687186Y-108606565D01*
X142699228Y-108721134D01*
X142706458Y-108789928D01*
X142765473Y-108971556D01*
X142860960Y-109136944D01*
X142865378Y-109141851D01*
X142865379Y-109141852D01*
X142890374Y-109169612D01*
X142988747Y-109278866D01*
X143143248Y-109391118D01*
X143149276Y-109393802D01*
X143149278Y-109393803D01*
X143209001Y-109420393D01*
X143263097Y-109466373D01*
X143283746Y-109534300D01*
X143264394Y-109602608D01*
X143211183Y-109649610D01*
X143157752Y-109661500D01*
X137560632Y-109661500D01*
X137492511Y-109641498D01*
X137454840Y-109603940D01*
X137382822Y-109492617D01*
X137382820Y-109492614D01*
X137380014Y-109488277D01*
X137229670Y-109323051D01*
X137225619Y-109319852D01*
X137225615Y-109319848D01*
X137058414Y-109187800D01*
X137058410Y-109187798D01*
X137054359Y-109184598D01*
X137013053Y-109161796D01*
X136963084Y-109111364D01*
X136948312Y-109041921D01*
X136973428Y-108975516D01*
X137000780Y-108948909D01*
X137044603Y-108917650D01*
X137179860Y-108821173D01*
X137204915Y-108796206D01*
X137334435Y-108667137D01*
X137338096Y-108663489D01*
X137397594Y-108580689D01*
X137465435Y-108486277D01*
X137468453Y-108482077D01*
X137500797Y-108416635D01*
X137565136Y-108286453D01*
X137565137Y-108286451D01*
X137567430Y-108281811D01*
X137632370Y-108068069D01*
X137661529Y-107846590D01*
X137661611Y-107843240D01*
X137663074Y-107783365D01*
X137663074Y-107783361D01*
X137663156Y-107780000D01*
X137644852Y-107557361D01*
X137590431Y-107340702D01*
X137501354Y-107135840D01*
X137380014Y-106948277D01*
X137229670Y-106783051D01*
X137225619Y-106779852D01*
X137225615Y-106779848D01*
X137058414Y-106647800D01*
X137058410Y-106647798D01*
X137054359Y-106644598D01*
X136858789Y-106536638D01*
X136853920Y-106534914D01*
X136853916Y-106534912D01*
X136653087Y-106463795D01*
X136653083Y-106463794D01*
X136648212Y-106462069D01*
X136643119Y-106461162D01*
X136643116Y-106461161D01*
X136433373Y-106423800D01*
X136433367Y-106423799D01*
X136428284Y-106422894D01*
X136354452Y-106421992D01*
X136210081Y-106420228D01*
X136210079Y-106420228D01*
X136204911Y-106420165D01*
X135984091Y-106453955D01*
X135771756Y-106523357D01*
X135741443Y-106539137D01*
X135631815Y-106596206D01*
X135573607Y-106626507D01*
X135569474Y-106629610D01*
X135569471Y-106629612D01*
X135545247Y-106647800D01*
X135394965Y-106760635D01*
X135240629Y-106922138D01*
X135237715Y-106926410D01*
X135237714Y-106926411D01*
X135230529Y-106936944D01*
X135114743Y-107106680D01*
X135099003Y-107140590D01*
X135038856Y-107270166D01*
X135020688Y-107309305D01*
X134960989Y-107524570D01*
X134937251Y-107746695D01*
X134937548Y-107751848D01*
X134937548Y-107751851D01*
X134943011Y-107846590D01*
X134950110Y-107969715D01*
X134951247Y-107974761D01*
X134951248Y-107974767D01*
X134971119Y-108062939D01*
X134999222Y-108187639D01*
X135083266Y-108394616D01*
X135096759Y-108416635D01*
X135168614Y-108533891D01*
X135199987Y-108585088D01*
X135346250Y-108753938D01*
X135518126Y-108896632D01*
X135588595Y-108937811D01*
X135591445Y-108939476D01*
X135640169Y-108991114D01*
X135653240Y-109060897D01*
X135626509Y-109126669D01*
X135586055Y-109160027D01*
X135582248Y-109162009D01*
X135573607Y-109166507D01*
X135569474Y-109169610D01*
X135569471Y-109169612D01*
X135405304Y-109292872D01*
X135394965Y-109300635D01*
X135391393Y-109304373D01*
X135294088Y-109406197D01*
X135240629Y-109462138D01*
X135237715Y-109466410D01*
X135237714Y-109466411D01*
X135225404Y-109484457D01*
X135114743Y-109646680D01*
X135020688Y-109849305D01*
X134960989Y-110064570D01*
X134937251Y-110286695D01*
X130308500Y-110286695D01*
X130308500Y-103598134D01*
X134941500Y-103598134D01*
X134948255Y-103660316D01*
X134999385Y-103796705D01*
X135086739Y-103913261D01*
X135203295Y-104000615D01*
X135339684Y-104051745D01*
X135401866Y-104058500D01*
X137198134Y-104058500D01*
X137260316Y-104051745D01*
X137396705Y-104000615D01*
X137513261Y-103913261D01*
X137600615Y-103796705D01*
X137651745Y-103660316D01*
X137658500Y-103598134D01*
X137658500Y-101801866D01*
X137651745Y-101739684D01*
X137600615Y-101603295D01*
X137513261Y-101486739D01*
X137396705Y-101399385D01*
X137260316Y-101348255D01*
X137198134Y-101341500D01*
X135401866Y-101341500D01*
X135339684Y-101348255D01*
X135203295Y-101399385D01*
X135086739Y-101486739D01*
X134999385Y-101603295D01*
X134948255Y-101739684D01*
X134941500Y-101801866D01*
X134941500Y-103598134D01*
X130308500Y-103598134D01*
X130308500Y-94400000D01*
X141286496Y-94400000D01*
X141287186Y-94406565D01*
X141303891Y-94565500D01*
X141306458Y-94589928D01*
X141365473Y-94771556D01*
X141460960Y-94936944D01*
X141588747Y-95078866D01*
X141743248Y-95191118D01*
X141749276Y-95193802D01*
X141749278Y-95193803D01*
X141911681Y-95266109D01*
X141917712Y-95268794D01*
X142011113Y-95288647D01*
X142098056Y-95307128D01*
X142098061Y-95307128D01*
X142104513Y-95308500D01*
X142295487Y-95308500D01*
X142301939Y-95307128D01*
X142301944Y-95307128D01*
X142388887Y-95288647D01*
X142482288Y-95268794D01*
X142488319Y-95266109D01*
X142650722Y-95193803D01*
X142650724Y-95193802D01*
X142656752Y-95191118D01*
X142811253Y-95078866D01*
X142939040Y-94936944D01*
X143034527Y-94771556D01*
X143093542Y-94589928D01*
X143096110Y-94565500D01*
X143112814Y-94406565D01*
X143113504Y-94400000D01*
X143093542Y-94210072D01*
X143034527Y-94028444D01*
X143025380Y-94012602D01*
X143008500Y-93949603D01*
X143008500Y-83090375D01*
X143028502Y-83022254D01*
X143060439Y-82988439D01*
X143205909Y-82882749D01*
X143205911Y-82882747D01*
X143211253Y-82878866D01*
X143339040Y-82736944D01*
X143434527Y-82571556D01*
X143493542Y-82389928D01*
X143500773Y-82321134D01*
X143512814Y-82206565D01*
X143513504Y-82200000D01*
X143500980Y-82080843D01*
X143494232Y-82016635D01*
X143494232Y-82016633D01*
X143493542Y-82010072D01*
X143434527Y-81828444D01*
X143339040Y-81663056D01*
X143211253Y-81521134D01*
X143056752Y-81408882D01*
X143050724Y-81406198D01*
X143050722Y-81406197D01*
X142888319Y-81333891D01*
X142888318Y-81333891D01*
X142882288Y-81331206D01*
X142788887Y-81311353D01*
X142701944Y-81292872D01*
X142701939Y-81292872D01*
X142695487Y-81291500D01*
X142504513Y-81291500D01*
X142498061Y-81292872D01*
X142498056Y-81292872D01*
X142411113Y-81311353D01*
X142317712Y-81331206D01*
X142311682Y-81333891D01*
X142311681Y-81333891D01*
X142149278Y-81406197D01*
X142149276Y-81406198D01*
X142143248Y-81408882D01*
X141988747Y-81521134D01*
X141860960Y-81663056D01*
X141765473Y-81828444D01*
X141763433Y-81834724D01*
X141763432Y-81834725D01*
X141744646Y-81892542D01*
X141713908Y-81942700D01*
X141634846Y-82021762D01*
X141633909Y-82022690D01*
X141569493Y-82085771D01*
X141546002Y-82122221D01*
X141538583Y-82132546D01*
X141511524Y-82166443D01*
X141508459Y-82172784D01*
X141508458Y-82172785D01*
X141496928Y-82196637D01*
X141489399Y-82210054D01*
X141471235Y-82238238D01*
X141468827Y-82244855D01*
X141468824Y-82244860D01*
X141456408Y-82278973D01*
X141451447Y-82290716D01*
X141435646Y-82323403D01*
X141435644Y-82323408D01*
X141432579Y-82329749D01*
X141430996Y-82336607D01*
X141430995Y-82336609D01*
X141425035Y-82362426D01*
X141420668Y-82377169D01*
X141409197Y-82408685D01*
X141408314Y-82415675D01*
X141408312Y-82415683D01*
X141403762Y-82451701D01*
X141401526Y-82464253D01*
X141400483Y-82468774D01*
X141391776Y-82506485D01*
X141391751Y-82513531D01*
X141391751Y-82513534D01*
X141391634Y-82547056D01*
X141391605Y-82547938D01*
X141391500Y-82548769D01*
X141391500Y-82585572D01*
X141391143Y-82687870D01*
X141391411Y-82689070D01*
X141391500Y-82690707D01*
X141391500Y-93949603D01*
X141374620Y-94012602D01*
X141365473Y-94028444D01*
X141306458Y-94210072D01*
X141286496Y-94400000D01*
X130308500Y-94400000D01*
X130308500Y-80600000D01*
X147686496Y-80600000D01*
X147687186Y-80606565D01*
X147702242Y-80749811D01*
X147706458Y-80789928D01*
X147765473Y-80971556D01*
X147860960Y-81136944D01*
X147865378Y-81141851D01*
X147865379Y-81141852D01*
X147963830Y-81251193D01*
X147988747Y-81278866D01*
X148143248Y-81391118D01*
X148149276Y-81393802D01*
X148149278Y-81393803D01*
X148299961Y-81460891D01*
X148317712Y-81468794D01*
X148411112Y-81488647D01*
X148498056Y-81507128D01*
X148498061Y-81507128D01*
X148504513Y-81508500D01*
X148695487Y-81508500D01*
X148701939Y-81507128D01*
X148701944Y-81507128D01*
X148788888Y-81488647D01*
X148882288Y-81468794D01*
X148900039Y-81460891D01*
X149050722Y-81393803D01*
X149050724Y-81393802D01*
X149056752Y-81391118D01*
X149211253Y-81278866D01*
X149236170Y-81251193D01*
X149334621Y-81141852D01*
X149334622Y-81141851D01*
X149339040Y-81136944D01*
X149434527Y-80971556D01*
X149444285Y-80941526D01*
X149455353Y-80907461D01*
X149486090Y-80857302D01*
X149897986Y-80445405D01*
X149960299Y-80411380D01*
X149987082Y-80408500D01*
X154831262Y-80408500D01*
X154899383Y-80428502D01*
X154945876Y-80482158D01*
X154955980Y-80552432D01*
X154926486Y-80617012D01*
X154905323Y-80636436D01*
X154788747Y-80721134D01*
X154784334Y-80726036D01*
X154784332Y-80726037D01*
X154762926Y-80749811D01*
X154702480Y-80787050D01*
X154669290Y-80791500D01*
X152847430Y-80791500D01*
X152830987Y-80790422D01*
X152799294Y-80786250D01*
X152791105Y-80787328D01*
X152759420Y-80791499D01*
X152759411Y-80791500D01*
X152759409Y-80791500D01*
X152759403Y-80791501D01*
X152759401Y-80791501D01*
X152659837Y-80804609D01*
X152648630Y-80806084D01*
X152648628Y-80806085D01*
X152640443Y-80807162D01*
X152492418Y-80868476D01*
X152485867Y-80873503D01*
X152485865Y-80873504D01*
X152441612Y-80907461D01*
X152397222Y-80941523D01*
X152397219Y-80941526D01*
X152365307Y-80966013D01*
X152360277Y-80972568D01*
X152345842Y-80991379D01*
X152334975Y-81003770D01*
X151403766Y-81934979D01*
X151391375Y-81945846D01*
X151366013Y-81965307D01*
X151341526Y-81997219D01*
X151341523Y-81997222D01*
X151268476Y-82092418D01*
X151207977Y-82238476D01*
X151207162Y-82240444D01*
X151191500Y-82359409D01*
X151191500Y-82359414D01*
X151186250Y-82399294D01*
X151187328Y-82407482D01*
X151190422Y-82430984D01*
X151191500Y-82447430D01*
X151191500Y-103751864D01*
X151190422Y-103768307D01*
X151186250Y-103800000D01*
X151191500Y-103839880D01*
X151191500Y-103839885D01*
X151201161Y-103913261D01*
X151202634Y-103924450D01*
X151202634Y-103924453D01*
X151203526Y-103931226D01*
X151207162Y-103958851D01*
X151268476Y-104106876D01*
X151273503Y-104113427D01*
X151273504Y-104113429D01*
X151341520Y-104202069D01*
X151341526Y-104202075D01*
X151366013Y-104233987D01*
X151372568Y-104239017D01*
X151391379Y-104253452D01*
X151403770Y-104264319D01*
X151450281Y-104310830D01*
X151484307Y-104373142D01*
X151486841Y-104396716D01*
X151486496Y-104400000D01*
X151487186Y-104406565D01*
X151495828Y-104488785D01*
X151506458Y-104589928D01*
X151565473Y-104771556D01*
X151568776Y-104777278D01*
X151568777Y-104777279D01*
X151588702Y-104811789D01*
X151660960Y-104936944D01*
X151665378Y-104941851D01*
X151665379Y-104941852D01*
X151697050Y-104977026D01*
X151788747Y-105078866D01*
X151943248Y-105191118D01*
X151949276Y-105193802D01*
X151949278Y-105193803D01*
X152111681Y-105266109D01*
X152117712Y-105268794D01*
X152211113Y-105288647D01*
X152298056Y-105307128D01*
X152298061Y-105307128D01*
X152304513Y-105308500D01*
X152495487Y-105308500D01*
X152501939Y-105307128D01*
X152501944Y-105307128D01*
X152588888Y-105288647D01*
X152682288Y-105268794D01*
X152688319Y-105266109D01*
X152850722Y-105193803D01*
X152850724Y-105193802D01*
X152856752Y-105191118D01*
X153011253Y-105078866D01*
X153106365Y-104973233D01*
X153166810Y-104935994D01*
X153237793Y-104937346D01*
X153293635Y-104973233D01*
X153388747Y-105078866D01*
X153543248Y-105191118D01*
X153549276Y-105193802D01*
X153549278Y-105193803D01*
X153711681Y-105266109D01*
X153717712Y-105268794D01*
X153811113Y-105288647D01*
X153898056Y-105307128D01*
X153898061Y-105307128D01*
X153904513Y-105308500D01*
X154095487Y-105308500D01*
X154101939Y-105307128D01*
X154101944Y-105307128D01*
X154188888Y-105288647D01*
X154282288Y-105268794D01*
X154288319Y-105266109D01*
X154450722Y-105193803D01*
X154450724Y-105193802D01*
X154456752Y-105191118D01*
X154611253Y-105078866D01*
X154702950Y-104977026D01*
X154734621Y-104941852D01*
X154734622Y-104941851D01*
X154739040Y-104936944D01*
X154811298Y-104811789D01*
X154831223Y-104777279D01*
X154831224Y-104777278D01*
X154834527Y-104771556D01*
X154893542Y-104589928D01*
X154904173Y-104488785D01*
X154912814Y-104406565D01*
X154913504Y-104400000D01*
X154902798Y-104298134D01*
X154894232Y-104216635D01*
X154894232Y-104216633D01*
X154893542Y-104210072D01*
X154834527Y-104028444D01*
X154826544Y-104014616D01*
X154768026Y-103913261D01*
X154739040Y-103863056D01*
X154689143Y-103807639D01*
X154615675Y-103726045D01*
X154615674Y-103726044D01*
X154611253Y-103721134D01*
X154456752Y-103608882D01*
X154450724Y-103606198D01*
X154450722Y-103606197D01*
X154323618Y-103549607D01*
X154269522Y-103503627D01*
X154248873Y-103435700D01*
X154268225Y-103367391D01*
X154321436Y-103320390D01*
X154374867Y-103308500D01*
X154495487Y-103308500D01*
X154501939Y-103307128D01*
X154501944Y-103307128D01*
X154588887Y-103288647D01*
X154682288Y-103268794D01*
X154799440Y-103216635D01*
X154850722Y-103193803D01*
X154850724Y-103193802D01*
X154856752Y-103191118D01*
X155011253Y-103078866D01*
X155073692Y-103009521D01*
X155134619Y-102941854D01*
X155136242Y-102940052D01*
X155136244Y-102940050D01*
X155139040Y-102936944D01*
X155139608Y-102937455D01*
X155191751Y-102897244D01*
X155262487Y-102891167D01*
X155325280Y-102924297D01*
X155360193Y-102986116D01*
X155357301Y-103053594D01*
X155306458Y-103210072D01*
X155305768Y-103216633D01*
X155305768Y-103216635D01*
X155289996Y-103366695D01*
X155286496Y-103400000D01*
X155287186Y-103406565D01*
X155297388Y-103503627D01*
X155306458Y-103589928D01*
X155365473Y-103771556D01*
X155368776Y-103777278D01*
X155368777Y-103777279D01*
X155386623Y-103808189D01*
X155460960Y-103936944D01*
X155465378Y-103941851D01*
X155465379Y-103941852D01*
X155526586Y-104009829D01*
X155588747Y-104078866D01*
X155743248Y-104191118D01*
X155749276Y-104193802D01*
X155749278Y-104193803D01*
X155850831Y-104239017D01*
X155917712Y-104268794D01*
X156011112Y-104288647D01*
X156098056Y-104307128D01*
X156098061Y-104307128D01*
X156104513Y-104308500D01*
X156295487Y-104308500D01*
X156301939Y-104307128D01*
X156301944Y-104307128D01*
X156388888Y-104288647D01*
X156482288Y-104268794D01*
X156549169Y-104239017D01*
X156650722Y-104193803D01*
X156650724Y-104193802D01*
X156656752Y-104191118D01*
X156811253Y-104078866D01*
X156873414Y-104009829D01*
X156934621Y-103941852D01*
X156934622Y-103941851D01*
X156939040Y-103936944D01*
X157013377Y-103808189D01*
X157031223Y-103777279D01*
X157031224Y-103777278D01*
X157034527Y-103771556D01*
X157073224Y-103652460D01*
X157091502Y-103596207D01*
X157091502Y-103596205D01*
X157093542Y-103589928D01*
X157106755Y-103464213D01*
X157133768Y-103398558D01*
X157142970Y-103388290D01*
X168032608Y-92498651D01*
X168080822Y-92469106D01*
X168082288Y-92468794D01*
X168118547Y-92452651D01*
X168250722Y-92393803D01*
X168250724Y-92393802D01*
X168256752Y-92391118D01*
X168411253Y-92278866D01*
X168415675Y-92273955D01*
X168534621Y-92141852D01*
X168534622Y-92141851D01*
X168539040Y-92136944D01*
X168622463Y-91992452D01*
X168631223Y-91977279D01*
X168631224Y-91977278D01*
X168634527Y-91971556D01*
X168693542Y-91789928D01*
X168695126Y-91774862D01*
X168712814Y-91606565D01*
X168713504Y-91600000D01*
X168705857Y-91527240D01*
X168694232Y-91416635D01*
X168694232Y-91416633D01*
X168693542Y-91410072D01*
X168634527Y-91228444D01*
X168539040Y-91063056D01*
X168411253Y-90921134D01*
X168256752Y-90808882D01*
X168250724Y-90806198D01*
X168250722Y-90806197D01*
X168088319Y-90733891D01*
X168088318Y-90733891D01*
X168082288Y-90731206D01*
X167988887Y-90711353D01*
X167901944Y-90692872D01*
X167901939Y-90692872D01*
X167895487Y-90691500D01*
X167704513Y-90691500D01*
X167698061Y-90692872D01*
X167698056Y-90692872D01*
X167611113Y-90711353D01*
X167517712Y-90731206D01*
X167511682Y-90733891D01*
X167511681Y-90733891D01*
X167349278Y-90806197D01*
X167349276Y-90806198D01*
X167343248Y-90808882D01*
X167188747Y-90921134D01*
X167060960Y-91063056D01*
X166965473Y-91228444D01*
X166906458Y-91410072D01*
X166905768Y-91416633D01*
X166905768Y-91416635D01*
X166894143Y-91527240D01*
X166886496Y-91600000D01*
X166887186Y-91606565D01*
X166897547Y-91705143D01*
X166884775Y-91774982D01*
X166861332Y-91807409D01*
X156214145Y-102454595D01*
X156151833Y-102488621D01*
X156125050Y-102491500D01*
X156104513Y-102491500D01*
X156098061Y-102492872D01*
X156098056Y-102492872D01*
X156039669Y-102505283D01*
X155917712Y-102531206D01*
X155911682Y-102533891D01*
X155911681Y-102533891D01*
X155749278Y-102606197D01*
X155749276Y-102606198D01*
X155743248Y-102608882D01*
X155588747Y-102721134D01*
X155584326Y-102726044D01*
X155584325Y-102726045D01*
X155506706Y-102812250D01*
X155463758Y-102859948D01*
X155463756Y-102859950D01*
X155460960Y-102863056D01*
X155460392Y-102862545D01*
X155408249Y-102902756D01*
X155337513Y-102908833D01*
X155274720Y-102875703D01*
X155239807Y-102813884D01*
X155242699Y-102746406D01*
X155291502Y-102596207D01*
X155291503Y-102596203D01*
X155293542Y-102589928D01*
X155306755Y-102464213D01*
X155333768Y-102398558D01*
X155342970Y-102388290D01*
X165407605Y-92323655D01*
X165416385Y-92315665D01*
X165416387Y-92315663D01*
X165423080Y-92311416D01*
X165471605Y-92259742D01*
X165474359Y-92256901D01*
X165494927Y-92236333D01*
X165497647Y-92232826D01*
X165505353Y-92223804D01*
X165531544Y-92195913D01*
X165536972Y-92190133D01*
X165540794Y-92183181D01*
X165547303Y-92171342D01*
X165558157Y-92154818D01*
X165566445Y-92144132D01*
X165571304Y-92137868D01*
X165574452Y-92130594D01*
X165589654Y-92095465D01*
X165594876Y-92084805D01*
X165613305Y-92051284D01*
X165613306Y-92051282D01*
X165617124Y-92044337D01*
X165622459Y-92023559D01*
X165628858Y-92004869D01*
X165637380Y-91985176D01*
X165644606Y-91939552D01*
X165647013Y-91927929D01*
X165656528Y-91890868D01*
X165658500Y-91883188D01*
X165658500Y-91861741D01*
X165660051Y-91842031D01*
X165662166Y-91828677D01*
X165663406Y-91820848D01*
X165659059Y-91774859D01*
X165658500Y-91763004D01*
X165658500Y-86820333D01*
X165678502Y-86752212D01*
X165690857Y-86736032D01*
X165798721Y-86616236D01*
X165894208Y-86450848D01*
X165953223Y-86269220D01*
X165973185Y-86079292D01*
X165953223Y-85889364D01*
X165894208Y-85707736D01*
X165798721Y-85542348D01*
X165670934Y-85400426D01*
X165516433Y-85288174D01*
X165510405Y-85285490D01*
X165510403Y-85285489D01*
X165348000Y-85213183D01*
X165347999Y-85213183D01*
X165341969Y-85210498D01*
X165248569Y-85190645D01*
X165161625Y-85172164D01*
X165161620Y-85172164D01*
X165155168Y-85170792D01*
X164964194Y-85170792D01*
X164957742Y-85172164D01*
X164957737Y-85172164D01*
X164870794Y-85190645D01*
X164777393Y-85210498D01*
X164771363Y-85213183D01*
X164771362Y-85213183D01*
X164608959Y-85285489D01*
X164608957Y-85285490D01*
X164602929Y-85288174D01*
X164448428Y-85400426D01*
X164320641Y-85542348D01*
X164225154Y-85707736D01*
X164166139Y-85889364D01*
X164146177Y-86079292D01*
X164166139Y-86269220D01*
X164225154Y-86450848D01*
X164317468Y-86610740D01*
X164320641Y-86616236D01*
X164319636Y-86616816D01*
X164341294Y-86677515D01*
X164341500Y-86684711D01*
X164341500Y-91475050D01*
X164321498Y-91543171D01*
X164304595Y-91564145D01*
X154414145Y-101454595D01*
X154351833Y-101488621D01*
X154325050Y-101491500D01*
X154304513Y-101491500D01*
X154298061Y-101492872D01*
X154298056Y-101492872D01*
X154211113Y-101511353D01*
X154117712Y-101531206D01*
X154111682Y-101533891D01*
X154111681Y-101533891D01*
X153949278Y-101606197D01*
X153949276Y-101606198D01*
X153943248Y-101608882D01*
X153937907Y-101612762D01*
X153937906Y-101612763D01*
X153890172Y-101647444D01*
X153788747Y-101721134D01*
X153784326Y-101726044D01*
X153784325Y-101726045D01*
X153772045Y-101739684D01*
X153660960Y-101863056D01*
X153565473Y-102028444D01*
X153506458Y-102210072D01*
X153505768Y-102216633D01*
X153505768Y-102216635D01*
X153497415Y-102296109D01*
X153486496Y-102400000D01*
X153487186Y-102406565D01*
X153497562Y-102505283D01*
X153506458Y-102589928D01*
X153563745Y-102766238D01*
X153565773Y-102837204D01*
X153529110Y-102898002D01*
X153465398Y-102929328D01*
X153394864Y-102921235D01*
X153354817Y-102894268D01*
X153245405Y-102784856D01*
X153211379Y-102722544D01*
X153208500Y-102695761D01*
X153208500Y-96634500D01*
X153228502Y-96566379D01*
X153282158Y-96519886D01*
X153334500Y-96508500D01*
X153495487Y-96508500D01*
X153501939Y-96507128D01*
X153501944Y-96507128D01*
X153588887Y-96488647D01*
X153682288Y-96468794D01*
X153688319Y-96466109D01*
X153850722Y-96393803D01*
X153850724Y-96393802D01*
X153856752Y-96391118D01*
X154011253Y-96278866D01*
X154139040Y-96136944D01*
X154234527Y-95971556D01*
X154293542Y-95789928D01*
X154310907Y-95624706D01*
X154337920Y-95559050D01*
X154347122Y-95548782D01*
X156202247Y-93693657D01*
X156210537Y-93686113D01*
X156217018Y-93682000D01*
X156263659Y-93632332D01*
X156266413Y-93629491D01*
X156286135Y-93609769D01*
X156288619Y-93606567D01*
X156296317Y-93597555D01*
X156321161Y-93571098D01*
X156326586Y-93565321D01*
X156336347Y-93547566D01*
X156347198Y-93531047D01*
X156359614Y-93515041D01*
X156362764Y-93507762D01*
X156377174Y-93474463D01*
X156382391Y-93463813D01*
X156403695Y-93425060D01*
X156408733Y-93405437D01*
X156415137Y-93386734D01*
X156420033Y-93375420D01*
X156420033Y-93375419D01*
X156423181Y-93368145D01*
X156424420Y-93360322D01*
X156424423Y-93360312D01*
X156430099Y-93324476D01*
X156432505Y-93312856D01*
X156441528Y-93277711D01*
X156441528Y-93277710D01*
X156443500Y-93270030D01*
X156443500Y-93249776D01*
X156445051Y-93230065D01*
X156446980Y-93217886D01*
X156448220Y-93210057D01*
X156444059Y-93166038D01*
X156443500Y-93154181D01*
X156443500Y-89321731D01*
X156463502Y-89253610D01*
X156497230Y-89218518D01*
X156598169Y-89147840D01*
X156602681Y-89144681D01*
X156754681Y-88992681D01*
X156877976Y-88816596D01*
X156965805Y-88628247D01*
X157012723Y-88574962D01*
X157081000Y-88555501D01*
X157148960Y-88576043D01*
X157194195Y-88628247D01*
X157282024Y-88816596D01*
X157405319Y-88992681D01*
X157557319Y-89144681D01*
X157733403Y-89267976D01*
X157738381Y-89270297D01*
X157738384Y-89270299D01*
X157923241Y-89356499D01*
X157928223Y-89358822D01*
X157933531Y-89360244D01*
X157933533Y-89360245D01*
X158130543Y-89413034D01*
X158130545Y-89413034D01*
X158135858Y-89414458D01*
X158350000Y-89433193D01*
X158564142Y-89414458D01*
X158569455Y-89413034D01*
X158569457Y-89413034D01*
X158766467Y-89360245D01*
X158766469Y-89360244D01*
X158771777Y-89358822D01*
X158776759Y-89356499D01*
X158961616Y-89270299D01*
X158961619Y-89270297D01*
X158966597Y-89267976D01*
X159142681Y-89144681D01*
X159294681Y-88992681D01*
X159417976Y-88816596D01*
X159508822Y-88621777D01*
X159521077Y-88576043D01*
X159563034Y-88419457D01*
X159563034Y-88419455D01*
X159564458Y-88414142D01*
X159583193Y-88200000D01*
X159564458Y-87985858D01*
X159521366Y-87825038D01*
X159510245Y-87783533D01*
X159510244Y-87783531D01*
X159508822Y-87778223D01*
X159417976Y-87583404D01*
X159294681Y-87407319D01*
X159195405Y-87308043D01*
X159161379Y-87245731D01*
X159158500Y-87218948D01*
X159158500Y-81559164D01*
X159158507Y-81557845D01*
X159159376Y-81474826D01*
X159159450Y-81467779D01*
X159150290Y-81425414D01*
X159148230Y-81412835D01*
X159144182Y-81376741D01*
X159144181Y-81376738D01*
X159143397Y-81369745D01*
X159132366Y-81338068D01*
X159128204Y-81323258D01*
X159122609Y-81297378D01*
X159122608Y-81297374D01*
X159121119Y-81290489D01*
X159118142Y-81284105D01*
X159118140Y-81284099D01*
X159102796Y-81251193D01*
X159098000Y-81239383D01*
X159090078Y-81216635D01*
X159083745Y-81198448D01*
X159080013Y-81192476D01*
X159080010Y-81192469D01*
X159065973Y-81170005D01*
X159058634Y-81156488D01*
X159047439Y-81132481D01*
X159047437Y-81132477D01*
X159044462Y-81126098D01*
X159017892Y-81091844D01*
X159010598Y-81081388D01*
X158987626Y-81044624D01*
X158959017Y-81015815D01*
X158958434Y-81015192D01*
X158957921Y-81014530D01*
X158932073Y-80988682D01*
X158859815Y-80915918D01*
X158858777Y-80915259D01*
X158857544Y-80914153D01*
X156978235Y-79034843D01*
X156977307Y-79033906D01*
X156919157Y-78974525D01*
X156919156Y-78974524D01*
X156914229Y-78969493D01*
X156877779Y-78946002D01*
X156867454Y-78938583D01*
X156833557Y-78911524D01*
X156803362Y-78896927D01*
X156789945Y-78889398D01*
X156787942Y-78888107D01*
X156761762Y-78871235D01*
X156755145Y-78868827D01*
X156755140Y-78868824D01*
X156721027Y-78856408D01*
X156709284Y-78851447D01*
X156676597Y-78835646D01*
X156676592Y-78835644D01*
X156670251Y-78832579D01*
X156663393Y-78830996D01*
X156663391Y-78830995D01*
X156637574Y-78825035D01*
X156622831Y-78820668D01*
X156591315Y-78809197D01*
X156584325Y-78808314D01*
X156584317Y-78808312D01*
X156548299Y-78803762D01*
X156535747Y-78801526D01*
X156500386Y-78793362D01*
X156500383Y-78793362D01*
X156493515Y-78791776D01*
X156486469Y-78791751D01*
X156486466Y-78791751D01*
X156452944Y-78791634D01*
X156452062Y-78791605D01*
X156451231Y-78791500D01*
X156414581Y-78791500D01*
X156414141Y-78791499D01*
X156315657Y-78791155D01*
X156315652Y-78791155D01*
X156312130Y-78791143D01*
X156310930Y-78791411D01*
X156309293Y-78791500D01*
X149609260Y-78791500D01*
X149607941Y-78791493D01*
X149517779Y-78790549D01*
X149510893Y-78792038D01*
X149510891Y-78792038D01*
X149504768Y-78793362D01*
X149475403Y-78799711D01*
X149462837Y-78801769D01*
X149419745Y-78806603D01*
X149413094Y-78808919D01*
X149413090Y-78808920D01*
X149388070Y-78817633D01*
X149373257Y-78821796D01*
X149340490Y-78828881D01*
X149301189Y-78847207D01*
X149289406Y-78851992D01*
X149248448Y-78866255D01*
X149234370Y-78875052D01*
X149220016Y-78884021D01*
X149206499Y-78891360D01*
X149182481Y-78902560D01*
X149182477Y-78902562D01*
X149176098Y-78905537D01*
X149170534Y-78909853D01*
X149170532Y-78909854D01*
X149141840Y-78932109D01*
X149131385Y-78939403D01*
X149094624Y-78962374D01*
X149089627Y-78967336D01*
X149089626Y-78967337D01*
X149065821Y-78990976D01*
X149065196Y-78991561D01*
X149064530Y-78992078D01*
X149038540Y-79018068D01*
X148965918Y-79090185D01*
X148965260Y-79091222D01*
X148964157Y-79092451D01*
X148348088Y-79708520D01*
X148310242Y-79734532D01*
X148149278Y-79806197D01*
X148149276Y-79806198D01*
X148143248Y-79808882D01*
X147988747Y-79921134D01*
X147984326Y-79926044D01*
X147984325Y-79926045D01*
X147913155Y-80005088D01*
X147860960Y-80063056D01*
X147765473Y-80228444D01*
X147706458Y-80410072D01*
X147705768Y-80416633D01*
X147705768Y-80416635D01*
X147691485Y-80552534D01*
X147686496Y-80600000D01*
X130308500Y-80600000D01*
X130308500Y-79166695D01*
X132937251Y-79166695D01*
X132937548Y-79171848D01*
X132937548Y-79171851D01*
X132943011Y-79266590D01*
X132950110Y-79389715D01*
X132951247Y-79394761D01*
X132951248Y-79394767D01*
X132971119Y-79482939D01*
X132999222Y-79607639D01*
X133037461Y-79701811D01*
X133080938Y-79808882D01*
X133083266Y-79814616D01*
X133085965Y-79819020D01*
X133151550Y-79926045D01*
X133199987Y-80005088D01*
X133346250Y-80173938D01*
X133518126Y-80316632D01*
X133711000Y-80429338D01*
X133919692Y-80509030D01*
X133924760Y-80510061D01*
X133924763Y-80510062D01*
X134028690Y-80531206D01*
X134138597Y-80553567D01*
X134143772Y-80553757D01*
X134143774Y-80553757D01*
X134356673Y-80561564D01*
X134356677Y-80561564D01*
X134361837Y-80561753D01*
X134366957Y-80561097D01*
X134366959Y-80561097D01*
X134578288Y-80534025D01*
X134578289Y-80534025D01*
X134583416Y-80533368D01*
X134588366Y-80531883D01*
X134792429Y-80470661D01*
X134792434Y-80470659D01*
X134797384Y-80469174D01*
X134997994Y-80370896D01*
X135179860Y-80241173D01*
X135338096Y-80083489D01*
X135397594Y-80000689D01*
X135465435Y-79906277D01*
X135468453Y-79902077D01*
X135512595Y-79812763D01*
X135565136Y-79706453D01*
X135565137Y-79706451D01*
X135567430Y-79701811D01*
X135632370Y-79488069D01*
X135661529Y-79266590D01*
X135663156Y-79200000D01*
X135644852Y-78977361D01*
X135590431Y-78760702D01*
X135501354Y-78555840D01*
X135380014Y-78368277D01*
X135229670Y-78203051D01*
X135225619Y-78199852D01*
X135225615Y-78199848D01*
X135058414Y-78067800D01*
X135058410Y-78067798D01*
X135054359Y-78064598D01*
X134858789Y-77956638D01*
X134853920Y-77954914D01*
X134853916Y-77954912D01*
X134653087Y-77883795D01*
X134653083Y-77883794D01*
X134648212Y-77882069D01*
X134643119Y-77881162D01*
X134643116Y-77881161D01*
X134433373Y-77843800D01*
X134433367Y-77843799D01*
X134428284Y-77842894D01*
X134354452Y-77841992D01*
X134210081Y-77840228D01*
X134210079Y-77840228D01*
X134204911Y-77840165D01*
X133984091Y-77873955D01*
X133771756Y-77943357D01*
X133573607Y-78046507D01*
X133569474Y-78049610D01*
X133569471Y-78049612D01*
X133545247Y-78067800D01*
X133394965Y-78180635D01*
X133240629Y-78342138D01*
X133114743Y-78526680D01*
X133020688Y-78729305D01*
X132960989Y-78944570D01*
X132937251Y-79166695D01*
X130308500Y-79166695D01*
X130308500Y-77148134D01*
X158851500Y-77148134D01*
X158858255Y-77210316D01*
X158909385Y-77346705D01*
X158996739Y-77463261D01*
X159113295Y-77550615D01*
X159249684Y-77601745D01*
X159311866Y-77608500D01*
X161208134Y-77608500D01*
X161270316Y-77601745D01*
X161406705Y-77550615D01*
X161523261Y-77463261D01*
X161610615Y-77346705D01*
X161635180Y-77281178D01*
X161677822Y-77224414D01*
X161744383Y-77199714D01*
X161813732Y-77214921D01*
X161833647Y-77228464D01*
X161898724Y-77282492D01*
X161989349Y-77357730D01*
X162189322Y-77474584D01*
X162405694Y-77557209D01*
X162410760Y-77558240D01*
X162410761Y-77558240D01*
X162463846Y-77569040D01*
X162632656Y-77603385D01*
X162762089Y-77608131D01*
X162858949Y-77611683D01*
X162858953Y-77611683D01*
X162864113Y-77611872D01*
X162869233Y-77611216D01*
X162869235Y-77611216D01*
X162943166Y-77601745D01*
X163093847Y-77582442D01*
X163098795Y-77580957D01*
X163098802Y-77580956D01*
X163310747Y-77517369D01*
X163315690Y-77515886D01*
X163396236Y-77476427D01*
X163519049Y-77416262D01*
X163519052Y-77416260D01*
X163523684Y-77413991D01*
X163712243Y-77279494D01*
X163844062Y-77148134D01*
X169616500Y-77148134D01*
X169623255Y-77210316D01*
X169674385Y-77346705D01*
X169761739Y-77463261D01*
X169878295Y-77550615D01*
X170014684Y-77601745D01*
X170076866Y-77608500D01*
X171973134Y-77608500D01*
X172035316Y-77601745D01*
X172171705Y-77550615D01*
X172288261Y-77463261D01*
X172375615Y-77346705D01*
X172400180Y-77281178D01*
X172442822Y-77224414D01*
X172509383Y-77199714D01*
X172578732Y-77214921D01*
X172598647Y-77228464D01*
X172663724Y-77282492D01*
X172754349Y-77357730D01*
X172954322Y-77474584D01*
X173170694Y-77557209D01*
X173175760Y-77558240D01*
X173175761Y-77558240D01*
X173228846Y-77569040D01*
X173397656Y-77603385D01*
X173527089Y-77608131D01*
X173623949Y-77611683D01*
X173623953Y-77611683D01*
X173629113Y-77611872D01*
X173634233Y-77611216D01*
X173634235Y-77611216D01*
X173708166Y-77601745D01*
X173858847Y-77582442D01*
X173863795Y-77580957D01*
X173863802Y-77580956D01*
X174075747Y-77517369D01*
X174080690Y-77515886D01*
X174161236Y-77476427D01*
X174284049Y-77416262D01*
X174284052Y-77416260D01*
X174288684Y-77413991D01*
X174477243Y-77279494D01*
X174641303Y-77116005D01*
X174776458Y-76927917D01*
X174879078Y-76720280D01*
X174946408Y-76498671D01*
X174976640Y-76269041D01*
X174978327Y-76200000D01*
X174972032Y-76123434D01*
X174959773Y-75974318D01*
X174959772Y-75974312D01*
X174959349Y-75969167D01*
X174902925Y-75744533D01*
X174810570Y-75532131D01*
X174684764Y-75337665D01*
X174528887Y-75166358D01*
X174524836Y-75163159D01*
X174524832Y-75163155D01*
X174351177Y-75026011D01*
X174351172Y-75026008D01*
X174347123Y-75022810D01*
X174342607Y-75020317D01*
X174342604Y-75020315D01*
X174148879Y-74913373D01*
X174148875Y-74913371D01*
X174144355Y-74910876D01*
X174139486Y-74909152D01*
X174139482Y-74909150D01*
X173930903Y-74835288D01*
X173930899Y-74835287D01*
X173926028Y-74833562D01*
X173920935Y-74832655D01*
X173920932Y-74832654D01*
X173703095Y-74793851D01*
X173703089Y-74793850D01*
X173698006Y-74792945D01*
X173625096Y-74792054D01*
X173471581Y-74790179D01*
X173471579Y-74790179D01*
X173466411Y-74790116D01*
X173237464Y-74825150D01*
X173017314Y-74897106D01*
X173012726Y-74899494D01*
X173012722Y-74899496D01*
X172816461Y-75001663D01*
X172811872Y-75004052D01*
X172807739Y-75007155D01*
X172807736Y-75007157D01*
X172735088Y-75061703D01*
X172626655Y-75143117D01*
X172609170Y-75161414D01*
X172547646Y-75196844D01*
X172476733Y-75193387D01*
X172418947Y-75152141D01*
X172400094Y-75118592D01*
X172378768Y-75061705D01*
X172378767Y-75061703D01*
X172375615Y-75053295D01*
X172288261Y-74936739D01*
X172171705Y-74849385D01*
X172035316Y-74798255D01*
X171973134Y-74791500D01*
X170076866Y-74791500D01*
X170014684Y-74798255D01*
X169878295Y-74849385D01*
X169761739Y-74936739D01*
X169674385Y-75053295D01*
X169623255Y-75189684D01*
X169616500Y-75251866D01*
X169616500Y-77148134D01*
X163844062Y-77148134D01*
X163876303Y-77116005D01*
X164011458Y-76927917D01*
X164114078Y-76720280D01*
X164181408Y-76498671D01*
X164211640Y-76269041D01*
X164213327Y-76200000D01*
X164207032Y-76123434D01*
X164194773Y-75974318D01*
X164194772Y-75974312D01*
X164194349Y-75969167D01*
X164137925Y-75744533D01*
X164045570Y-75532131D01*
X163919764Y-75337665D01*
X163763887Y-75166358D01*
X163759836Y-75163159D01*
X163759832Y-75163155D01*
X163586177Y-75026011D01*
X163586172Y-75026008D01*
X163582123Y-75022810D01*
X163577607Y-75020317D01*
X163577604Y-75020315D01*
X163383879Y-74913373D01*
X163383875Y-74913371D01*
X163379355Y-74910876D01*
X163374486Y-74909152D01*
X163374482Y-74909150D01*
X163165903Y-74835288D01*
X163165899Y-74835287D01*
X163161028Y-74833562D01*
X163155935Y-74832655D01*
X163155932Y-74832654D01*
X162938095Y-74793851D01*
X162938089Y-74793850D01*
X162933006Y-74792945D01*
X162860096Y-74792054D01*
X162706581Y-74790179D01*
X162706579Y-74790179D01*
X162701411Y-74790116D01*
X162472464Y-74825150D01*
X162252314Y-74897106D01*
X162247726Y-74899494D01*
X162247722Y-74899496D01*
X162051461Y-75001663D01*
X162046872Y-75004052D01*
X162042739Y-75007155D01*
X162042736Y-75007157D01*
X161970088Y-75061703D01*
X161861655Y-75143117D01*
X161844170Y-75161414D01*
X161782646Y-75196844D01*
X161711733Y-75193387D01*
X161653947Y-75152141D01*
X161635094Y-75118592D01*
X161613768Y-75061705D01*
X161613767Y-75061703D01*
X161610615Y-75053295D01*
X161523261Y-74936739D01*
X161406705Y-74849385D01*
X161270316Y-74798255D01*
X161208134Y-74791500D01*
X159311866Y-74791500D01*
X159249684Y-74798255D01*
X159113295Y-74849385D01*
X158996739Y-74936739D01*
X158909385Y-75053295D01*
X158858255Y-75189684D01*
X158851500Y-75251866D01*
X158851500Y-77148134D01*
X130308500Y-77148134D01*
X130308500Y-64753250D01*
X130310246Y-64732345D01*
X130312770Y-64717344D01*
X130312770Y-64717341D01*
X130313576Y-64712552D01*
X130313729Y-64700000D01*
X130313040Y-64695188D01*
X130313039Y-64695174D01*
X130311138Y-64681902D01*
X130309945Y-64659542D01*
X130312109Y-64598971D01*
X130317212Y-64456081D01*
X130326154Y-64205725D01*
X130326796Y-64196754D01*
X130332023Y-64148134D01*
X141616500Y-64148134D01*
X141623255Y-64210316D01*
X141674385Y-64346705D01*
X141761739Y-64463261D01*
X141878295Y-64550615D01*
X142014684Y-64601745D01*
X142076866Y-64608500D01*
X143973134Y-64608500D01*
X144035316Y-64601745D01*
X144171705Y-64550615D01*
X144288261Y-64463261D01*
X144375615Y-64346705D01*
X144400180Y-64281178D01*
X144442822Y-64224414D01*
X144509383Y-64199714D01*
X144578732Y-64214921D01*
X144598647Y-64228464D01*
X144710985Y-64321729D01*
X144750620Y-64380632D01*
X144756500Y-64418673D01*
X144756500Y-64447918D01*
X144736498Y-64516039D01*
X144719595Y-64537014D01*
X144234796Y-65021812D01*
X144233859Y-65022739D01*
X144169493Y-65085771D01*
X144146002Y-65122221D01*
X144138583Y-65132546D01*
X144111524Y-65166443D01*
X144108459Y-65172784D01*
X144108458Y-65172785D01*
X144096928Y-65196637D01*
X144089399Y-65210054D01*
X144071235Y-65238238D01*
X144068827Y-65244855D01*
X144068824Y-65244860D01*
X144056408Y-65278973D01*
X144051447Y-65290716D01*
X144035646Y-65323403D01*
X144035644Y-65323408D01*
X144032579Y-65329749D01*
X144030996Y-65336607D01*
X144030995Y-65336609D01*
X144025035Y-65362426D01*
X144020668Y-65377169D01*
X144009197Y-65408685D01*
X144008314Y-65415675D01*
X144008312Y-65415683D01*
X144003762Y-65451701D01*
X144001526Y-65464253D01*
X144000483Y-65468774D01*
X143991776Y-65506485D01*
X143991751Y-65513531D01*
X143991751Y-65513534D01*
X143991634Y-65547056D01*
X143991605Y-65547938D01*
X143991500Y-65548769D01*
X143991500Y-65585419D01*
X143991499Y-65585859D01*
X143991210Y-65668774D01*
X143991143Y-65687870D01*
X143991411Y-65689070D01*
X143991500Y-65690707D01*
X143991500Y-70990786D01*
X143991493Y-70992106D01*
X143990549Y-71082221D01*
X143999711Y-71124597D01*
X144001769Y-71137163D01*
X144006603Y-71180255D01*
X144008919Y-71186906D01*
X144008920Y-71186910D01*
X144017633Y-71211930D01*
X144021796Y-71226742D01*
X144028881Y-71259510D01*
X144047208Y-71298813D01*
X144051990Y-71310589D01*
X144066255Y-71351552D01*
X144069989Y-71357527D01*
X144069990Y-71357530D01*
X144084027Y-71379995D01*
X144091366Y-71393512D01*
X144102559Y-71417514D01*
X144105538Y-71423902D01*
X144109855Y-71429467D01*
X144109856Y-71429469D01*
X144132106Y-71458153D01*
X144139402Y-71468612D01*
X144162374Y-71505376D01*
X144167334Y-71510371D01*
X144167335Y-71510372D01*
X144190976Y-71534179D01*
X144191561Y-71534804D01*
X144192078Y-71535470D01*
X144218068Y-71561460D01*
X144290185Y-71634082D01*
X144291222Y-71634740D01*
X144292451Y-71635843D01*
X145313908Y-72657300D01*
X145344646Y-72707458D01*
X145365473Y-72771556D01*
X145460960Y-72936944D01*
X145465378Y-72941851D01*
X145465379Y-72941852D01*
X145579660Y-73068774D01*
X145588747Y-73078866D01*
X145743248Y-73191118D01*
X145749276Y-73193802D01*
X145749278Y-73193803D01*
X145841200Y-73234729D01*
X145917712Y-73268794D01*
X146011113Y-73288647D01*
X146098056Y-73307128D01*
X146098061Y-73307128D01*
X146104513Y-73308500D01*
X146295487Y-73308500D01*
X146301939Y-73307128D01*
X146301944Y-73307128D01*
X146388887Y-73288647D01*
X146482288Y-73268794D01*
X146558800Y-73234729D01*
X146650722Y-73193803D01*
X146650724Y-73193802D01*
X146656752Y-73191118D01*
X146811253Y-73078866D01*
X146820340Y-73068774D01*
X146934621Y-72941852D01*
X146934622Y-72941851D01*
X146939040Y-72936944D01*
X147034527Y-72771556D01*
X147093542Y-72589928D01*
X147094872Y-72577279D01*
X147112814Y-72406565D01*
X147113504Y-72400000D01*
X147093542Y-72210072D01*
X147034527Y-72028444D01*
X146939040Y-71863056D01*
X146811253Y-71721134D01*
X146712157Y-71649136D01*
X146662094Y-71612763D01*
X146662093Y-71612762D01*
X146656752Y-71608882D01*
X146650724Y-71606198D01*
X146650722Y-71606197D01*
X146497168Y-71537831D01*
X146489757Y-71534532D01*
X146451912Y-71508520D01*
X145645405Y-70702013D01*
X145611379Y-70639701D01*
X145608500Y-70612918D01*
X145608500Y-69995198D01*
X145628502Y-69927077D01*
X145682158Y-69880584D01*
X145752432Y-69870480D01*
X145808562Y-69893262D01*
X145943248Y-69991118D01*
X145949276Y-69993802D01*
X145949278Y-69993803D01*
X146110242Y-70065468D01*
X146148088Y-70091480D01*
X146421766Y-70365158D01*
X146422694Y-70366095D01*
X146485771Y-70430507D01*
X146522221Y-70453998D01*
X146532546Y-70461417D01*
X146566443Y-70488476D01*
X146572784Y-70491541D01*
X146572785Y-70491542D01*
X146596637Y-70503072D01*
X146610054Y-70510601D01*
X146638238Y-70528765D01*
X146644855Y-70531173D01*
X146644860Y-70531176D01*
X146678973Y-70543592D01*
X146690716Y-70548553D01*
X146723403Y-70564354D01*
X146723408Y-70564356D01*
X146729749Y-70567421D01*
X146736607Y-70569004D01*
X146736609Y-70569005D01*
X146762426Y-70574965D01*
X146777169Y-70579332D01*
X146808685Y-70590803D01*
X146815675Y-70591686D01*
X146815683Y-70591688D01*
X146851701Y-70596238D01*
X146864253Y-70598474D01*
X146899614Y-70606638D01*
X146899617Y-70606638D01*
X146906485Y-70608224D01*
X146913531Y-70608249D01*
X146913534Y-70608249D01*
X146947056Y-70608366D01*
X146947938Y-70608395D01*
X146948769Y-70608500D01*
X146985419Y-70608500D01*
X146985859Y-70608501D01*
X147084343Y-70608845D01*
X147084348Y-70608845D01*
X147087870Y-70608857D01*
X147089070Y-70608589D01*
X147090707Y-70608500D01*
X149212918Y-70608500D01*
X149281039Y-70628502D01*
X149302013Y-70645405D01*
X150113908Y-71457300D01*
X150144646Y-71507458D01*
X150162193Y-71561460D01*
X150165473Y-71571556D01*
X150260960Y-71736944D01*
X150388747Y-71878866D01*
X150543248Y-71991118D01*
X150549276Y-71993802D01*
X150549278Y-71993803D01*
X150641200Y-72034729D01*
X150717712Y-72068794D01*
X150811113Y-72088647D01*
X150898056Y-72107128D01*
X150898061Y-72107128D01*
X150904513Y-72108500D01*
X151095487Y-72108500D01*
X151101939Y-72107128D01*
X151101944Y-72107128D01*
X151188887Y-72088647D01*
X151282288Y-72068794D01*
X151358800Y-72034729D01*
X151450722Y-71993803D01*
X151450724Y-71993802D01*
X151456752Y-71991118D01*
X151611253Y-71878866D01*
X151739040Y-71736944D01*
X151834527Y-71571556D01*
X151893542Y-71389928D01*
X151897576Y-71351552D01*
X151912814Y-71206565D01*
X151913504Y-71200000D01*
X151901125Y-71082221D01*
X151894232Y-71016635D01*
X151894232Y-71016633D01*
X151893542Y-71010072D01*
X151834527Y-70828444D01*
X151739040Y-70663056D01*
X151707928Y-70628502D01*
X151615675Y-70526045D01*
X151615674Y-70526044D01*
X151611253Y-70521134D01*
X151456752Y-70408882D01*
X151450724Y-70406198D01*
X151450722Y-70406197D01*
X151289758Y-70334532D01*
X151251912Y-70308520D01*
X150178234Y-69234842D01*
X150177306Y-69233905D01*
X150119157Y-69174525D01*
X150119156Y-69174524D01*
X150114229Y-69169493D01*
X150077779Y-69146002D01*
X150067454Y-69138583D01*
X150033557Y-69111524D01*
X150003362Y-69096927D01*
X149989945Y-69089398D01*
X149980514Y-69083320D01*
X149961762Y-69071235D01*
X149955145Y-69068827D01*
X149955140Y-69068824D01*
X149921027Y-69056408D01*
X149909284Y-69051447D01*
X149876597Y-69035646D01*
X149876592Y-69035644D01*
X149870251Y-69032579D01*
X149863393Y-69030996D01*
X149863391Y-69030995D01*
X149837574Y-69025035D01*
X149822831Y-69020668D01*
X149791315Y-69009197D01*
X149784325Y-69008314D01*
X149784317Y-69008312D01*
X149748299Y-69003762D01*
X149735747Y-69001526D01*
X149700386Y-68993362D01*
X149700383Y-68993362D01*
X149693515Y-68991776D01*
X149686469Y-68991751D01*
X149686466Y-68991751D01*
X149652944Y-68991634D01*
X149652062Y-68991605D01*
X149651231Y-68991500D01*
X149614581Y-68991500D01*
X149614141Y-68991499D01*
X149515657Y-68991155D01*
X149515652Y-68991155D01*
X149512130Y-68991143D01*
X149510930Y-68991411D01*
X149509293Y-68991500D01*
X147856082Y-68991500D01*
X147787961Y-68971498D01*
X147741468Y-68917842D01*
X147731364Y-68847568D01*
X147760858Y-68782988D01*
X147766987Y-68776405D01*
X147897987Y-68645405D01*
X147960299Y-68611379D01*
X147987082Y-68608500D01*
X153198529Y-68608500D01*
X153266650Y-68628502D01*
X153313143Y-68682158D01*
X153323247Y-68752432D01*
X153318363Y-68773432D01*
X153306458Y-68810072D01*
X153305768Y-68816633D01*
X153305768Y-68816635D01*
X153287375Y-68991634D01*
X153286496Y-69000000D01*
X153287186Y-69006565D01*
X153303910Y-69165682D01*
X153306458Y-69189928D01*
X153365473Y-69371556D01*
X153368776Y-69377278D01*
X153368777Y-69377279D01*
X153400191Y-69431690D01*
X153460960Y-69536944D01*
X153588747Y-69678866D01*
X153743248Y-69791118D01*
X153749274Y-69793801D01*
X153749281Y-69793805D01*
X153916748Y-69868365D01*
X153970844Y-69914345D01*
X153991500Y-69983472D01*
X153991500Y-71469710D01*
X153971498Y-71537831D01*
X153959136Y-71554020D01*
X153865379Y-71658148D01*
X153860960Y-71663056D01*
X153765473Y-71828444D01*
X153706458Y-72010072D01*
X153705768Y-72016633D01*
X153705768Y-72016635D01*
X153704527Y-72028444D01*
X153686496Y-72200000D01*
X153706458Y-72389928D01*
X153765473Y-72571556D01*
X153860960Y-72736944D01*
X153988747Y-72878866D01*
X154143248Y-72991118D01*
X154149276Y-72993802D01*
X154149278Y-72993803D01*
X154304824Y-73063056D01*
X154317712Y-73068794D01*
X154383365Y-73082749D01*
X154498056Y-73107128D01*
X154498061Y-73107128D01*
X154504513Y-73108500D01*
X154695487Y-73108500D01*
X154701939Y-73107128D01*
X154701944Y-73107128D01*
X154816635Y-73082749D01*
X154882288Y-73068794D01*
X154895176Y-73063056D01*
X155050722Y-72993803D01*
X155050724Y-72993802D01*
X155056752Y-72991118D01*
X155211253Y-72878866D01*
X155339040Y-72736944D01*
X155434527Y-72571556D01*
X155493542Y-72389928D01*
X155513504Y-72200000D01*
X155495473Y-72028444D01*
X155494232Y-72016635D01*
X155494232Y-72016633D01*
X155493542Y-72010072D01*
X155434527Y-71828444D01*
X155339040Y-71663056D01*
X155334621Y-71658148D01*
X155240864Y-71554020D01*
X155210146Y-71490013D01*
X155208500Y-71469710D01*
X155208500Y-69448136D01*
X155209578Y-69431690D01*
X155212672Y-69408188D01*
X155213750Y-69400000D01*
X155208500Y-69360122D01*
X155208500Y-69360115D01*
X155192838Y-69241150D01*
X155131524Y-69093125D01*
X155128007Y-69088542D01*
X155111538Y-69020668D01*
X155112087Y-69013483D01*
X155112814Y-69006568D01*
X155112814Y-69006565D01*
X155113504Y-69000000D01*
X155112625Y-68991634D01*
X155094232Y-68816635D01*
X155094232Y-68816633D01*
X155093542Y-68810072D01*
X155081638Y-68773435D01*
X155079610Y-68702469D01*
X155116272Y-68641671D01*
X155179984Y-68610346D01*
X155201471Y-68608500D01*
X155998529Y-68608500D01*
X156066650Y-68628502D01*
X156113143Y-68682158D01*
X156123247Y-68752432D01*
X156118363Y-68773432D01*
X156106458Y-68810072D01*
X156105768Y-68816633D01*
X156105768Y-68816635D01*
X156087375Y-68991634D01*
X156086496Y-69000000D01*
X156087186Y-69006565D01*
X156087186Y-69006567D01*
X156087913Y-69013481D01*
X156075144Y-69083320D01*
X156073115Y-69087078D01*
X156068476Y-69093124D01*
X156015639Y-69220684D01*
X156007162Y-69241150D01*
X156006084Y-69249341D01*
X155991500Y-69360115D01*
X155991500Y-69360120D01*
X155989995Y-69371556D01*
X155986250Y-69400000D01*
X155987328Y-69408188D01*
X155990422Y-69431690D01*
X155991500Y-69448136D01*
X155991500Y-72869710D01*
X155971498Y-72937831D01*
X155959136Y-72954020D01*
X155865379Y-73058148D01*
X155860960Y-73063056D01*
X155765473Y-73228444D01*
X155706458Y-73410072D01*
X155686496Y-73600000D01*
X155706458Y-73789928D01*
X155765473Y-73971556D01*
X155860960Y-74136944D01*
X155988747Y-74278866D01*
X156143248Y-74391118D01*
X156149276Y-74393802D01*
X156149278Y-74393803D01*
X156311681Y-74466109D01*
X156317712Y-74468794D01*
X156411112Y-74488647D01*
X156498056Y-74507128D01*
X156498061Y-74507128D01*
X156504513Y-74508500D01*
X156695487Y-74508500D01*
X156701939Y-74507128D01*
X156701944Y-74507128D01*
X156788888Y-74488647D01*
X156882288Y-74468794D01*
X156888319Y-74466109D01*
X157050722Y-74393803D01*
X157050724Y-74393802D01*
X157056752Y-74391118D01*
X157211253Y-74278866D01*
X157339040Y-74136944D01*
X157434527Y-73971556D01*
X157493542Y-73789928D01*
X157513504Y-73600000D01*
X157493542Y-73410072D01*
X157434527Y-73228444D01*
X157339040Y-73063056D01*
X157334621Y-73058148D01*
X157240864Y-72954020D01*
X157210146Y-72890013D01*
X157208500Y-72869710D01*
X157208500Y-69983472D01*
X157228502Y-69915351D01*
X157283252Y-69868365D01*
X157450719Y-69793805D01*
X157450726Y-69793801D01*
X157456752Y-69791118D01*
X157611253Y-69678866D01*
X157739040Y-69536944D01*
X157799809Y-69431690D01*
X157831223Y-69377279D01*
X157831224Y-69377278D01*
X157834527Y-69371556D01*
X157893542Y-69189928D01*
X157896091Y-69165682D01*
X157912814Y-69006565D01*
X157913504Y-69000000D01*
X157912625Y-68991634D01*
X157894232Y-68816635D01*
X157894232Y-68816633D01*
X157893542Y-68810072D01*
X157881638Y-68773435D01*
X157879610Y-68702469D01*
X157916272Y-68641671D01*
X157979984Y-68610346D01*
X158001471Y-68608500D01*
X170990786Y-68608500D01*
X170992106Y-68608507D01*
X171082221Y-68609451D01*
X171124597Y-68600289D01*
X171137163Y-68598231D01*
X171180255Y-68593397D01*
X171186906Y-68591081D01*
X171186910Y-68591080D01*
X171211930Y-68582367D01*
X171226742Y-68578204D01*
X171252619Y-68572609D01*
X171259510Y-68571119D01*
X171298813Y-68552792D01*
X171310589Y-68548010D01*
X171351552Y-68533745D01*
X171357527Y-68530011D01*
X171357530Y-68530010D01*
X171379995Y-68515973D01*
X171393512Y-68508634D01*
X171417514Y-68497441D01*
X171417515Y-68497440D01*
X171423902Y-68494462D01*
X171435107Y-68485771D01*
X171458153Y-68467894D01*
X171468612Y-68460598D01*
X171499404Y-68441358D01*
X171499407Y-68441356D01*
X171505376Y-68437626D01*
X171520842Y-68422268D01*
X171534179Y-68409024D01*
X171534804Y-68408439D01*
X171535470Y-68407922D01*
X171561460Y-68381932D01*
X171634082Y-68309815D01*
X171634740Y-68308778D01*
X171635843Y-68307549D01*
X173051912Y-66891480D01*
X173089758Y-66865468D01*
X173250722Y-66793803D01*
X173250724Y-66793802D01*
X173256752Y-66791118D01*
X173292720Y-66764986D01*
X173339186Y-66731226D01*
X173411253Y-66678866D01*
X173539040Y-66536944D01*
X173634527Y-66371556D01*
X173693542Y-66189928D01*
X173711245Y-66021498D01*
X173712814Y-66006565D01*
X173713504Y-66000000D01*
X173697905Y-65851583D01*
X173694232Y-65816635D01*
X173694232Y-65816633D01*
X173693542Y-65810072D01*
X173634527Y-65628444D01*
X173609941Y-65585859D01*
X173597314Y-65563990D01*
X173539040Y-65463056D01*
X173514591Y-65435902D01*
X173415675Y-65326045D01*
X173415674Y-65326044D01*
X173411253Y-65321134D01*
X173256752Y-65208882D01*
X173250724Y-65206198D01*
X173250722Y-65206197D01*
X173088319Y-65133891D01*
X173088318Y-65133891D01*
X173082288Y-65131206D01*
X172960185Y-65105252D01*
X172901944Y-65092872D01*
X172901939Y-65092872D01*
X172895487Y-65091500D01*
X172704513Y-65091500D01*
X172698061Y-65092872D01*
X172698056Y-65092872D01*
X172639815Y-65105252D01*
X172517712Y-65131206D01*
X172511682Y-65133891D01*
X172511681Y-65133891D01*
X172349278Y-65206197D01*
X172349276Y-65206198D01*
X172343248Y-65208882D01*
X172188747Y-65321134D01*
X172184326Y-65326044D01*
X172184325Y-65326045D01*
X172085410Y-65435902D01*
X172060960Y-65463056D01*
X172002686Y-65563990D01*
X171990060Y-65585859D01*
X171965473Y-65628444D01*
X171963432Y-65634726D01*
X171944646Y-65692543D01*
X171913908Y-65742701D01*
X170702013Y-66954595D01*
X170639701Y-66988621D01*
X170612918Y-66991500D01*
X158227794Y-66991500D01*
X158159673Y-66971498D01*
X158113180Y-66917842D01*
X158103076Y-66847568D01*
X158134158Y-66781190D01*
X158153163Y-66760083D01*
X158248650Y-66594695D01*
X158307665Y-66413067D01*
X158311427Y-66377279D01*
X158326937Y-66229704D01*
X158327627Y-66223139D01*
X158307665Y-66033211D01*
X158248650Y-65851583D01*
X158231987Y-65822721D01*
X158185787Y-65742701D01*
X158153163Y-65686195D01*
X158127910Y-65658148D01*
X158029798Y-65549184D01*
X158029797Y-65549183D01*
X158025376Y-65544273D01*
X157870875Y-65432021D01*
X157864847Y-65429337D01*
X157864845Y-65429336D01*
X157702442Y-65357030D01*
X157702441Y-65357030D01*
X157696411Y-65354345D01*
X157600183Y-65333891D01*
X157516067Y-65316011D01*
X157516062Y-65316011D01*
X157509610Y-65314639D01*
X157318636Y-65314639D01*
X157312184Y-65316011D01*
X157312179Y-65316011D01*
X157228063Y-65333891D01*
X157131835Y-65354345D01*
X157125805Y-65357030D01*
X157125804Y-65357030D01*
X156963401Y-65429336D01*
X156963399Y-65429337D01*
X156957371Y-65432021D01*
X156802870Y-65544273D01*
X156798449Y-65549183D01*
X156798448Y-65549184D01*
X156700337Y-65658148D01*
X156675083Y-65686195D01*
X156642459Y-65742701D01*
X156596260Y-65822721D01*
X156579596Y-65851583D01*
X156557704Y-65918961D01*
X156546177Y-65954436D01*
X156506104Y-66013042D01*
X156440707Y-66040679D01*
X156426344Y-66041500D01*
X152595298Y-66041500D01*
X152527177Y-66021498D01*
X152480684Y-65967842D01*
X152475465Y-65954437D01*
X152457123Y-65897987D01*
X152434527Y-65828444D01*
X152339040Y-65663056D01*
X152269136Y-65585419D01*
X152215675Y-65526045D01*
X152215674Y-65526044D01*
X152211253Y-65521134D01*
X152088600Y-65432021D01*
X152062094Y-65412763D01*
X152062093Y-65412762D01*
X152056752Y-65408882D01*
X152050724Y-65406198D01*
X152050722Y-65406197D01*
X151888319Y-65333891D01*
X151888318Y-65333891D01*
X151882288Y-65331206D01*
X151770422Y-65307428D01*
X151701944Y-65292872D01*
X151701939Y-65292872D01*
X151695487Y-65291500D01*
X151504513Y-65291500D01*
X151498061Y-65292872D01*
X151498056Y-65292872D01*
X151429578Y-65307428D01*
X151317712Y-65331206D01*
X151311682Y-65333891D01*
X151311681Y-65333891D01*
X151149278Y-65406197D01*
X151149276Y-65406198D01*
X151143248Y-65408882D01*
X151137907Y-65412762D01*
X151137906Y-65412763D01*
X151111400Y-65432021D01*
X150988747Y-65521134D01*
X150984326Y-65526044D01*
X150984325Y-65526045D01*
X150930865Y-65585419D01*
X150860960Y-65663056D01*
X150765473Y-65828444D01*
X150706458Y-66010072D01*
X150686496Y-66200000D01*
X150687186Y-66206565D01*
X150705129Y-66377279D01*
X150706458Y-66389928D01*
X150765473Y-66571556D01*
X150768776Y-66577278D01*
X150768777Y-66577279D01*
X150802686Y-66636010D01*
X150860960Y-66736944D01*
X150900801Y-66781192D01*
X150931517Y-66845198D01*
X150922752Y-66915651D01*
X150877289Y-66970182D01*
X150807163Y-66991500D01*
X147609165Y-66991500D01*
X147607846Y-66991493D01*
X147517779Y-66990550D01*
X147510893Y-66992039D01*
X147510891Y-66992039D01*
X147492313Y-66996056D01*
X147475414Y-66999710D01*
X147462835Y-67001770D01*
X147426741Y-67005818D01*
X147426738Y-67005819D01*
X147419745Y-67006603D01*
X147388068Y-67017634D01*
X147373258Y-67021796D01*
X147347378Y-67027391D01*
X147347374Y-67027392D01*
X147340489Y-67028881D01*
X147334105Y-67031858D01*
X147334099Y-67031860D01*
X147301193Y-67047204D01*
X147289384Y-67051999D01*
X147248448Y-67066255D01*
X147242476Y-67069987D01*
X147242469Y-67069990D01*
X147220005Y-67084027D01*
X147206488Y-67091366D01*
X147182481Y-67102561D01*
X147182477Y-67102563D01*
X147176098Y-67105538D01*
X147148184Y-67127190D01*
X147141844Y-67132108D01*
X147131395Y-67139397D01*
X147094624Y-67162374D01*
X147089625Y-67167339D01*
X147089623Y-67167340D01*
X147065815Y-67190983D01*
X147065192Y-67191566D01*
X147064530Y-67192079D01*
X147038681Y-67217928D01*
X146965918Y-67290185D01*
X146965259Y-67291223D01*
X146964153Y-67292456D01*
X145834843Y-68421765D01*
X145833906Y-68422693D01*
X145822658Y-68433708D01*
X145759993Y-68467079D01*
X145689234Y-68461273D01*
X145632847Y-68418134D01*
X145608734Y-68351358D01*
X145608500Y-68343685D01*
X145608500Y-65987082D01*
X145628502Y-65918961D01*
X145645405Y-65897987D01*
X146130158Y-65413234D01*
X146131095Y-65412306D01*
X146190475Y-65354157D01*
X146190476Y-65354156D01*
X146195507Y-65349229D01*
X146218998Y-65312779D01*
X146226417Y-65302454D01*
X146253476Y-65268557D01*
X146256540Y-65262218D01*
X146256543Y-65262214D01*
X146268074Y-65238362D01*
X146275601Y-65224949D01*
X146289947Y-65202687D01*
X146289948Y-65202684D01*
X146293765Y-65196762D01*
X146302492Y-65172785D01*
X146308592Y-65156027D01*
X146313553Y-65144283D01*
X146329352Y-65111601D01*
X146329353Y-65111599D01*
X146332421Y-65105252D01*
X146336919Y-65085771D01*
X146339966Y-65072573D01*
X146344334Y-65057825D01*
X146355803Y-65026315D01*
X146356685Y-65019329D01*
X146356687Y-65019323D01*
X146361238Y-64983299D01*
X146363474Y-64970747D01*
X146371638Y-64935386D01*
X146371638Y-64935383D01*
X146373224Y-64928515D01*
X146373366Y-64887944D01*
X146373395Y-64887062D01*
X146373500Y-64886231D01*
X146373500Y-64849428D01*
X146373857Y-64747130D01*
X146373589Y-64745930D01*
X146373500Y-64744293D01*
X146373500Y-64418387D01*
X146393502Y-64350266D01*
X146426331Y-64315809D01*
X146477243Y-64279494D01*
X146641303Y-64116005D01*
X146776458Y-63927917D01*
X146824172Y-63831376D01*
X146876784Y-63724922D01*
X146876785Y-63724920D01*
X146879078Y-63720280D01*
X146902156Y-63644320D01*
X151096404Y-63644320D01*
X151097140Y-63651323D01*
X151097140Y-63651324D01*
X151104876Y-63724922D01*
X151115364Y-63824712D01*
X151173818Y-63996421D01*
X151177512Y-64002425D01*
X151265051Y-64144717D01*
X151268862Y-64150912D01*
X151273793Y-64155947D01*
X151273795Y-64155950D01*
X151390843Y-64275475D01*
X151395771Y-64280507D01*
X151548238Y-64378765D01*
X151554858Y-64381174D01*
X151554861Y-64381176D01*
X151712066Y-64438394D01*
X151718685Y-64440803D01*
X151858769Y-64458500D01*
X151955610Y-64458500D01*
X152090255Y-64443397D01*
X152161253Y-64418673D01*
X152254894Y-64386064D01*
X152254897Y-64386062D01*
X152261552Y-64383745D01*
X152269522Y-64378765D01*
X152409402Y-64291359D01*
X152415376Y-64287626D01*
X152423565Y-64279494D01*
X152539085Y-64164778D01*
X152539088Y-64164774D01*
X152544082Y-64159815D01*
X152553664Y-64144717D01*
X152637494Y-64012620D01*
X152641273Y-64006666D01*
X152670966Y-63923278D01*
X152699757Y-63842425D01*
X152699758Y-63842420D01*
X152702119Y-63835790D01*
X152723596Y-63655680D01*
X152722402Y-63644320D01*
X156876404Y-63644320D01*
X156877140Y-63651323D01*
X156877140Y-63651324D01*
X156884876Y-63724922D01*
X156895364Y-63824712D01*
X156953818Y-63996421D01*
X156957512Y-64002425D01*
X157045051Y-64144717D01*
X157048862Y-64150912D01*
X157053793Y-64155947D01*
X157053795Y-64155950D01*
X157170843Y-64275475D01*
X157175771Y-64280507D01*
X157328238Y-64378765D01*
X157334858Y-64381174D01*
X157334861Y-64381176D01*
X157492066Y-64438394D01*
X157498685Y-64440803D01*
X157638769Y-64458500D01*
X157735610Y-64458500D01*
X157870255Y-64443397D01*
X157941253Y-64418673D01*
X158034894Y-64386064D01*
X158034897Y-64386062D01*
X158041552Y-64383745D01*
X158049522Y-64378765D01*
X158189402Y-64291359D01*
X158195376Y-64287626D01*
X158203565Y-64279494D01*
X158319085Y-64164778D01*
X158319088Y-64164774D01*
X158324082Y-64159815D01*
X158333664Y-64144717D01*
X158417494Y-64012620D01*
X158421273Y-64006666D01*
X158450966Y-63923278D01*
X158479757Y-63842425D01*
X158479758Y-63842420D01*
X158482119Y-63835790D01*
X158503596Y-63655680D01*
X158501667Y-63637327D01*
X158485372Y-63482288D01*
X158485371Y-63482286D01*
X158484636Y-63475288D01*
X158426182Y-63303579D01*
X158364530Y-63203365D01*
X158334834Y-63155095D01*
X158334832Y-63155092D01*
X158331138Y-63149088D01*
X158326207Y-63144053D01*
X158326205Y-63144050D01*
X158209157Y-63024525D01*
X158209156Y-63024524D01*
X158204229Y-63019493D01*
X158051762Y-62921235D01*
X158045142Y-62918826D01*
X158045139Y-62918824D01*
X157887934Y-62861606D01*
X157887933Y-62861606D01*
X157881315Y-62859197D01*
X157741231Y-62841500D01*
X157644390Y-62841500D01*
X157509745Y-62856603D01*
X157503092Y-62858920D01*
X157503091Y-62858920D01*
X157345106Y-62913936D01*
X157345103Y-62913938D01*
X157338448Y-62916255D01*
X157332469Y-62919991D01*
X157324367Y-62925054D01*
X157184624Y-63012374D01*
X157179628Y-63017335D01*
X157179627Y-63017336D01*
X157060915Y-63135222D01*
X157060912Y-63135226D01*
X157055918Y-63140185D01*
X156958727Y-63293334D01*
X156956362Y-63299976D01*
X156900243Y-63457575D01*
X156900242Y-63457580D01*
X156897881Y-63464210D01*
X156897048Y-63471198D01*
X156897047Y-63471201D01*
X156893182Y-63503617D01*
X156876404Y-63644320D01*
X152722402Y-63644320D01*
X152721667Y-63637327D01*
X152705372Y-63482288D01*
X152705371Y-63482286D01*
X152704636Y-63475288D01*
X152646182Y-63303579D01*
X152584530Y-63203365D01*
X152554834Y-63155095D01*
X152554832Y-63155092D01*
X152551138Y-63149088D01*
X152546207Y-63144053D01*
X152546205Y-63144050D01*
X152429157Y-63024525D01*
X152429156Y-63024524D01*
X152424229Y-63019493D01*
X152271762Y-62921235D01*
X152265142Y-62918826D01*
X152265139Y-62918824D01*
X152107934Y-62861606D01*
X152107933Y-62861606D01*
X152101315Y-62859197D01*
X151961231Y-62841500D01*
X151864390Y-62841500D01*
X151729745Y-62856603D01*
X151723092Y-62858920D01*
X151723091Y-62858920D01*
X151565106Y-62913936D01*
X151565103Y-62913938D01*
X151558448Y-62916255D01*
X151552469Y-62919991D01*
X151544367Y-62925054D01*
X151404624Y-63012374D01*
X151399628Y-63017335D01*
X151399627Y-63017336D01*
X151280915Y-63135222D01*
X151280912Y-63135226D01*
X151275918Y-63140185D01*
X151178727Y-63293334D01*
X151176362Y-63299976D01*
X151120243Y-63457575D01*
X151120242Y-63457580D01*
X151117881Y-63464210D01*
X151117048Y-63471198D01*
X151117047Y-63471201D01*
X151113182Y-63503617D01*
X151096404Y-63644320D01*
X146902156Y-63644320D01*
X146946408Y-63498671D01*
X146976640Y-63269041D01*
X146976722Y-63265691D01*
X146978245Y-63203365D01*
X146978245Y-63203361D01*
X146978327Y-63200000D01*
X146967612Y-63069672D01*
X146959773Y-62974318D01*
X146959772Y-62974312D01*
X146959349Y-62969167D01*
X146902925Y-62744533D01*
X146896722Y-62730267D01*
X146812630Y-62536868D01*
X146812628Y-62536865D01*
X146810570Y-62532131D01*
X146684764Y-62337665D01*
X146528887Y-62166358D01*
X146524836Y-62163159D01*
X146524832Y-62163155D01*
X146351177Y-62026011D01*
X146351172Y-62026008D01*
X146347123Y-62022810D01*
X146342607Y-62020317D01*
X146342604Y-62020315D01*
X146148879Y-61913373D01*
X146148875Y-61913371D01*
X146144355Y-61910876D01*
X146139486Y-61909152D01*
X146139482Y-61909150D01*
X145930903Y-61835288D01*
X145930899Y-61835287D01*
X145926028Y-61833562D01*
X145920935Y-61832655D01*
X145920932Y-61832654D01*
X145703095Y-61793851D01*
X145703089Y-61793850D01*
X145698006Y-61792945D01*
X145625096Y-61792054D01*
X145471581Y-61790179D01*
X145471579Y-61790179D01*
X145466411Y-61790116D01*
X145237464Y-61825150D01*
X145017314Y-61897106D01*
X145012726Y-61899494D01*
X145012722Y-61899496D01*
X144816461Y-62001663D01*
X144811872Y-62004052D01*
X144807739Y-62007155D01*
X144807736Y-62007157D01*
X144735088Y-62061703D01*
X144626655Y-62143117D01*
X144609170Y-62161414D01*
X144547646Y-62196844D01*
X144476733Y-62193387D01*
X144418947Y-62152141D01*
X144400094Y-62118592D01*
X144378768Y-62061705D01*
X144378767Y-62061703D01*
X144375615Y-62053295D01*
X144288261Y-61936739D01*
X144171705Y-61849385D01*
X144035316Y-61798255D01*
X143973134Y-61791500D01*
X142076866Y-61791500D01*
X142014684Y-61798255D01*
X141878295Y-61849385D01*
X141761739Y-61936739D01*
X141674385Y-62053295D01*
X141623255Y-62189684D01*
X141616500Y-62251866D01*
X141616500Y-64148134D01*
X130332023Y-64148134D01*
X130379182Y-63709482D01*
X130380462Y-63700578D01*
X130467479Y-63218278D01*
X130469391Y-63209489D01*
X130487080Y-63140185D01*
X130590593Y-62734622D01*
X130593126Y-62725997D01*
X130747898Y-62260980D01*
X130751037Y-62252565D01*
X130773830Y-62197540D01*
X130919346Y-61846233D01*
X130938588Y-61799779D01*
X130942325Y-61791597D01*
X131161690Y-61353360D01*
X131166000Y-61345466D01*
X131416080Y-60923981D01*
X131420943Y-60916414D01*
X131700451Y-60513845D01*
X131705841Y-60506645D01*
X132013350Y-60125049D01*
X132019240Y-60118251D01*
X132353197Y-59759557D01*
X132359557Y-59753197D01*
X132718251Y-59419240D01*
X132725049Y-59413350D01*
X133106645Y-59105841D01*
X133113845Y-59100451D01*
X133516414Y-58820943D01*
X133523981Y-58816080D01*
X133945466Y-58566000D01*
X133953360Y-58561690D01*
X134391597Y-58342325D01*
X134399779Y-58338588D01*
X134548148Y-58277131D01*
X134852576Y-58151033D01*
X134860980Y-58147898D01*
X135326002Y-57993125D01*
X135334622Y-57990593D01*
X135809491Y-57869391D01*
X135818275Y-57867480D01*
X136059428Y-57823970D01*
X136300578Y-57780462D01*
X136309482Y-57779182D01*
X136796754Y-57726796D01*
X136805725Y-57726154D01*
X137255769Y-57710080D01*
X137279649Y-57711500D01*
X137284848Y-57712310D01*
X137284855Y-57712310D01*
X137293724Y-57713691D01*
X137302626Y-57712527D01*
X137302628Y-57712527D01*
X137321338Y-57710080D01*
X137325286Y-57709564D01*
X137341621Y-57708500D01*
X172250633Y-57708500D01*
X172270018Y-57710000D01*
G37*
%TD.AperFunction*%
%TA.AperFunction,Conductor*%
G36*
X149159532Y-102817315D02*
G01*
X149216368Y-102859862D01*
X149241179Y-102926382D01*
X149241500Y-102935371D01*
X149241500Y-105433629D01*
X149221498Y-105501750D01*
X149204595Y-105522724D01*
X146243669Y-108483650D01*
X146180772Y-108517801D01*
X146124176Y-108529831D01*
X146124167Y-108529834D01*
X146117712Y-108531206D01*
X146111682Y-108533891D01*
X146111681Y-108533891D01*
X145949278Y-108606197D01*
X145949276Y-108606198D01*
X145943248Y-108608882D01*
X145788747Y-108721134D01*
X145784326Y-108726044D01*
X145784325Y-108726045D01*
X145679190Y-108842810D01*
X145660960Y-108863056D01*
X145657659Y-108868774D01*
X145587026Y-108991114D01*
X145565473Y-109028444D01*
X145506458Y-109210072D01*
X145505768Y-109216633D01*
X145505768Y-109216635D01*
X145494212Y-109326587D01*
X145486496Y-109400000D01*
X145487186Y-109406565D01*
X145499353Y-109522330D01*
X145486581Y-109592168D01*
X145438079Y-109644015D01*
X145374043Y-109661500D01*
X144042248Y-109661500D01*
X143974127Y-109641498D01*
X143927634Y-109587842D01*
X143917530Y-109517568D01*
X143947024Y-109452988D01*
X143990999Y-109420393D01*
X144050722Y-109393803D01*
X144050724Y-109393802D01*
X144056752Y-109391118D01*
X144211253Y-109278866D01*
X144309626Y-109169612D01*
X144334621Y-109141852D01*
X144334622Y-109141851D01*
X144339040Y-109136944D01*
X144434527Y-108971556D01*
X144489387Y-108802714D01*
X144520125Y-108752556D01*
X148288911Y-104983770D01*
X148303323Y-104971384D01*
X148314918Y-104962851D01*
X148314923Y-104962846D01*
X148320818Y-104958508D01*
X148325557Y-104952930D01*
X148325560Y-104952927D01*
X148355035Y-104918232D01*
X148361965Y-104910716D01*
X148367660Y-104905021D01*
X148385281Y-104882749D01*
X148388072Y-104879345D01*
X148430591Y-104829297D01*
X148430592Y-104829295D01*
X148435333Y-104823715D01*
X148438661Y-104817199D01*
X148442028Y-104812150D01*
X148445195Y-104807021D01*
X148449734Y-104801284D01*
X148480655Y-104735125D01*
X148482561Y-104731225D01*
X148515769Y-104666192D01*
X148517508Y-104659084D01*
X148519607Y-104653441D01*
X148521524Y-104647678D01*
X148524622Y-104641050D01*
X148539487Y-104569583D01*
X148540457Y-104565299D01*
X148551727Y-104519242D01*
X148557808Y-104494390D01*
X148558500Y-104483236D01*
X148558536Y-104483238D01*
X148558775Y-104479245D01*
X148559149Y-104475053D01*
X148560640Y-104467885D01*
X148558546Y-104390479D01*
X148558500Y-104387072D01*
X148558500Y-103366371D01*
X148578502Y-103298250D01*
X148595405Y-103277276D01*
X149026405Y-102846276D01*
X149088717Y-102812250D01*
X149159532Y-102817315D01*
G37*
%TD.AperFunction*%
%TA.AperFunction,Conductor*%
G36*
X155114796Y-91640535D02*
G01*
X155163173Y-91692498D01*
X155176500Y-91748896D01*
X155176500Y-92875406D01*
X155156498Y-92943527D01*
X155139595Y-92964501D01*
X153449500Y-94654595D01*
X153387188Y-94688621D01*
X153360405Y-94691500D01*
X153334500Y-94691500D01*
X153266379Y-94671498D01*
X153219886Y-94617842D01*
X153208500Y-94565500D01*
X153208500Y-93504239D01*
X153228502Y-93436118D01*
X153245405Y-93415144D01*
X154796234Y-91864315D01*
X154808625Y-91853448D01*
X154827437Y-91839013D01*
X154833987Y-91833987D01*
X154858474Y-91802075D01*
X154858477Y-91802072D01*
X154931523Y-91706876D01*
X154931524Y-91706875D01*
X154936274Y-91695408D01*
X154943169Y-91685089D01*
X154945434Y-91686602D01*
X154978641Y-91645396D01*
X155046005Y-91622976D01*
X155114796Y-91640535D01*
G37*
%TD.AperFunction*%
%TA.AperFunction,Conductor*%
G36*
X152606768Y-89235322D02*
G01*
X152653403Y-89267976D01*
X152658381Y-89270297D01*
X152658384Y-89270299D01*
X152843241Y-89356499D01*
X152848223Y-89358822D01*
X152853531Y-89360244D01*
X152853533Y-89360245D01*
X153050543Y-89413034D01*
X153050545Y-89413034D01*
X153055858Y-89414458D01*
X153270000Y-89433193D01*
X153484142Y-89414458D01*
X153489455Y-89413034D01*
X153489457Y-89413034D01*
X153632889Y-89374601D01*
X153703865Y-89376291D01*
X153762661Y-89416085D01*
X153790609Y-89481349D01*
X153791500Y-89496308D01*
X153791500Y-91095761D01*
X153771498Y-91163882D01*
X153754595Y-91184856D01*
X152623595Y-92315856D01*
X152561283Y-92349882D01*
X152490468Y-92344817D01*
X152433632Y-92302270D01*
X152408821Y-92235750D01*
X152408500Y-92226761D01*
X152408500Y-89338536D01*
X152428502Y-89270415D01*
X152482158Y-89223922D01*
X152552432Y-89213818D01*
X152606768Y-89235322D01*
G37*
%TD.AperFunction*%
%TA.AperFunction,Conductor*%
G36*
X156081039Y-80428502D02*
G01*
X156102013Y-80445405D01*
X157504595Y-81847987D01*
X157538621Y-81910299D01*
X157541500Y-81937082D01*
X157541500Y-87218948D01*
X157521498Y-87287069D01*
X157504595Y-87308043D01*
X157405319Y-87407319D01*
X157282024Y-87583404D01*
X157279703Y-87588382D01*
X157279701Y-87588385D01*
X157194195Y-87771753D01*
X157147277Y-87825038D01*
X157079000Y-87844499D01*
X157011040Y-87823957D01*
X156965805Y-87771753D01*
X156880299Y-87588385D01*
X156880297Y-87588382D01*
X156877976Y-87583404D01*
X156754681Y-87407319D01*
X156602681Y-87255319D01*
X156426597Y-87132024D01*
X156421619Y-87129703D01*
X156421616Y-87129701D01*
X156236759Y-87043501D01*
X156236758Y-87043500D01*
X156231777Y-87041178D01*
X156226469Y-87039756D01*
X156226467Y-87039755D01*
X156029457Y-86986966D01*
X156029455Y-86986966D01*
X156024142Y-86985542D01*
X155810000Y-86966807D01*
X155595858Y-86985542D01*
X155590545Y-86986966D01*
X155590543Y-86986966D01*
X155393533Y-87039755D01*
X155393531Y-87039756D01*
X155388223Y-87041178D01*
X155383243Y-87043500D01*
X155383241Y-87043501D01*
X155198398Y-87129695D01*
X155198396Y-87129696D01*
X155193404Y-87132024D01*
X155193061Y-87131288D01*
X155128516Y-87146952D01*
X155061422Y-87123737D01*
X155017530Y-87067934D01*
X155008500Y-87021094D01*
X155008500Y-84248136D01*
X155009578Y-84231690D01*
X155012672Y-84208188D01*
X155013750Y-84200000D01*
X155008500Y-84160122D01*
X155008500Y-84160115D01*
X154992838Y-84041150D01*
X154931524Y-83893125D01*
X154926497Y-83886574D01*
X154926495Y-83886570D01*
X154911722Y-83867318D01*
X154858483Y-83797936D01*
X154858477Y-83797928D01*
X154858474Y-83797925D01*
X154833987Y-83766013D01*
X154827432Y-83760983D01*
X154808621Y-83746548D01*
X154796230Y-83735681D01*
X154149719Y-83089170D01*
X154115693Y-83026858D01*
X154113159Y-83003284D01*
X154113504Y-83000000D01*
X154101181Y-82882749D01*
X154094232Y-82816635D01*
X154094232Y-82816633D01*
X154093542Y-82810072D01*
X154034527Y-82628444D01*
X154009941Y-82585859D01*
X153997314Y-82563990D01*
X153939040Y-82463056D01*
X153848433Y-82362426D01*
X153815675Y-82326045D01*
X153815674Y-82326044D01*
X153811253Y-82321134D01*
X153711456Y-82248627D01*
X153694677Y-82236436D01*
X153651323Y-82180213D01*
X153645248Y-82109477D01*
X153678380Y-82046686D01*
X153740200Y-82011774D01*
X153768738Y-82008500D01*
X154669290Y-82008500D01*
X154737411Y-82028502D01*
X154762926Y-82050189D01*
X154788747Y-82078866D01*
X154798251Y-82085771D01*
X154928239Y-82180213D01*
X154943248Y-82191118D01*
X154949276Y-82193802D01*
X154949278Y-82193803D01*
X155063955Y-82244860D01*
X155117712Y-82268794D01*
X155211113Y-82288647D01*
X155298056Y-82307128D01*
X155298061Y-82307128D01*
X155304513Y-82308500D01*
X155495487Y-82308500D01*
X155501939Y-82307128D01*
X155501944Y-82307128D01*
X155588887Y-82288647D01*
X155682288Y-82268794D01*
X155736045Y-82244860D01*
X155850722Y-82193803D01*
X155850724Y-82193802D01*
X155856752Y-82191118D01*
X155871762Y-82180213D01*
X155951602Y-82122205D01*
X156011253Y-82078866D01*
X156139040Y-81936944D01*
X156234527Y-81771556D01*
X156293542Y-81589928D01*
X156296776Y-81559164D01*
X156312814Y-81406565D01*
X156313504Y-81400000D01*
X156310324Y-81369745D01*
X156294232Y-81216635D01*
X156294232Y-81216633D01*
X156293542Y-81210072D01*
X156234527Y-81028444D01*
X156220282Y-81003770D01*
X156142341Y-80868774D01*
X156139040Y-80863056D01*
X156011253Y-80721134D01*
X155894677Y-80636436D01*
X155851323Y-80580213D01*
X155845248Y-80509477D01*
X155878380Y-80446686D01*
X155940200Y-80411774D01*
X155968738Y-80408500D01*
X156012918Y-80408500D01*
X156081039Y-80428502D01*
G37*
%TD.AperFunction*%
%TA.AperFunction,Conductor*%
G36*
X152608562Y-83693262D02*
G01*
X152743248Y-83791118D01*
X152749276Y-83793802D01*
X152749278Y-83793803D01*
X152911681Y-83866109D01*
X152917712Y-83868794D01*
X153001341Y-83886570D01*
X153098056Y-83907128D01*
X153098061Y-83907128D01*
X153104513Y-83908500D01*
X153195761Y-83908500D01*
X153263882Y-83928502D01*
X153284856Y-83945405D01*
X153754595Y-84415144D01*
X153788621Y-84477456D01*
X153791500Y-84504239D01*
X153791500Y-86903692D01*
X153771498Y-86971813D01*
X153717842Y-87018306D01*
X153647568Y-87028410D01*
X153632889Y-87025399D01*
X153489457Y-86986966D01*
X153489455Y-86986966D01*
X153484142Y-86985542D01*
X153270000Y-86966807D01*
X153055858Y-86985542D01*
X153050545Y-86986966D01*
X153050543Y-86986966D01*
X152853533Y-87039755D01*
X152853531Y-87039756D01*
X152848223Y-87041178D01*
X152843243Y-87043500D01*
X152843241Y-87043501D01*
X152658385Y-87129701D01*
X152658382Y-87129703D01*
X152653404Y-87132024D01*
X152606768Y-87164679D01*
X152539496Y-87187365D01*
X152470636Y-87170080D01*
X152422052Y-87118309D01*
X152408500Y-87061464D01*
X152408500Y-83795198D01*
X152428502Y-83727077D01*
X152482158Y-83680584D01*
X152552432Y-83670480D01*
X152608562Y-83693262D01*
G37*
%TD.AperFunction*%
%TD*%
M02*
