%TF.GenerationSoftware,KiCad,Pcbnew,(6.0.11)*%
%TF.CreationDate,2023-07-13T20:03:14-03:00*%
%TF.ProjectId,Open-Tens,4f70656e-2d54-4656-9e73-2e6b69636164,rev?*%
%TF.SameCoordinates,Original*%
%TF.FileFunction,Drillmap*%
%TF.FilePolarity,Positive*%
%FSLAX45Y45*%
G04 Gerber Fmt 4.5, Leading zero omitted, Abs format (unit mm)*
G04 Created by KiCad (PCBNEW (6.0.11)) date 2023-07-13 20:03:14*
%MOMM*%
%LPD*%
G01*
G04 APERTURE LIST*
%ADD10C,0.100000*%
%ADD11C,0.200000*%
%ADD12C,0.060000*%
G04 APERTURE END LIST*
D10*
X12980000Y-13720000D02*
X12980000Y-6470000D01*
X17230000Y-14470000D02*
X13730000Y-14470000D01*
X17980000Y-6470000D02*
X17980000Y-13720000D01*
X17230000Y-5720000D02*
X13730000Y-5720000D01*
X13730000Y-5720000D02*
G75*
G03*
X12980000Y-6470000I0J-750000D01*
G01*
X12980000Y-13720000D02*
G75*
G03*
X13730000Y-14470000I750000J0D01*
G01*
X17230000Y-14470000D02*
G75*
G03*
X17980000Y-13720000I0J750000D01*
G01*
X17980000Y-6470000D02*
G75*
G03*
X17230000Y-5720000I-750000J0D01*
G01*
D11*
D12*
X15161000Y-6335000D02*
X15221000Y-6395000D01*
X15221000Y-6335000D02*
X15161000Y-6395000D01*
X15739000Y-6335000D02*
X15799000Y-6395000D01*
X15799000Y-6335000D02*
X15739000Y-6395000D01*
D11*
X13232619Y-14785476D02*
X13232619Y-14585476D01*
X13280238Y-14585476D01*
X13308809Y-14595000D01*
X13327857Y-14614048D01*
X13337381Y-14633095D01*
X13346905Y-14671190D01*
X13346905Y-14699762D01*
X13337381Y-14737857D01*
X13327857Y-14756905D01*
X13308809Y-14775952D01*
X13280238Y-14785476D01*
X13232619Y-14785476D01*
X13432619Y-14785476D02*
X13432619Y-14652143D01*
X13432619Y-14690238D02*
X13442143Y-14671190D01*
X13451667Y-14661667D01*
X13470714Y-14652143D01*
X13489762Y-14652143D01*
X13556428Y-14785476D02*
X13556428Y-14652143D01*
X13556428Y-14585476D02*
X13546905Y-14595000D01*
X13556428Y-14604524D01*
X13565952Y-14595000D01*
X13556428Y-14585476D01*
X13556428Y-14604524D01*
X13680238Y-14785476D02*
X13661190Y-14775952D01*
X13651667Y-14756905D01*
X13651667Y-14585476D01*
X13785000Y-14785476D02*
X13765952Y-14775952D01*
X13756428Y-14756905D01*
X13756428Y-14585476D01*
X14013571Y-14785476D02*
X14013571Y-14585476D01*
X14080238Y-14728333D01*
X14146905Y-14585476D01*
X14146905Y-14785476D01*
X14327857Y-14785476D02*
X14327857Y-14680714D01*
X14318333Y-14661667D01*
X14299286Y-14652143D01*
X14261190Y-14652143D01*
X14242143Y-14661667D01*
X14327857Y-14775952D02*
X14308809Y-14785476D01*
X14261190Y-14785476D01*
X14242143Y-14775952D01*
X14232619Y-14756905D01*
X14232619Y-14737857D01*
X14242143Y-14718809D01*
X14261190Y-14709286D01*
X14308809Y-14709286D01*
X14327857Y-14699762D01*
X14423095Y-14652143D02*
X14423095Y-14852143D01*
X14423095Y-14661667D02*
X14442143Y-14652143D01*
X14480238Y-14652143D01*
X14499286Y-14661667D01*
X14508809Y-14671190D01*
X14518333Y-14690238D01*
X14518333Y-14747381D01*
X14508809Y-14766428D01*
X14499286Y-14775952D01*
X14480238Y-14785476D01*
X14442143Y-14785476D01*
X14423095Y-14775952D01*
X14604048Y-14766428D02*
X14613571Y-14775952D01*
X14604048Y-14785476D01*
X14594524Y-14775952D01*
X14604048Y-14766428D01*
X14604048Y-14785476D01*
X14604048Y-14661667D02*
X14613571Y-14671190D01*
X14604048Y-14680714D01*
X14594524Y-14671190D01*
X14604048Y-14661667D01*
X14604048Y-14680714D01*
D12*
X12915000Y-15085000D02*
X12975000Y-15145000D01*
X12975000Y-15085000D02*
X12915000Y-15145000D01*
D11*
X13270714Y-15005476D02*
X13289762Y-15005476D01*
X13308809Y-15015000D01*
X13318333Y-15024524D01*
X13327857Y-15043571D01*
X13337381Y-15081667D01*
X13337381Y-15129286D01*
X13327857Y-15167381D01*
X13318333Y-15186428D01*
X13308809Y-15195952D01*
X13289762Y-15205476D01*
X13270714Y-15205476D01*
X13251667Y-15195952D01*
X13242143Y-15186428D01*
X13232619Y-15167381D01*
X13223095Y-15129286D01*
X13223095Y-15081667D01*
X13232619Y-15043571D01*
X13242143Y-15024524D01*
X13251667Y-15015000D01*
X13270714Y-15005476D01*
X13423095Y-15186428D02*
X13432619Y-15195952D01*
X13423095Y-15205476D01*
X13413571Y-15195952D01*
X13423095Y-15186428D01*
X13423095Y-15205476D01*
X13604048Y-15005476D02*
X13565952Y-15005476D01*
X13546905Y-15015000D01*
X13537381Y-15024524D01*
X13518333Y-15053095D01*
X13508809Y-15091190D01*
X13508809Y-15167381D01*
X13518333Y-15186428D01*
X13527857Y-15195952D01*
X13546905Y-15205476D01*
X13585000Y-15205476D01*
X13604048Y-15195952D01*
X13613571Y-15186428D01*
X13623095Y-15167381D01*
X13623095Y-15119762D01*
X13613571Y-15100714D01*
X13604048Y-15091190D01*
X13585000Y-15081667D01*
X13546905Y-15081667D01*
X13527857Y-15091190D01*
X13518333Y-15100714D01*
X13508809Y-15119762D01*
X13746905Y-15005476D02*
X13765952Y-15005476D01*
X13785000Y-15015000D01*
X13794524Y-15024524D01*
X13804048Y-15043571D01*
X13813571Y-15081667D01*
X13813571Y-15129286D01*
X13804048Y-15167381D01*
X13794524Y-15186428D01*
X13785000Y-15195952D01*
X13765952Y-15205476D01*
X13746905Y-15205476D01*
X13727857Y-15195952D01*
X13718333Y-15186428D01*
X13708809Y-15167381D01*
X13699286Y-15129286D01*
X13699286Y-15081667D01*
X13708809Y-15043571D01*
X13718333Y-15024524D01*
X13727857Y-15015000D01*
X13746905Y-15005476D01*
X13937381Y-15005476D02*
X13956428Y-15005476D01*
X13975476Y-15015000D01*
X13985000Y-15024524D01*
X13994524Y-15043571D01*
X14004048Y-15081667D01*
X14004048Y-15129286D01*
X13994524Y-15167381D01*
X13985000Y-15186428D01*
X13975476Y-15195952D01*
X13956428Y-15205476D01*
X13937381Y-15205476D01*
X13918333Y-15195952D01*
X13908809Y-15186428D01*
X13899286Y-15167381D01*
X13889762Y-15129286D01*
X13889762Y-15081667D01*
X13899286Y-15043571D01*
X13908809Y-15024524D01*
X13918333Y-15015000D01*
X13937381Y-15005476D01*
X14089762Y-15205476D02*
X14089762Y-15072143D01*
X14089762Y-15091190D02*
X14099286Y-15081667D01*
X14118333Y-15072143D01*
X14146905Y-15072143D01*
X14165952Y-15081667D01*
X14175476Y-15100714D01*
X14175476Y-15205476D01*
X14175476Y-15100714D02*
X14185000Y-15081667D01*
X14204048Y-15072143D01*
X14232619Y-15072143D01*
X14251667Y-15081667D01*
X14261190Y-15100714D01*
X14261190Y-15205476D01*
X14356428Y-15205476D02*
X14356428Y-15072143D01*
X14356428Y-15091190D02*
X14365952Y-15081667D01*
X14385000Y-15072143D01*
X14413571Y-15072143D01*
X14432619Y-15081667D01*
X14442143Y-15100714D01*
X14442143Y-15205476D01*
X14442143Y-15100714D02*
X14451667Y-15081667D01*
X14470714Y-15072143D01*
X14499286Y-15072143D01*
X14518333Y-15081667D01*
X14527857Y-15100714D01*
X14527857Y-15205476D01*
X14918333Y-14995952D02*
X14746905Y-15253095D01*
X15175476Y-15005476D02*
X15194524Y-15005476D01*
X15213571Y-15015000D01*
X15223095Y-15024524D01*
X15232619Y-15043571D01*
X15242143Y-15081667D01*
X15242143Y-15129286D01*
X15232619Y-15167381D01*
X15223095Y-15186428D01*
X15213571Y-15195952D01*
X15194524Y-15205476D01*
X15175476Y-15205476D01*
X15156428Y-15195952D01*
X15146905Y-15186428D01*
X15137381Y-15167381D01*
X15127857Y-15129286D01*
X15127857Y-15081667D01*
X15137381Y-15043571D01*
X15146905Y-15024524D01*
X15156428Y-15015000D01*
X15175476Y-15005476D01*
X15327857Y-15186428D02*
X15337381Y-15195952D01*
X15327857Y-15205476D01*
X15318333Y-15195952D01*
X15327857Y-15186428D01*
X15327857Y-15205476D01*
X15461190Y-15005476D02*
X15480238Y-15005476D01*
X15499286Y-15015000D01*
X15508809Y-15024524D01*
X15518333Y-15043571D01*
X15527857Y-15081667D01*
X15527857Y-15129286D01*
X15518333Y-15167381D01*
X15508809Y-15186428D01*
X15499286Y-15195952D01*
X15480238Y-15205476D01*
X15461190Y-15205476D01*
X15442143Y-15195952D01*
X15432619Y-15186428D01*
X15423095Y-15167381D01*
X15413571Y-15129286D01*
X15413571Y-15081667D01*
X15423095Y-15043571D01*
X15432619Y-15024524D01*
X15442143Y-15015000D01*
X15461190Y-15005476D01*
X15604048Y-15024524D02*
X15613571Y-15015000D01*
X15632619Y-15005476D01*
X15680238Y-15005476D01*
X15699286Y-15015000D01*
X15708809Y-15024524D01*
X15718333Y-15043571D01*
X15718333Y-15062619D01*
X15708809Y-15091190D01*
X15594524Y-15205476D01*
X15718333Y-15205476D01*
X15785000Y-15005476D02*
X15908809Y-15005476D01*
X15842143Y-15081667D01*
X15870714Y-15081667D01*
X15889762Y-15091190D01*
X15899286Y-15100714D01*
X15908809Y-15119762D01*
X15908809Y-15167381D01*
X15899286Y-15186428D01*
X15889762Y-15195952D01*
X15870714Y-15205476D01*
X15813571Y-15205476D01*
X15794524Y-15195952D01*
X15785000Y-15186428D01*
X16080238Y-15005476D02*
X16042143Y-15005476D01*
X16023095Y-15015000D01*
X16013571Y-15024524D01*
X15994524Y-15053095D01*
X15985000Y-15091190D01*
X15985000Y-15167381D01*
X15994524Y-15186428D01*
X16004048Y-15195952D01*
X16023095Y-15205476D01*
X16061190Y-15205476D01*
X16080238Y-15195952D01*
X16089762Y-15186428D01*
X16099286Y-15167381D01*
X16099286Y-15119762D01*
X16089762Y-15100714D01*
X16080238Y-15091190D01*
X16061190Y-15081667D01*
X16023095Y-15081667D01*
X16004048Y-15091190D01*
X15994524Y-15100714D01*
X15985000Y-15119762D01*
X16175476Y-15005476D02*
X16175476Y-15043571D01*
X16251667Y-15005476D02*
X16251667Y-15043571D01*
X16546905Y-15281667D02*
X16537381Y-15272143D01*
X16518333Y-15243571D01*
X16508809Y-15224524D01*
X16499286Y-15195952D01*
X16489762Y-15148333D01*
X16489762Y-15110238D01*
X16499286Y-15062619D01*
X16508809Y-15034048D01*
X16518333Y-15015000D01*
X16537381Y-14986428D01*
X16546905Y-14976905D01*
X16613571Y-15024524D02*
X16623095Y-15015000D01*
X16642143Y-15005476D01*
X16689762Y-15005476D01*
X16708809Y-15015000D01*
X16718333Y-15024524D01*
X16727857Y-15043571D01*
X16727857Y-15062619D01*
X16718333Y-15091190D01*
X16604048Y-15205476D01*
X16727857Y-15205476D01*
X16965952Y-15205476D02*
X16965952Y-15005476D01*
X17051667Y-15205476D02*
X17051667Y-15100714D01*
X17042143Y-15081667D01*
X17023095Y-15072143D01*
X16994524Y-15072143D01*
X16975476Y-15081667D01*
X16965952Y-15091190D01*
X17175476Y-15205476D02*
X17156429Y-15195952D01*
X17146905Y-15186428D01*
X17137381Y-15167381D01*
X17137381Y-15110238D01*
X17146905Y-15091190D01*
X17156429Y-15081667D01*
X17175476Y-15072143D01*
X17204048Y-15072143D01*
X17223095Y-15081667D01*
X17232619Y-15091190D01*
X17242143Y-15110238D01*
X17242143Y-15167381D01*
X17232619Y-15186428D01*
X17223095Y-15195952D01*
X17204048Y-15205476D01*
X17175476Y-15205476D01*
X17356429Y-15205476D02*
X17337381Y-15195952D01*
X17327857Y-15176905D01*
X17327857Y-15005476D01*
X17508810Y-15195952D02*
X17489762Y-15205476D01*
X17451667Y-15205476D01*
X17432619Y-15195952D01*
X17423095Y-15176905D01*
X17423095Y-15100714D01*
X17432619Y-15081667D01*
X17451667Y-15072143D01*
X17489762Y-15072143D01*
X17508810Y-15081667D01*
X17518333Y-15100714D01*
X17518333Y-15119762D01*
X17423095Y-15138809D01*
X17594524Y-15195952D02*
X17613571Y-15205476D01*
X17651667Y-15205476D01*
X17670714Y-15195952D01*
X17680238Y-15176905D01*
X17680238Y-15167381D01*
X17670714Y-15148333D01*
X17651667Y-15138809D01*
X17623095Y-15138809D01*
X17604048Y-15129286D01*
X17594524Y-15110238D01*
X17594524Y-15100714D01*
X17604048Y-15081667D01*
X17623095Y-15072143D01*
X17651667Y-15072143D01*
X17670714Y-15081667D01*
X17746905Y-15281667D02*
X17756429Y-15272143D01*
X17775476Y-15243571D01*
X17785000Y-15224524D01*
X17794524Y-15195952D01*
X17804048Y-15148333D01*
X17804048Y-15110238D01*
X17794524Y-15062619D01*
X17785000Y-15034048D01*
X17775476Y-15015000D01*
X17756429Y-14986428D01*
X17746905Y-14976905D01*
X18108810Y-15281667D02*
X18099286Y-15272143D01*
X18080238Y-15243571D01*
X18070714Y-15224524D01*
X18061190Y-15195952D01*
X18051667Y-15148333D01*
X18051667Y-15110238D01*
X18061190Y-15062619D01*
X18070714Y-15034048D01*
X18080238Y-15015000D01*
X18099286Y-14986428D01*
X18108810Y-14976905D01*
X18185000Y-15072143D02*
X18185000Y-15205476D01*
X18185000Y-15091190D02*
X18194524Y-15081667D01*
X18213571Y-15072143D01*
X18242143Y-15072143D01*
X18261190Y-15081667D01*
X18270714Y-15100714D01*
X18270714Y-15205476D01*
X18394524Y-15205476D02*
X18375476Y-15195952D01*
X18365952Y-15186428D01*
X18356429Y-15167381D01*
X18356429Y-15110238D01*
X18365952Y-15091190D01*
X18375476Y-15081667D01*
X18394524Y-15072143D01*
X18423095Y-15072143D01*
X18442143Y-15081667D01*
X18451667Y-15091190D01*
X18461190Y-15110238D01*
X18461190Y-15167381D01*
X18451667Y-15186428D01*
X18442143Y-15195952D01*
X18423095Y-15205476D01*
X18394524Y-15205476D01*
X18518333Y-15072143D02*
X18594524Y-15072143D01*
X18546905Y-15005476D02*
X18546905Y-15176905D01*
X18556429Y-15195952D01*
X18575476Y-15205476D01*
X18594524Y-15205476D01*
X18813571Y-15072143D02*
X18813571Y-15272143D01*
X18813571Y-15081667D02*
X18832619Y-15072143D01*
X18870714Y-15072143D01*
X18889762Y-15081667D01*
X18899286Y-15091190D01*
X18908810Y-15110238D01*
X18908810Y-15167381D01*
X18899286Y-15186428D01*
X18889762Y-15195952D01*
X18870714Y-15205476D01*
X18832619Y-15205476D01*
X18813571Y-15195952D01*
X19023095Y-15205476D02*
X19004048Y-15195952D01*
X18994524Y-15176905D01*
X18994524Y-15005476D01*
X19185000Y-15205476D02*
X19185000Y-15100714D01*
X19175476Y-15081667D01*
X19156429Y-15072143D01*
X19118333Y-15072143D01*
X19099286Y-15081667D01*
X19185000Y-15195952D02*
X19165952Y-15205476D01*
X19118333Y-15205476D01*
X19099286Y-15195952D01*
X19089762Y-15176905D01*
X19089762Y-15157857D01*
X19099286Y-15138809D01*
X19118333Y-15129286D01*
X19165952Y-15129286D01*
X19185000Y-15119762D01*
X19251667Y-15072143D02*
X19327857Y-15072143D01*
X19280238Y-15005476D02*
X19280238Y-15176905D01*
X19289762Y-15195952D01*
X19308810Y-15205476D01*
X19327857Y-15205476D01*
X19470714Y-15195952D02*
X19451667Y-15205476D01*
X19413571Y-15205476D01*
X19394524Y-15195952D01*
X19385000Y-15176905D01*
X19385000Y-15100714D01*
X19394524Y-15081667D01*
X19413571Y-15072143D01*
X19451667Y-15072143D01*
X19470714Y-15081667D01*
X19480238Y-15100714D01*
X19480238Y-15119762D01*
X19385000Y-15138809D01*
X19651667Y-15205476D02*
X19651667Y-15005476D01*
X19651667Y-15195952D02*
X19632619Y-15205476D01*
X19594524Y-15205476D01*
X19575476Y-15195952D01*
X19565952Y-15186428D01*
X19556429Y-15167381D01*
X19556429Y-15110238D01*
X19565952Y-15091190D01*
X19575476Y-15081667D01*
X19594524Y-15072143D01*
X19632619Y-15072143D01*
X19651667Y-15081667D01*
X19727857Y-15281667D02*
X19737381Y-15272143D01*
X19756429Y-15243571D01*
X19765952Y-15224524D01*
X19775476Y-15195952D01*
X19785000Y-15148333D01*
X19785000Y-15110238D01*
X19775476Y-15062619D01*
X19765952Y-15034048D01*
X19756429Y-15015000D01*
X19737381Y-14986428D01*
X19727857Y-14976905D01*
M02*
