%TF.GenerationSoftware,KiCad,Pcbnew,(6.0.11)*%
%TF.CreationDate,2023-07-13T20:03:18-03:00*%
%TF.ProjectId,Open-Tens,4f70656e-2d54-4656-9e73-2e6b69636164,rev?*%
%TF.SameCoordinates,Original*%
%TF.FileFunction,Paste,Top*%
%TF.FilePolarity,Positive*%
%FSLAX46Y46*%
G04 Gerber Fmt 4.6, Leading zero omitted, Abs format (unit mm)*
G04 Created by KiCad (PCBNEW (6.0.11)) date 2023-07-13 20:03:18*
%MOMM*%
%LPD*%
G01*
G04 APERTURE LIST*
G04 Aperture macros list*
%AMRoundRect*
0 Rectangle with rounded corners*
0 $1 Rounding radius*
0 $2 $3 $4 $5 $6 $7 $8 $9 X,Y pos of 4 corners*
0 Add a 4 corners polygon primitive as box body*
4,1,4,$2,$3,$4,$5,$6,$7,$8,$9,$2,$3,0*
0 Add four circle primitives for the rounded corners*
1,1,$1+$1,$2,$3*
1,1,$1+$1,$4,$5*
1,1,$1+$1,$6,$7*
1,1,$1+$1,$8,$9*
0 Add four rect primitives between the rounded corners*
20,1,$1+$1,$2,$3,$4,$5,0*
20,1,$1+$1,$4,$5,$6,$7,0*
20,1,$1+$1,$6,$7,$8,$9,0*
20,1,$1+$1,$8,$9,$2,$3,0*%
G04 Aperture macros list end*
%ADD10R,3.100000X7.700000*%
%ADD11RoundRect,0.250000X0.325000X1.100000X-0.325000X1.100000X-0.325000X-1.100000X0.325000X-1.100000X0*%
%ADD12R,2.000000X2.400000*%
%ADD13RoundRect,0.075000X0.415425X0.521491X-0.521491X-0.415425X-0.415425X-0.521491X0.521491X0.415425X0*%
%ADD14RoundRect,0.075000X-0.415425X0.521491X-0.521491X0.415425X0.415425X-0.521491X0.521491X-0.415425X0*%
%ADD15RoundRect,0.150000X-0.587500X-0.150000X0.587500X-0.150000X0.587500X0.150000X-0.587500X0.150000X0*%
%ADD16RoundRect,0.150000X-0.675000X-0.150000X0.675000X-0.150000X0.675000X0.150000X-0.675000X0.150000X0*%
%ADD17R,2.800000X1.000000*%
%ADD18RoundRect,0.200000X0.200000X0.275000X-0.200000X0.275000X-0.200000X-0.275000X0.200000X-0.275000X0*%
%ADD19RoundRect,0.200000X-0.200000X-0.275000X0.200000X-0.275000X0.200000X0.275000X-0.200000X0.275000X0*%
%ADD20RoundRect,0.200000X0.275000X-0.200000X0.275000X0.200000X-0.275000X0.200000X-0.275000X-0.200000X0*%
%ADD21RoundRect,0.150000X0.512500X0.150000X-0.512500X0.150000X-0.512500X-0.150000X0.512500X-0.150000X0*%
%ADD22R,0.600000X1.160000*%
%ADD23R,0.300000X1.160000*%
%ADD24RoundRect,0.250000X0.312500X0.625000X-0.312500X0.625000X-0.312500X-0.625000X0.312500X-0.625000X0*%
%ADD25RoundRect,0.250000X-0.312500X-0.625000X0.312500X-0.625000X0.312500X0.625000X-0.312500X0.625000X0*%
%ADD26RoundRect,0.250000X-0.375000X-1.075000X0.375000X-1.075000X0.375000X1.075000X-0.375000X1.075000X0*%
%ADD27RoundRect,0.140000X-0.140000X-0.170000X0.140000X-0.170000X0.140000X0.170000X-0.140000X0.170000X0*%
%ADD28RoundRect,0.140000X0.140000X0.170000X-0.140000X0.170000X-0.140000X-0.170000X0.140000X-0.170000X0*%
%ADD29RoundRect,0.250000X-0.325000X-1.100000X0.325000X-1.100000X0.325000X1.100000X-0.325000X1.100000X0*%
%ADD30RoundRect,0.225000X-0.225000X-0.250000X0.225000X-0.250000X0.225000X0.250000X-0.225000X0.250000X0*%
%ADD31RoundRect,0.225000X0.225000X0.250000X-0.225000X0.250000X-0.225000X-0.250000X0.225000X-0.250000X0*%
G04 APERTURE END LIST*
D10*
%TO.C,L1*%
X159250000Y-119700000D03*
X152350000Y-119700000D03*
%TD*%
D11*
%TO.C,C9*%
X146275000Y-101680000D03*
X143325000Y-101680000D03*
%TD*%
D12*
%TO.C,Y1*%
X162650000Y-96200000D03*
X158950000Y-96200000D03*
%TD*%
D13*
%TO.C,U3*%
X159687876Y-104201212D03*
X159334322Y-103847658D03*
X158980769Y-103494105D03*
X158627215Y-103140551D03*
X158273662Y-102786998D03*
X157920109Y-102433445D03*
X157566555Y-102079891D03*
X157213002Y-101726338D03*
X156859449Y-101372785D03*
X156505895Y-101019231D03*
X156152342Y-100665678D03*
X155798788Y-100312124D03*
D14*
X153801212Y-100312124D03*
X153447658Y-100665678D03*
X153094105Y-101019231D03*
X152740551Y-101372785D03*
X152386998Y-101726338D03*
X152033445Y-102079891D03*
X151679891Y-102433445D03*
X151326338Y-102786998D03*
X150972785Y-103140551D03*
X150619231Y-103494105D03*
X150265678Y-103847658D03*
X149912124Y-104201212D03*
D13*
X149912124Y-106198788D03*
X150265678Y-106552342D03*
X150619231Y-106905895D03*
X150972785Y-107259449D03*
X151326338Y-107613002D03*
X151679891Y-107966555D03*
X152033445Y-108320109D03*
X152386998Y-108673662D03*
X152740551Y-109027215D03*
X153094105Y-109380769D03*
X153447658Y-109734322D03*
X153801212Y-110087876D03*
D14*
X155798788Y-110087876D03*
X156152342Y-109734322D03*
X156505895Y-109380769D03*
X156859449Y-109027215D03*
X157213002Y-108673662D03*
X157566555Y-108320109D03*
X157920109Y-107966555D03*
X158273662Y-107613002D03*
X158627215Y-107259449D03*
X158980769Y-106905895D03*
X159334322Y-106552342D03*
X159687876Y-106198788D03*
%TD*%
D15*
%TO.C,U2*%
X148445307Y-74570137D03*
X148445307Y-76470137D03*
X150320307Y-75520137D03*
%TD*%
D16*
%TO.C,U1*%
X138675000Y-87795000D03*
X138675000Y-89065000D03*
X138675000Y-90335000D03*
X138675000Y-91605000D03*
X143925000Y-91605000D03*
X143925000Y-90335000D03*
X143925000Y-89065000D03*
X143925000Y-87795000D03*
%TD*%
D17*
%TO.C,SELECT*%
X168400000Y-84700000D03*
X174200000Y-84700000D03*
X168400000Y-88700000D03*
X174200000Y-88700000D03*
%TD*%
%TO.C,RESET*%
X168400000Y-94200000D03*
X174200000Y-94200000D03*
X168400000Y-98200000D03*
X174200000Y-98200000D03*
%TD*%
D18*
%TO.C,R15*%
X166512500Y-107600000D03*
X164862500Y-107600000D03*
%TD*%
%TO.C,R14*%
X166350000Y-114700000D03*
X164700000Y-114700000D03*
%TD*%
%TO.C,R13*%
X164670000Y-121900000D03*
X166320000Y-121900000D03*
%TD*%
D19*
%TO.C,R11*%
X151150000Y-68700000D03*
X152800000Y-68700000D03*
%TD*%
D20*
%TO.C,R10*%
X149600000Y-88575000D03*
X149600000Y-90225000D03*
%TD*%
D19*
%TO.C,R9*%
X163475000Y-84700000D03*
X165125000Y-84700000D03*
%TD*%
%TO.C,R8*%
X163575000Y-111600000D03*
X165225000Y-111600000D03*
%TD*%
D18*
%TO.C,R7*%
X139425000Y-63400000D03*
X137775000Y-63400000D03*
%TD*%
%TO.C,R6*%
X162455000Y-70200000D03*
X160805000Y-70200000D03*
%TD*%
%TO.C,R5*%
X173125000Y-70200000D03*
X171475000Y-70200000D03*
%TD*%
D20*
%TO.C,R4*%
X142841671Y-75107894D03*
X142841671Y-73457894D03*
%TD*%
D18*
%TO.C,R3*%
X143862258Y-133700000D03*
X142212258Y-133700000D03*
%TD*%
D20*
%TO.C,R2*%
X136400000Y-90225000D03*
X136400000Y-88575000D03*
%TD*%
D19*
%TO.C,R1*%
X139475000Y-121200000D03*
X141125000Y-121200000D03*
%TD*%
D21*
%TO.C,Q3*%
X137662500Y-74200000D03*
X139937500Y-73250000D03*
X139937500Y-75150000D03*
%TD*%
D22*
%TO.C,J2*%
X158000000Y-64710000D03*
X157200000Y-64710000D03*
D23*
X156050000Y-64710000D03*
X155050000Y-64710000D03*
X154550000Y-64710000D03*
X153550000Y-64710000D03*
D22*
X152400000Y-64710000D03*
X151600000Y-64710000D03*
X151600000Y-64710000D03*
X152400000Y-64710000D03*
D23*
X153050000Y-64710000D03*
X154050000Y-64710000D03*
X155550000Y-64710000D03*
X156550000Y-64710000D03*
D22*
X157200000Y-64710000D03*
X158000000Y-64710000D03*
%TD*%
D24*
%TO.C,F3*%
X161862500Y-136700000D03*
X158937500Y-136700000D03*
%TD*%
D25*
%TO.C,F2*%
X142462500Y-79800000D03*
X139537500Y-79800000D03*
%TD*%
%TO.C,F1*%
X163800000Y-62700000D03*
X166725000Y-62700000D03*
%TD*%
D26*
%TO.C,D4*%
X169962499Y-62700000D03*
X172762499Y-62700000D03*
%TD*%
%TO.C,D1*%
X159900000Y-127200000D03*
X162700000Y-127200000D03*
%TD*%
D27*
%TO.C,C14*%
X161800000Y-105280000D03*
X162760000Y-105280000D03*
%TD*%
%TO.C,C13*%
X161820000Y-108200000D03*
X162780000Y-108200000D03*
%TD*%
D28*
%TO.C,C12*%
X145769180Y-105200000D03*
X146729180Y-105200000D03*
%TD*%
D27*
%TO.C,C11*%
X154320000Y-98600000D03*
X155280000Y-98600000D03*
%TD*%
D28*
%TO.C,C10*%
X152480000Y-112400000D03*
X151520000Y-112400000D03*
%TD*%
%TO.C,C8*%
X159080000Y-99000000D03*
X158120000Y-99000000D03*
%TD*%
D27*
%TO.C,C7*%
X162520000Y-99000000D03*
X163480000Y-99000000D03*
%TD*%
D29*
%TO.C,C6*%
X143825000Y-94700000D03*
X146775000Y-94700000D03*
%TD*%
D30*
%TO.C,C5*%
X148607807Y-78220136D03*
X150157807Y-78220136D03*
%TD*%
D31*
%TO.C,C4*%
X148607807Y-72730137D03*
X150157807Y-72730137D03*
%TD*%
D11*
%TO.C,C1*%
X138775000Y-94700000D03*
X135825000Y-94700000D03*
%TD*%
M02*
